SplineFontDB: 3.0
FontName: ModernAntiqua-Book
FullName: Modern Antiqua Book
FamilyName: Modern Antiqua
Weight: Book
Copyright: Copyright (c) 2020-2024 by Wojciech Kalinowski "wmk69" with Reserved Font Name "ModernAntiqua-Book".\nThis Font Software is licensed under the SIL Open Font License, Version 1.1.
Version: 3.1.0; 2021-05-28
ItalicAngle: 0
UnderlinePosition: -80
UnderlineWidth: 200
Ascent: 1638
Descent: 410
InvalidEm: 0
LayerCount: 2
Layer: 0 1 "Warstwa t+AUIA-a" 1
Layer: 1 1 "Plan pierwszy" 0
XUID: [1021 783 23647091 7762759]
StyleMap: 0x0040
FSType: 0
OS2Version: 3
OS2_WeightWidthSlopeOnly: 0
OS2_UseTypoMetrics: 1
CreationTime: 1260698820
ModificationTime: 1622217592
PfmFamily: 17
TTFWeight: 400
TTFWidth: 5
LineGap: 300
VLineGap: 0
Panose: 2 5 5 3 6 5 5 6 4 4
OS2TypoAscent: 1950
OS2TypoAOffset: 0
OS2TypoDescent: -537
OS2TypoDOffset: 0
OS2TypoLinegap: 300
OS2WinAscent: 1950
OS2WinAOffset: 0
OS2WinDescent: 537
OS2WinDOffset: 0
HheadAscent: 1950
HheadAOffset: 0
HheadDescent: -537
HheadDOffset: 0
OS2SubXSize: 1434
OS2SubYSize: 1331
OS2SubXOff: 0
OS2SubYOff: 287
OS2SupXSize: 1434
OS2SupYSize: 1331
OS2SupXOff: 0
OS2SupYOff: 977
OS2StrikeYSize: 102
OS2StrikeYPos: 512
OS2CapHeight: 1510
OS2XHeight: 1100
OS2Vendor: '    '
OS2CodePages: 20000093.00000000
OS2UnicodeRanges: 8000002f.4000204b.00000000.00000000
Lookup: 258 0 0 "'kern' Horizontal Kerning lookup 0" { "'kern' Horizontal Kerning lookup 0-1 subtable" [307,0,4] } ['kern' ('DFLT' <'dflt' > 'grek' <'dflt' > 'latn' <'dflt' > ) ]
MarkAttachClasses: 1
DEI: 91125
KernClass2: 69 53 "'kern' Horizontal Kerning lookup 0-1 subtable"
 84 A Agrave Aacute Acircumflex Atilde Adieresis Aring Amacron Abreve Aogonek Aringacute
 28 B germandbls uni1E02 uni1E9E
 47 C Ccedilla Cacute Ccircumflex Cdotaccent Ccaron
 122 D O Q Eth Ograve Oacute Ocircumflex Otilde Odieresis Oslash Dcaron Dcroat Omacron Obreve Ohungarumlaut Oslashacute uni1E0A

StartChar: .notdef
Encoding: 65536 -1 0
Width: 994
Flags: W
HStem: 0 68<260 734> 1442 68<260 734>
VStem: 150 110<68 1442> 734 110<68 1442>
LayerCount: 2
Fore
SplineSet
150 0 m 1,0,-1
 150 1510 l 1,1,-1
 844 1510 l 1,2,-1
 844 0 l 1,3,-1
 150 0 l 1,0,-1
260 68 m 1,4,-1
 734 68 l 1,5,-1
 734 1442 l 1,6,-1
 260 1442 l 1,7,-1
 260 68 l 1,4,-1
EndSplineSet
Validated: 1
EndChar

StartChar: exclam
Encoding: 33 33 4
Width: 659
GlyphClass: 2
Flags: W
HStem: -20 264<239.191 420.324> 1510 20G<303 357>
VStem: 200 259<19.7072 204.293 1189.1 1490.29>
LayerCount: 2
Fore
SplineSet
330 -20 m 128,-1,1
 276 -20 276 -20 238 18.5 c 128,-1,2
 200 57 200 57 200 112 c 128,-1,3
 200 167 200 167 238 205.5 c 128,-1,4
 276 244 276 244 330 244 c 128,-1,5
 384 244 384 244 421.5 205.5 c 128,-1,6
 459 167 459 167 459 112 c 128,-1,7
 459 57 459 57 421.5 18.5 c 128,-1,0
 384 -20 384 -20 330 -20 c 128,-1,1
330 1530 m 128,-1,9
 384 1530 384 1530 421.5 1492 c 128,-1,10
 459 1454 459 1454 459 1398 c 0,11,-1
 458 1376 l 2,12,-1
 378 320 l 1,13,-1
 280 320 l 1,14,-1
 201 1376 l 2,15,16
 200 1389 200 1389 200 1398 c 0,17,18
 200 1453 200 1453 238 1491.5 c 128,-1,8
 276 1530 276 1530 330 1530 c 128,-1,9
EndSplineSet
Validated: 1
EndChar

StartChar: quotedbl
Encoding: 34 34 5
Width: 644
GlyphClass: 2
Flags: W
HStem: 1141 409<-64 47.022 228 339.022>
VStem: 132 170<1210.79 1500.91> 424 170<1210.79 1500.91>
LayerCount: 2
Fore
SplineSet
342 1550 m 1,0,1
 538 1550 l 1,2,3
 594 1470 594 1470 594 1379 c 0,4,5
 594 1267 594 1267 508 1141 c 1,6,-1
 372 1141 l 1,7,8
 424 1250 424 1250 424 1343 c 0,9,10
 424 1460 424 1460 342 1550 c 1,0,1
50 1550 m 1,11,-1
 246 1550 l 1,12,13
 302 1470 302 1470 302 1379 c 0,14,15
 302 1267 302 1267 216 1141 c 1,16,-1
 80 1141 l 1,17,18
 132 1250 132 1250 132 1343 c 0,19,20
 132 1460 132 1460 50 1550 c 1,11,-1
EndSplineSet
Validated: 1
EndChar

StartChar: numbersign
Encoding: 35 35 6
Width: 1354
GlyphClass: 2
Flags: W
HStem: 517 131<274 440 571 783 913 1080> 859 131<274 440 571 783 913 1080>
VStem: 440 131<351 517 648 859 990 1156> 783 130<351 517 648 859 990 1156>
LayerCount: 2
Fore
SplineSet
571 1230 m 1,0,-1
 571 990 l 1,1,-1
 783 990 l 1,2,-1
 783 1156 l 1,3,-1
 913 1230 l 1,4,-1
 913 990 l 1,5,-1
 1154 990 l 1,6,-1
 1080 859 l 1,7,-1
 913 859 l 1,8,-1
 913 648 l 1,9,-1
 1154 648 l 1,10,-1
 1080 517 l 1,11,-1
 913 517 l 1,12,-1
 913 351 l 1,13,-1
 783 277 l 1,14,-1
 783 517 l 1,15,-1
 571 517 l 1,16,-1
 571 351 l 1,17,-1
 440 277 l 1,18,-1
 440 517 l 1,19,-1
 200 517 l 1,20,-1
 274 648 l 1,21,-1
 440 648 l 1,22,-1
 440 859 l 1,23,-1
 200 859 l 1,24,-1
 274 990 l 1,25,-1
 440 990 l 1,26,-1
 440 1156 l 1,27,-1
 571 1230 l 1,0,-1
571 859 m 1,28,-1
 571 648 l 1,29,-1
 783 648 l 1,30,-1
 783 859 l 1,31,-1
 571 859 l 1,28,-1
EndSplineSet
Validated: 1
EndChar

StartChar: dollar
Encoding: 36 36 7
Width: 1301
GlyphClass: 2
Flags: W
HStem: -19 92<439.75 600 700 811.699> 1438 82<700 793.401>
VStem: 120 15<-20 7.19336 532.055 566> 222 188<1102.88 1353.76> 600 100<-93 -15.7578 77 718 998 1438 1530 1603> 974 15<1080 1104.57> 977 204<259.825 543.719>
DStem2: 600 998 521 800 0.916696 -0.399585<-184.36 0 203.554 437.4>
LayerCount: 2
Fore
SplineSet
600 -150 m 1,0,-1
 600 -19 l 1,1,2
 463 -12 463 -12 348 45 c 0,3,4
 270 84 270 84 230 84 c 0,5,6
 157 84 157 84 135 -20 c 1,7,-1
 120 -20 l 1,8,-1
 120 566 l 1,9,-1
 135 566 l 1,10,11
 175 345 175 345 299 220 c 0,12,13
 430 87 430 87 600 73 c 1,14,-1
 600 764 l 1,15,-1
 521 800 l 2,16,17
 222 936 222 936 222 1189 c 0,18,19
 222 1335 222 1335 336 1437 c 0,20,21
 439 1530 439 1530 600 1530 c 1,22,-1
 600 1603 l 1,23,-1
 700 1660 l 1,24,-1
 700 1520 l 1,25,26
 735 1512 735 1512 767 1499 c 0,27,28
 855 1463 855 1463 898 1463 c 0,29,30
 942 1463 942 1463 974 1530 c 1,31,-1
 989 1530 l 1,32,-1
 989 1080 l 1,33,-1
 974 1080 l 1,34,35
 937 1213 937 1213 880 1304 c 0,36,37
 809 1417 809 1417 700 1438 c 1,38,-1
 700 954 l 1,39,-1
 834 896 l 2,40,41
 1181 746 1181 746 1181 463 c 0,42,43
 1181 251 1181 251 1020 106 c 0,44,45
 900 -3 900 -3 700 -18 c 1,46,-1
 700 -93 l 1,47,-1
 600 -150 l 1,0,-1
600 998 m 1,48,-1
 600 1438 l 1,49,50
 527 1427 527 1427 478 1382 c 0,51,52
 410 1320 410 1320 410 1223 c 0,53,54
 410 1083 410 1083 600 998 c 1,48,-1
700 718 m 1,55,-1
 700 77 l 1,56,57
 820 96 820 96 903 191 c 0,58,59
 977 277 977 277 977 399 c 0,60,61
 977 591 977 591 724 707 c 2,62,-1
 700 718 l 1,55,-1
EndSplineSet
Validated: 1
EndChar

StartChar: percent
Encoding: 37 37 8
Width: 1589
GlyphClass: 2
Flags: W
HStem: -20 84<1038.15 1214.05> 580 84<1037.96 1214.22> 846 84<375.152 551.055> 1446 84<374.959 551.22>
VStem: 150 164<1004.63 1372.63> 612 164<1003.39 1372.31> 813 164<138.632 506.625> 1275 164<137.39 506.315>
DStem2: 266 34 397 -40 0.522628 0.852561<5.37472 1778.53>
LayerCount: 2
Fore
SplineSet
1126 -20 m 128,-1,1
 1008 -20 1008 -20 918 62 c 0,2,3
 813 157 813 157 813 322.5 c 128,-1,4
 813 488 813 488 918 582 c 0,5,6
 1008 664 1008 664 1126 664 c 128,-1,7
 1244 664 1244 664 1334 582 c 0,8,9
 1439 487 1439 487 1439 321.5 c 128,-1,10
 1439 156 1439 156 1334 62 c 0,11,0
 1244 -20 1244 -20 1126 -20 c 128,-1,1
1126.5 64 m 128,-1,13
 1192 64 1192 64 1236 134 c 0,14,15
 1275 197 1275 197 1275 322 c 128,-1,16
 1275 447 1275 447 1236 510 c 0,17,18
 1193 580 1193 580 1126 580 c 0,19,20
 1060 580 1060 580 1016 510 c 0,21,22
 977 448 977 448 977 322 c 0,23,24
 977 195 977 195 1016 134 c 0,25,12
 1061 64 1061 64 1126.5 64 c 128,-1,13
463 1530 m 128,-1,27
 581 1530 581 1530 671 1448 c 0,28,29
 776 1353 776 1353 776 1187.5 c 128,-1,30
 776 1022 776 1022 671 928 c 0,31,32
 581 846 581 846 463 846 c 128,-1,33
 345 846 345 846 255 928 c 0,34,35
 150 1023 150 1023 150 1188.5 c 128,-1,36
 150 1354 150 1354 255 1448 c 0,37,26
 345 1530 345 1530 463 1530 c 128,-1,27
463 1446 m 0,38,39
 397 1446 397 1446 353 1376 c 0,40,41
 314 1314 314 1314 314 1188 c 0,42,43
 314 1061 314 1061 353 1000 c 0,44,45
 398 930 398 930 463.5 930 c 128,-1,46
 529 930 529 930 573 1000 c 0,47,48
 612 1063 612 1063 612 1188 c 128,-1,49
 612 1313 612 1313 573 1376 c 0,50,51
 530 1446 530 1446 463 1446 c 0,38,39
1196 1550 m 1,52,-1
 1330 1482 l 1,53,-1
 397 -40 l 1,54,-1
 266 34 l 1,55,-1
 1196 1550 l 1,52,-1
EndSplineSet
Validated: 1
EndChar

StartChar: quotesingle
Encoding: 39 39 9
Width: 352
GlyphClass: 2
Flags: W
HStem: 1141 409<-64 47.022>
VStem: 132 170<1210.79 1500.91>
LayerCount: 2
Fore
SplineSet
50 1550 m 1,0,1
 246 1550 l 1,2,3
 302 1470 302 1470 302 1379 c 0,4,5
 302 1267 302 1267 216 1141 c 1,6,-1
 80 1141 l 1,7,8
 132 1250 132 1250 132 1343 c 0,9,10
 132 1460 132 1460 50 1550 c 1,0,1
EndSplineSet
Validated: 1
EndChar

StartChar: parenleft
Encoding: 40 40 10
Width: 670
GlyphClass: 2
Flags: W
VStem: 200 192<384.721 1135.93>
LayerCount: 2
Fore
SplineSet
541 1730 m 1,0,-1
 620 1691 l 1,1,2
 504 1490 504 1490 448 1261 c 0,3,4
 392 1033 392 1033 392 755 c 0,5,6
 392 472 392 472 453 247 c 128,-1,7
 514 22 514 22 620 -181 c 1,8,-1
 541 -220 l 1,9,10
 382 -22 382 -22 297 208 c 0,11,12
 200 473 200 473 200 755 c 0,13,14
 200 1058 200 1058 297 1302 c 0,15,16
 379 1506 379 1506 541 1730 c 1,0,-1
EndSplineSet
Validated: 1
EndChar

StartChar: parenright
Encoding: 41 41 11
Width: 670
GlyphClass: 2
Flags: W
VStem: 278 192<384.721 1135.93>
LayerCount: 2
Fore
SplineSet
129 1730 m 1,0,1
 291 1506 291 1506 373 1302 c 0,2,3
 470 1058 470 1058 470 755 c 0,4,5
 470 473 470 473 373 208 c 0,6,7
 288 -22 288 -22 129 -220 c 1,8,-1
 50 -181 l 1,9,10
 156 22 156 22 217 247 c 128,-1,11
 278 472 278 472 278 755 c 0,12,13
 278 1033 278 1033 222 1261 c 0,14,15
 166 1490 166 1490 50 1691 c 1,16,-1
 129 1730 l 1,0,1
EndSplineSet
Validated: 1
EndChar

StartChar: asterisk
Encoding: 42 42 12
Width: 891
GlyphClass: 2
Flags: W
LayerCount: 2
Fore
SplineSet
438 1550 m 1,0,-1
 449 1550 l 1,1,-1
 523 1295 l 1,2,-1
 641 1350 l 1,3,-1
 586 1237 l 1,4,-1
 841 1162 l 1,5,-1
 841 1151 l 1,6,-1
 586 1077 l 1,7,-1
 641 959 l 1,8,-1
 528 1014 l 1,9,-1
 453 759 l 1,10,-1
 442 759 l 1,11,-1
 368 1014 l 1,12,-1
 250 959 l 1,13,-1
 305 1072 l 1,14,-1
 50 1147 l 1,15,-1
 50 1158 l 1,16,-1
 305 1232 l 1,17,-1
 250 1350 l 1,18,-1
 363 1295 l 1,19,-1
 438 1550 l 1,0,-1
EndSplineSet
Validated: 1
EndChar

StartChar: plus
Encoding: 43 43 13
Width: 1218
GlyphClass: 2
Flags: W
HStem: 680 150<235 534 684 983>
VStem: 534 150<381 680 830 1129>
LayerCount: 2
Fore
SplineSet
684 1214 m 1,0,-1
 684 830 l 1,1,-1
 1068 830 l 1,2,-1
 983 680 l 1,3,-1
 684 680 l 1,4,-1
 684 381 l 1,5,-1
 534 296 l 1,6,-1
 534 680 l 1,7,-1
 150 680 l 1,8,-1
 235 830 l 1,9,-1
 534 830 l 1,10,-1
 534 1129 l 1,11,-1
 684 1214 l 1,0,-1
EndSplineSet
Validated: 1
EndChar

StartChar: comma
Encoding: 44 44 14
Width: 368
GlyphClass: 2
Flags: W
HStem: -221 444
VStem: 52 266<14.1284 182.127>
LayerCount: 2
Fore
SplineSet
17 -221 m 1,0,-1
 17 -208 l 1,1,2
 95 -164 95 -164 143 -97 c 0,3,4
 167 -63 167 -63 181 -18 c 1,5,6
 117 -18 117 -18 87 13 c 0,7,8
 52 49 52 49 52 99 c 0,9,10
 52 151 52 151 88 188 c 0,11,12
 123 223 123 223 178 223 c 0,13,14
 230 223 230 223 267 189 c 0,15,16
 318 141 318 141 318 69 c 128,-1,17
 318 -3 318 -3 273 -76 c 0,18,19
 214 -172 214 -172 104 -209 c 0,20,21
 68 -221 68 -221 17 -221 c 1,0,-1
EndSplineSet
Validated: 1
EndChar

StartChar: hyphen
Encoding: 45 45 15
Width: 1218
GlyphClass: 2
Flags: W
HStem: 680 150<235 983>
LayerCount: 2
Fore
SplineSet
235 830 m 1,0,-1
 1068 830 l 1,1,-1
 983 680 l 1,2,-1
 150 680 l 1,3,-1
 235 830 l 1,0,-1
EndSplineSet
Validated: 1
EndChar

StartChar: period
Encoding: 46 46 16
Width: 359
GlyphClass: 2
Flags: W
HStem: -20 264<89.1914 270.324>
VStem: 50 259<19.7072 204.293>
LayerCount: 2
Fore
SplineSet
180 -20 m 128,-1,1
 126 -20 126 -20 88 18.5 c 128,-1,2
 50 57 50 57 50 112 c 128,-1,3
 50 167 50 167 88 205.5 c 128,-1,4
 126 244 126 244 180 244 c 128,-1,5
 234 244 234 244 271.5 205.5 c 128,-1,6
 309 167 309 167 309 112 c 128,-1,7
 309 57 309 57 271.5 18.5 c 128,-1,0
 234 -20 234 -20 180 -20 c 128,-1,1
EndSplineSet
Validated: 1
EndChar

StartChar: slash
Encoding: 47 47 17
Width: 1065
GlyphClass: 2
Flags: W
DStem2: 10 -80 144 -150 0.462583 0.886576<0 1962.67>
LayerCount: 2
Fore
SplineSet
918 1660 m 1,0,-1
 1055 1596 l 1,1,-1
 144 -150 l 1,2,-1
 10 -80 l 1,3,-1
 918 1660 l 1,0,-1
EndSplineSet
Validated: 3073
EndChar

StartChar: zero
Encoding: 48 48 18
Width: 1460
GlyphClass: 2
Flags: W
HStem: -20 92<564.168 895.832> 1438 92<564.168 895.832>
VStem: 90 228<448.451 1061.94> 1142 228<448.061 1061.55>
LayerCount: 2
Fore
SplineSet
730 72 m 128,-1,1
 889 72 889 72 998 205 c 0,2,3
 1142 381 1142 381 1142 754.5 c 128,-1,4
 1142 1128 1142 1128 998 1305 c 0,5,6
 889 1438 889 1438 730 1438 c 128,-1,7
 571 1438 571 1438 462 1305 c 0,8,9
 318 1129 318 1129 318 755.5 c 128,-1,10
 318 382 318 382 462 205 c 0,11,0
 571 72 571 72 730 72 c 128,-1,1
730 -20 m 128,-1,13
 499 -20 499 -20 330 134 c 0,14,15
 90 353 90 353 90 755 c 128,-1,16
 90 1157 90 1157 330 1376 c 0,17,18
 499 1530 499 1530 730 1530 c 128,-1,19
 961 1530 961 1530 1130 1376 c 0,20,21
 1370 1157 1370 1157 1370 755 c 128,-1,22
 1370 353 1370 353 1130 134 c 0,23,12
 961 -20 961 -20 730 -20 c 128,-1,13
EndSplineSet
Validated: 1
EndChar

StartChar: one
Encoding: 49 49 19
Width: 640
GlyphClass: 2
Flags: W
HStem: 0 15<50 70.5859 569.414 590>
VStem: 220 200<96.25 1149.25>
LayerCount: 2
Fore
SplineSet
50 0 m 1,0,1
 50 9 50 9 50 15 c 1,2,3
 220 60 220 60 220 250 c 2,4,-1
 220 995 l 2,5,6
 220 1186 220 1186 50 1230 c 1,7,8
 50 1237 50 1237 50 1245 c 9,9,10
 286 1338 286 1338 405 1550 c 1,11,-1
 420 1550 l 1,12,-1
 420 250 l 2,13,14
 420 59 420 59 590 15 c 1,15,-1
 590 0 l 1,16,-1
 50 0 l 1,0,1
EndSplineSet
Validated: 1
EndChar

StartChar: two
Encoding: 50 50 20
Width: 1341
GlyphClass: 2
Flags: W
HStem: -20 180<722.678 1015.54> 70 180<348.813 643.436> 1438 92<456.414 778.412>
VStem: 200 15<1014 1041.19> 905 230<922.453 1292.69>
LayerCount: 2
Fore
SplineSet
150 -20 m 1,0,1
 225 269 225 269 385 449 c 0,2,3
 526 608 526 608 716 755 c 0,4,5
 905 901 905 901 905 1107 c 0,6,7
 905 1221 905 1221 866 1293 c 0,8,9
 788 1438 788 1438 623 1438 c 0,10,11
 450 1438 450 1438 340 1285 c 0,12,13
 250 1160 250 1160 215 1014 c 1,14,-1
 200 1014 l 1,15,-1
 200 1346 l 1,16,17
 375 1530 375 1530 645 1530 c 0,18,19
 853 1530 853 1530 988 1417 c 0,20,21
 1135 1294 1135 1294 1135 1107 c 0,22,23
 1135 841 1135 841 881 688 c 0,24,25
 653 551 653 551 533 442 c 0,26,27
 430 348 430 348 347 215 c 1,28,29
 425 250 425 250 507 250 c 0,30,31
 595 250 595 250 721 205 c 0,32,33
 848 160 848 160 929 160 c 0,34,35
 1067 160 1067 160 1176 258 c 1,36,-1
 1191 258 l 1,37,38
 1099 -20 1099 -20 834 -20 c 0,39,40
 769 -20 769 -20 622 33 c 0,41,42
 520 70 520 70 412 70 c 0,43,44
 272 70 272 70 165 -20 c 1,45,-1
 150 -20 l 1,0,1
EndSplineSet
Validated: 1
EndChar

StartChar: three
Encoding: 51 51 21
Width: 1213
GlyphClass: 2
Flags: W
HStem: -20 92<335.584 667.141> 1438 92<360.855 653.887>
VStem: 130 10<376.242 389> 216 15<1169 1197.13> 737 194<1033.1 1354.94> 843 220<265.723 662.831>
LayerCount: 2
Fore
SplineSet
506 -20 m 0,0,1
 293 -20 293 -20 130 88 c 1,2,-1
 130 389 l 1,3,-1
 140 389 l 1,4,5
 169 307 169 307 216 234 c 0,6,7
 320 72 320 72 506 72 c 0,8,9
 653 72 653 72 752 190 c 0,10,11
 843 298 843 298 843 472 c 0,12,13
 843 657 843 657 722 755 c 0,14,15
 622 836 622 836 466 856 c 1,16,-1
 466 871 l 1,17,18
 601 913 601 913 673 995 c 0,19,20
 737 1068 737 1068 737 1189 c 0,21,22
 737 1301 737 1301 686 1363 c 0,23,24
 624 1438 624 1438 519 1438 c 0,25,26
 401 1438 401 1438 333 1371 c 0,27,28
 262 1301 262 1301 231 1169 c 1,29,-1
 216 1169 l 1,30,-1
 216 1426 l 1,31,32
 320 1530 320 1530 530 1530 c 0,33,34
 700 1530 700 1530 807 1447 c 0,35,36
 931 1350 931 1350 931 1195 c 0,37,38
 931 1052 931 1052 826 964 c 0,39,40
 775 921 775 921 714 894 c 1,41,42
 823 873 823 873 907 806 c 0,43,44
 1063 683 1063 683 1063 470 c 0,45,46
 1063 248 1063 248 893 104 c 0,47,48
 747 -20 747 -20 506 -20 c 0,0,1
EndSplineSet
Validated: 1
EndChar

StartChar: four
Encoding: 52 52 22
Width: 1147
GlyphClass: 2
Flags: W
HStem: 0 15<557 577.586 1076.41 1097> 360 90<189 727 927 1046>
VStem: 727 200<96.25 360 450 1147>
DStem2: 5 375 189 450 0.611045 0.791596<171.802 1052.29>
LayerCount: 2
Fore
SplineSet
557 0 m 1,0,-1
 557 15 l 1,1,2
 727 60 727 60 727 250 c 2,3,-1
 727 360 l 1,4,-1
 5 360 l 1,5,-1
 5 375 l 1,6,-1
 912 1550 l 1,7,-1
 927 1550 l 1,8,-1
 927 450 l 1,9,-1
 1097 450 l 1,10,-1
 1046 360 l 1,11,-1
 927 360 l 1,12,-1
 927 250 l 2,13,14
 927 59 927 59 1097 15 c 1,15,-1
 1097 0 l 1,16,-1
 557 0 l 1,0,-1
727 450 m 1,17,-1
 727 1147 l 1,18,-1
 189 450 l 1,19,-1
 727 450 l 1,17,-1
EndSplineSet
Validated: 1
EndChar

StartChar: five
Encoding: 53 53 23
Width: 1203
GlyphClass: 2
Flags: W
HStem: -20 92<325.584 657.188> 815 101<389.244 666.003> 1320 190<500.285 787.438>
VStem: 120 10<376.242 389> 833 220<266.066 651.436>
LayerCount: 2
Fore
SplineSet
496 -20 m 0,0,1
 283 -20 283 -20 120 88 c 1,2,-1
 120 389 l 1,3,-1
 130 389 l 1,4,5
 159 307 159 307 206 234 c 0,6,7
 310 72 310 72 496 72 c 0,8,9
 645 72 645 72 750 199 c 0,10,11
 833 299 833 299 833 470 c 0,12,13
 833 629 833 629 736 720 c 0,14,15
 635 815 635 815 487 815 c 0,16,17
 402 815 402 815 338 787 c 1,18,19
 170 901 l 1,20,-1
 332 1510 l 1,21,-1
 996 1510 l 1,22,23
 901 1320 901 1320 678 1320 c 0,24,25
 504 1320 504 1320 387 1461 c 1,26,-1
 387 893 l 1,27,28
 468 916 468 916 565 916 c 0,29,30
 758 916 758 916 897 806 c 0,31,32
 1053 683 1053 683 1053 470 c 0,33,34
 1053 248 1053 248 883 104 c 0,35,36
 737 -20 737 -20 496 -20 c 0,0,1
EndSplineSet
Validated: 1
EndChar

StartChar: six
Encoding: 54 54 24
Width: 1366
GlyphClass: 2
Flags: W
HStem: -20 92<538.205 836.766> 943 92<540.108 836.991> 1438 92<594.664 919.178>
VStem: 150 234<383.602 1054.14> 994 222<290.06 727.426> 1081 15<1162 1178.98>
LayerCount: 2
Fore
SplineSet
694 -20 m 0,0,1
 470 -20 470 -20 324 147 c 0,2,3
 150 346 150 346 150 705 c 0,4,5
 150 1141 150 1141 367 1371 c 0,6,7
 517 1530 517 1530 769 1530 c 0,8,9
 949 1530 949 1530 1096 1446 c 1,10,-1
 1096 1162 l 1,11,-1
 1081 1162 l 1,12,13
 980 1438 980 1438 772 1438 c 0,14,15
 585 1438 585 1438 490 1295 c 0,16,17
 373 1118 373 1118 373 854 c 1,18,19
 497 1035 497 1035 694 1035 c 0,20,21
 914 1035 914 1035 1062 886 c 0,22,23
 1216 731 1216 731 1216 508 c 128,-1,24
 1216 285 1216 285 1062 130 c 0,25,26
 913 -20 913 -20 694 -20 c 0,0,1
686 72 m 0,27,28
 848 72 848 72 936 223 c 0,29,30
 994 323 994 323 994 508 c 0,31,32
 994 692 994 692 936 792 c 0,33,34
 848 943 848 943 686 943 c 0,35,36
 530 943 530 943 442 792 c 0,37,38
 384 692 384 692 384 508 c 0,39,40
 384 323 384 323 442 223 c 0,41,42
 530 72 530 72 686 72 c 0,27,28
EndSplineSet
Validated: 1
EndChar

StartChar: seven
Encoding: 55 55 25
Width: 1081
GlyphClass: 2
Flags: W
HStem: 0 21G<329.5 632> 1260 180<567.564 915.05> 1350 180<195.463 488.322>
VStem: 313 208<196.012 621.882>
LayerCount: 2
Fore
SplineSet
346 0 m 1,0,1
 313 170 313 170 313 316 c 0,2,3
 313 591 313 591 429 779 c 0,4,5
 490 878 490 878 552 942 c 128,-1,6
 614 1006 614 1006 683 1069 c 0,7,8
 790 1164 790 1164 864 1295 c 1,9,10
 786 1260 786 1260 704 1260 c 0,11,12
 616 1260 616 1260 490 1305 c 0,13,14
 363 1350 363 1350 282 1350 c 0,15,16
 144 1350 144 1350 35 1252 c 1,17,-1
 20 1252 l 1,18,19
 112 1530 112 1530 377 1530 c 0,20,21
 442 1530 442 1530 589 1477 c 0,22,23
 691 1440 691 1440 799 1440 c 0,24,25
 939 1440 939 1440 1046 1530 c 1,26,-1
 1061 1530 l 1,27,28
 975 1256 975 1256 815 1078 c 0,29,30
 723 975 723 975 672 909 c 0,31,32
 609 827 609 827 565 720 c 128,-1,33
 521 613 521 613 521 479 c 0,34,35
 521 280 521 280 632 0 c 1,36,-1
 346 0 l 1,0,1
EndSplineSet
Validated: 1
EndChar

StartChar: eight
Encoding: 56 56 26
Width: 1245
GlyphClass: 2
Flags: W
HStem: -20 92<436.535 770.382> 1438 92<514.667 769.735>
VStem: 120 150<235.642 594.483> 242 188<1076.53 1346.33> 851 150<1020.47 1352.53> 928 197<258.695 542.04>
LayerCount: 2
Fore
SplineSet
711 923 m 1,0,1
 851 1008 851 1008 851 1192 c 0,2,3
 851 1293 851 1293 801 1361 c 0,4,5
 744 1438 744 1438 648 1438 c 128,-1,6
 552 1438 552 1438 491 1371 c 128,-1,7
 430 1304 430 1304 430 1198 c 0,8,9
 430 1073 430 1073 580 993 c 2,10,-1
 711 923 l 1,0,1
615 -20 m 0,11,12
 400 -20 400 -20 268 101 c 0,13,14
 120 237 120 237 120 424 c 0,15,16
 120 710 120 710 446 843 c 1,17,18
 242 977 242 977 242 1172 c 0,19,20
 242 1342 242 1342 372 1444 c 0,21,22
 482 1530 482 1530 637 1530 c 0,23,24
 787 1530 787 1530 882 1448 c 0,25,26
 1000 1346 1000 1346 1001 1192 c 0,27,28
 1001 989 1001 989 798 872 c 1,29,30
 1125 731 1125 731 1125 457 c 0,31,32
 1125 258 1125 258 973 112 c 0,33,34
 835 -20 835 -20 615 -20 c 0,11,12
535 788 m 1,35,36
 270 655 270 655 270 419 c 0,37,38
 270 279 270 279 348 188 c 0,39,40
 447 72 447 72 615 72 c 0,41,42
 746 72 746 72 843 176 c 0,43,44
 928 267 928 267 928 400 c 0,45,46
 928 571 928 571 709 692 c 2,47,-1
 535 788 l 1,35,36
EndSplineSet
Validated: 1
EndChar

StartChar: nine
Encoding: 57 57 27
Width: 1366
GlyphClass: 2
Flags: W
HStem: -20 92<446.822 771.336> 475 92<529.009 825.892> 1438 92<529.234 827.795>
VStem: 150 222<782.574 1219.94> 270 15<331.02 348> 982 234<455.858 1126.4>
LayerCount: 2
Fore
SplineSet
597 -20 m 0,0,1
 417 -20 417 -20 270 64 c 1,2,-1
 270 348 l 1,3,-1
 285 348 l 1,4,5
 386 72 386 72 594 72 c 0,6,7
 781 72 781 72 876 215 c 0,8,9
 993 392 993 392 993 656 c 1,10,11
 869 475 869 475 672 475 c 0,12,13
 452 475 452 475 304 624 c 0,14,15
 150 779 150 779 150 1002 c 128,-1,16
 150 1225 150 1225 304 1380 c 0,17,18
 453 1530 453 1530 672 1530 c 0,19,20
 896 1530 896 1530 1042 1363 c 0,21,22
 1216 1164 1216 1164 1216 805 c 0,23,24
 1216 369 1216 369 999 139 c 0,25,26
 849 -20 849 -20 597 -20 c 0,0,1
680 1438 m 0,27,28
 518 1438 518 1438 430 1287 c 0,29,30
 372 1187 372 1187 372 1002 c 0,31,32
 372 818 372 818 430 718 c 0,33,34
 518 567 518 567 680 567 c 0,35,36
 836 567 836 567 924 718 c 0,37,38
 982 818 982 818 982 1002 c 0,39,40
 982 1187 982 1187 924 1287 c 0,41,42
 836 1438 836 1438 680 1438 c 0,27,28
EndSplineSet
Validated: 1
EndChar

StartChar: colon
Encoding: 58 58 28
Width: 359
GlyphClass: 2
Flags: W
HStem: -20 264<89.1914 270.324> 625 264<89.1914 270.324>
VStem: 50 259<19.7072 204.293 664.707 849.293>
LayerCount: 2
Fore
SplineSet
180 889 m 128,-1,1
 234 889 234 889 271.5 850.5 c 128,-1,2
 309 812 309 812 309 757 c 128,-1,3
 309 702 309 702 271.5 663.5 c 128,-1,4
 234 625 234 625 180 625 c 128,-1,5
 126 625 126 625 88 663.5 c 128,-1,6
 50 702 50 702 50 757 c 128,-1,7
 50 812 50 812 88 850.5 c 128,-1,0
 126 889 126 889 180 889 c 128,-1,1
180 -20 m 128,-1,9
 126 -20 126 -20 88 18.5 c 128,-1,10
 50 57 50 57 50 112 c 128,-1,11
 50 167 50 167 88 205.5 c 128,-1,12
 126 244 126 244 180 244 c 128,-1,13
 234 244 234 244 271.5 205.5 c 128,-1,14
 309 167 309 167 309 112 c 128,-1,15
 309 57 309 57 271.5 18.5 c 128,-1,8
 234 -20 234 -20 180 -20 c 128,-1,9
EndSplineSet
Validated: 1
EndChar

StartChar: semicolon
Encoding: 59 59 29
Width: 368
GlyphClass: 2
Flags: W
HStem: 625 264<89.1914 270.324>
VStem: 52 266<14.1284 182.127 665.922 848.078>
LayerCount: 2
Fore
SplineSet
17 -221 m 1,0,-1
 17 -208 l 1,1,2
 95 -164 95 -164 143 -97 c 0,3,4
 167 -63 167 -63 181 -18 c 1,5,6
 117 -18 117 -18 87 13 c 0,7,8
 52 49 52 49 52 99 c 0,9,10
 52 151 52 151 88 188 c 0,11,12
 123 223 123 223 178 223 c 0,13,14
 230 223 230 223 267 189 c 0,15,16
 318 141 318 141 318 69 c 128,-1,17
 318 -3 318 -3 273 -76 c 0,18,19
 214 -172 214 -172 104 -209 c 0,20,21
 68 -221 68 -221 17 -221 c 1,0,-1
180 889 m 128,-1,23
 234 889 234 889 271.5 850.5 c 128,-1,24
 309 812 309 812 309 757 c 128,-1,25
 309 702 309 702 271.5 663.5 c 128,-1,26
 234 625 234 625 180 625 c 128,-1,27
 126 625 126 625 88 663.5 c 128,-1,28
 50 702 50 702 50 757 c 128,-1,29
 50 812 50 812 88 850.5 c 128,-1,22
 126 889 126 889 180 889 c 128,-1,23
EndSplineSet
Validated: 1
EndChar

StartChar: less
Encoding: 60 60 30
Width: 1238
GlyphClass: 2
Flags: W
DStem2: 150 765 425 794 0.870231 0.492643<253.6 956.067> 425 794 150 750 0.878605 -0.47755<0 694.483>
LayerCount: 2
Fore
SplineSet
982 1236 m 1,0,-1
 1038 1141 l 1,1,-1
 425 794 l 1,2,-1
 1038 461 l 1,3,-1
 954 313 l 1,4,-1
 150 750 l 1,5,-1
 150 765 l 1,6,-1
 982 1236 l 1,0,-1
EndSplineSet
Validated: 1
EndChar

StartChar: equal
Encoding: 61 61 31
Width: 1218
GlyphClass: 2
Flags: W
HStem: 490 150<235 983> 870 150<235 983>
LayerCount: 2
Fore
SplineSet
235 640 m 1,0,-1
 1068 640 l 1,1,-1
 983 490 l 1,2,-1
 150 490 l 1,3,-1
 235 640 l 1,0,-1
235 1020 m 1,4,-1
 1068 1020 l 1,5,-1
 983 870 l 1,6,-1
 150 870 l 1,7,-1
 235 1020 l 1,4,-1
EndSplineSet
Validated: 1
EndChar

StartChar: greater
Encoding: 62 62 32
Width: 1238
GlyphClass: 2
Flags: W
DStem2: 284 1236 200 1088 0.878605 -0.47755<0 694.483> 200 408 256 313 0.870231 0.492643<1.93187 704.399>
LayerCount: 2
Fore
SplineSet
284 1236 m 1,0,-1
 1088 799 l 1,1,-1
 1088 784 l 1,2,-1
 256 313 l 1,3,-1
 200 408 l 1,4,-1
 813 755 l 1,5,-1
 200 1088 l 1,6,-1
 284 1236 l 1,0,-1
EndSplineSet
Validated: 1
EndChar

StartChar: question
Encoding: 63 63 33
Width: 1235
GlyphClass: 2
Flags: W
HStem: -20 264<455.191 636.324> 1438 92<406.414 723.558>
VStem: 150 15<1014 1041.19> 416 259<19.7072 204.293> 487 108<320 491.938> 850 235<925.153 1292.69>
LayerCount: 2
Fore
SplineSet
595 1530 m 0,0,1
 803 1530 803 1530 938 1417 c 0,2,3
 1085 1294 1085 1294 1085 1107 c 0,4,5
 1085 895 1085 895 886 735 c 2,6,-1
 762 635 l 2,7,8
 595 500 595 500 595 320 c 1,9,-1
 487 320 l 1,10,11
 487 570 487 570 673 760 c 2,12,-1
 716 804 l 2,13,14
 850 941 850 941 850 1107 c 0,15,16
 850 1221 850 1221 811 1293 c 0,17,18
 733 1438 733 1438 573 1438 c 0,19,20
 400 1438 400 1438 290 1285 c 0,21,22
 200 1160 200 1160 165 1014 c 1,23,-1
 150 1014 l 1,24,-1
 150 1346 l 1,25,26
 325 1530 325 1530 595 1530 c 0,0,1
546 -20 m 128,-1,28
 492 -20 492 -20 454 18.5 c 128,-1,29
 416 57 416 57 416 112 c 128,-1,30
 416 167 416 167 454 205.5 c 128,-1,31
 492 244 492 244 546 244 c 128,-1,32
 600 244 600 244 637.5 205.5 c 128,-1,33
 675 167 675 167 675 112 c 128,-1,34
 675 57 675 57 637.5 18.5 c 128,-1,27
 600 -20 600 -20 546 -20 c 128,-1,28
EndSplineSet
Validated: 1
EndChar

StartChar: at
Encoding: 64 64 34
Width: 1444
GlyphClass: 2
Flags: W
HStem: -430 90<656.414 1051.31> -20 92<795.873 1009.28> 606 46<938.729 1044> 1030 90<639.189 959.659>
VStem: 150 196<57.0555 642.711> 537 187<149.24 459.161> 1044 180<172.5 606 652 943.396>
LayerCount: 2
Fore
SplineSet
943 -20 m 0,0,1
 772 -20 772 -20 658 68 c 0,2,3
 537 162 537 162 537 306 c 0,4,5
 537 463 537 463 676 560 c 0,6,7
 807 652 807 652 1044 652 c 1,8,-1
 1044 786 l 2,9,10
 1044 909 1044 909 976 972 c 0,11,12
 913 1030 913 1030 812 1030 c 0,13,14
 641 1030 641 1030 523 887 c 0,15,16
 346 672 346 672 346 345 c 0,17,18
 346 30 346 30 519 -184 c 0,19,20
 645 -340 645 -340 859 -340 c 0,21,22
 1031 -340 1031 -340 1175 -213 c 1,23,-1
 1240 -276 l 1,24,25
 1071 -430 1071 -430 815 -430 c 128,-1,26
 559 -430 559 -430 390 -276 c 0,27,28
 150 -57 150 -57 150 345 c 128,-1,29
 150 747 150 747 390 966 c 0,30,31
 559 1120 559 1120 840 1120 c 0,32,33
 993 1120 993 1120 1093 1048 c 0,34,35
 1224 954 1224 954 1224 785 c 2,36,-1
 1224 257 l 2,37,38
 1224 162 1224 162 1394 109 c 1,39,-1
 1394 95 l 1,40,41
 1146 -20 1146 -20 943 -20 c 0,0,1
1044 606 m 1,42,43
 903 594 903 594 809 506 c 0,44,45
 724 426 724 426 724 315 c 0,46,47
 724 207 724 207 774 141 c 0,48,49
 825 72 825 72 920 72 c 0,50,51
 1044 72 1044 72 1044 256 c 2,52,-1
 1044 606 l 1,42,43
EndSplineSet
Validated: 1
EndChar

StartChar: A
Encoding: 65 65 35
Width: 1705
GlyphClass: 2
Flags: W
HStem: 0 15<10 27.3008 454.684 472 1118 1135.44 1677.82 1695> 545 90<530 1060>
DStem2: 239 250 350 250 0.422504 0.906361<-33.4878 372.58 471.898 1099.58> 860 1550 795 1204 0.423076 -0.906094<286.009 913.691 1013.01 1420.42>
LayerCount: 2
Fore
SplineSet
10 0 m 1,0,-1
 10 15 l 1,1,2
 150 59 150 59 239 250 c 2,3,-1
 845 1550 l 1,4,-1
 860 1550 l 1,5,-1
 1467 250 l 2,6,7
 1556 59 1556 59 1695 15 c 1,8,-1
 1695 0 l 1,9,-1
 1118 0 l 1,10,-1
 1118 15 l 1,11,12
 1262 71 1262 71 1262 169 c 0,13,14
 1262 203 1262 203 1240 250 c 2,15,-1
 1102 545 l 1,16,-1
 488 545 l 1,17,-1
 350 250 l 2,18,19
 329 205 329 205 329 170 c 0,20,21
 329 70 329 70 472 15 c 1,22,-1
 472 0 l 1,23,-1
 10 0 l 1,0,-1
530 635 m 1,24,-1
 1060 635 l 1,25,-1
 795 1204 l 1,26,-1
 530 635 l 1,24,-1
EndSplineSet
Validated: 1
EndChar

StartChar: B
Encoding: 66 66 36
Width: 1335
GlyphClass: 2
Flags: W
HStem: -20 92<488.859 834.429> 1439 91<488.554 780.109>
VStem: 220 200<170 1341> 874 210<1022.31 1335.97> 1019 226<273.842 627.996>
LayerCount: 2
Fore
SplineSet
420 254 m 2,0,1
 420 168 420 168 491 113 c 0,2,3
 544 72 544 72 652 72 c 0,4,5
 841 72 841 72 946 219 c 0,6,7
 1019 321 1019 321 1019 462 c 0,8,9
 1019 620 1019 620 891 725 c 0,10,11
 789 809 789 809 612 841 c 1,12,13
 725 891 725 891 787 946 c 0,14,15
 874 1023 874 1023 874 1181 c 0,16,17
 874 1287 874 1287 816 1362 c 0,18,19
 756 1439 756 1439 626 1439 c 0,20,21
 544 1439 544 1439 491 1398 c 0,22,23
 420 1343 420 1343 420 1257 c 2,24,-1
 420 254 l 2,0,1
600 -20 m 0,25,26
 306 -20 306 -20 50 92 c 1,27,28
 50 94 50 94 50 106 c 1,29,30
 220 160 220 160 220 254 c 2,31,-1
 220 1257 l 2,32,33
 220 1351 220 1351 50 1405 c 1,34,35
 50 1417 50 1417 50 1419 c 1,36,37
 304 1530 304 1530 600 1530 c 0,38,39
 864 1530 864 1530 990 1400 c 0,40,41
 1084 1303 1084 1303 1084 1178 c 0,42,43
 1084 1045 1084 1045 974 940 c 0,44,45
 927 895 927 895 861 865 c 1,46,47
 962 847 962 847 1056 790 c 16,48,49
 1245 677 1245 677 1245 457 c 0,50,51
 1245 258 1245 258 1064 106 c 0,52,53
 913 -20 913 -20 600 -20 c 0,25,26
EndSplineSet
Validated: 1
EndChar

StartChar: C
Encoding: 67 67 37
Width: 1432
GlyphClass: 2
Flags: W
HStem: -20 92<610.994 1003.13> 230 143<1139 1282> 1438 92<611.518 987.445>
VStem: 90 234<465.273 1047.94> 1267 15<950 970.061 1503.33 1530>
LayerCount: 2
Fore
SplineSet
789 -20 m 0,0,1
 473 -20 473 -20 264 230 c 0,2,3
 90 438 90 438 90 755 c 0,4,5
 90 1075 90 1075 264 1280 c 0,6,7
 477 1530 477 1530 792 1530 c 0,8,9
 922 1530 922 1530 1018.5 1479 c 128,-1,10
 1115 1428 1115 1428 1166 1428 c 0,11,12
 1245 1428 1245 1428 1267 1530 c 1,13,-1
 1282 1530 l 1,14,-1
 1282 950 l 1,15,-1
 1267 950 l 1,16,17
 1207 1166 1207 1166 1103 1296 c 0,18,19
 989 1438 989 1438 792 1438 c 0,20,21
 552 1438 552 1438 422 1191 c 0,22,23
 324 1006 324 1006 324 756 c 0,24,25
 324 500 324 500 422 319 c 0,26,27
 557 72 557 72 791 72 c 0,28,29
 1096 72 1096 72 1282 373 c 1,30,-1
 1282 230 l 1,31,32
 1116 -20 1116 -20 789 -20 c 0,0,1
EndSplineSet
Validated: 1
EndChar

StartChar: D
Encoding: 68 68 38
Width: 1454
GlyphClass: 2
Flags: W
HStem: -20 92<488.554 844> 1438 92<488.554 848.087>
VStem: 220 200<169 1341> 1130 234<465.875 1048.35>
LayerCount: 2
Fore
SplineSet
662 72 m 0,0,1
 905 72 905 72 1032 311 c 0,2,3
 1130 495 1130 495 1130 756 c 0,4,5
 1130 1015 1130 1015 1032 1199 c 0,6,7
 905 1438 905 1438 662 1438 c 0,8,9
 553 1438 553 1438 491 1397 c 0,10,11
 420 1350 420 1350 420 1257 c 2,12,-1
 420 253 l 2,13,14
 420 158 420 158 491 113 c 0,15,16
 556 72 556 72 662 72 c 0,0,1
600 -20 m 0,17,18
 304 -20 304 -20 50 91 c 1,19,-1
 50 105 l 1,20,21
 220 159 220 159 220 253 c 2,22,-1
 220 1257 l 2,23,24
 220 1351 220 1351 50 1405 c 1,25,-1
 50 1419 l 1,26,27
 304 1530 304 1530 600 1530 c 0,28,29
 977 1530 977 1530 1190 1280 c 0,30,31
 1364 1075 1364 1075 1364 755 c 0,32,33
 1364 438 1364 438 1190 230 c 0,34,35
 981 -20 981 -20 600 -20 c 0,17,18
EndSplineSet
Validated: 1
EndChar

StartChar: E
Encoding: 69 69 39
Width: 1302
GlyphClass: 2
Flags: W
HStem: 0 90<436.365 1015.19> 0 15<50 70.5859> 545 90<420 682.374> 1420 90<437.154 885.191> 1495 15<50 70.5859>
VStem: 220 200<96.25 545 635 1413.75>
LayerCount: 2
Fore
SplineSet
50 0 m 1,0,-1
 50 15 l 1,1,2
 220 60 220 60 220 250 c 2,3,-1
 220 1260 l 2,4,5
 220 1450 220 1450 50 1495 c 1,6,-1
 50 1510 l 1,7,-1
 976 1510 l 1,8,-1
 1162 1188 l 1,9,-1
 1147 1188 l 1,10,11
 923 1420 923 1420 668 1420 c 2,12,-1
 458 1420 l 1,13,14
 420 1362 420 1362 420 1260 c 2,15,-1
 420 635 l 1,16,-1
 584 635 l 2,17,18
 798 635 798 635 987 832 c 1,19,-1
 1002 832 l 1,20,-1
 733 360 l 1,21,-1
 718 360 l 1,22,23
 718 545 718 545 584 545 c 2,24,-1
 420 545 l 1,25,-1
 420 250 l 2,26,27
 420 147 420 147 458 90 c 1,28,-1
 798 90 l 2,29,30
 1053 90 1053 90 1277 322 c 1,31,-1
 1292 322 l 1,32,-1
 1106 0 l 1,33,-1
 50 0 l 1,0,-1
EndSplineSet
Validated: 1
EndChar

StartChar: F
Encoding: 70 70 40
Width: 1172
GlyphClass: 2
Flags: W
HStem: 0 15<50 70.5859 569.414 590> 545 90<420 682.374> 1420 90<437.154 885.191> 1495 15<50 70.5859>
VStem: 220 200<95.75 545 635 1413.75>
LayerCount: 2
Fore
SplineSet
50 0 m 1,0,-1
 50 15 l 1,1,2
 220 59 220 59 220 250 c 2,3,-1
 220 1260 l 2,4,5
 220 1450 220 1450 50 1495 c 1,6,-1
 50 1510 l 1,7,-1
 976 1510 l 1,8,-1
 1162 1188 l 1,9,-1
 1147 1188 l 1,10,11
 923 1420 923 1420 668 1420 c 2,12,-1
 458 1420 l 1,13,14
 420 1362 420 1362 420 1260 c 2,15,-1
 420 635 l 1,16,-1
 584 635 l 2,17,18
 799 635 799 635 987 831 c 1,19,-1
 1002 831 l 1,20,-1
 733 360 l 1,21,-1
 718 360 l 1,22,23
 718 545 718 545 584 545 c 2,24,-1
 420 545 l 1,25,-1
 420 250 l 2,26,27
 420 59 420 59 590 15 c 1,28,-1
 590 0 l 1,29,-1
 50 0 l 1,0,-1
EndSplineSet
Validated: 1
EndChar

StartChar: G
Encoding: 71 71 41
Width: 1520
GlyphClass: 2
Flags: W
HStem: -20 92<611.735 999.271> 625 15<930 950.465 1449.29 1470> 1438 92<611.518 987.691>
VStem: 90 234<465.273 1047.94> 1099 200<164.79 544> 1267 15<950 970.061 1503.33 1530>
LayerCount: 2
Fore
SplineSet
792 -20 m 0,0,1
 473 -20 473 -20 264 230 c 0,2,3
 90 438 90 438 90 755 c 0,4,5
 90 1075 90 1075 264 1280 c 0,6,7
 477 1530 477 1530 792 1530 c 0,8,9
 922 1530 922 1530 1018.5 1479 c 128,-1,10
 1115 1428 1115 1428 1166 1428 c 0,11,12
 1245 1428 1245 1428 1267 1530 c 1,13,-1
 1282 1530 l 1,14,-1
 1282 950 l 1,15,-1
 1267 950 l 1,16,17
 1207 1166 1207 1166 1103 1296 c 0,18,19
 990 1438 990 1438 792 1438 c 0,20,21
 552 1438 552 1438 422 1191 c 0,22,23
 324 1006 324 1006 324 756 c 0,24,25
 324 500 324 500 422 319 c 0,26,27
 557 72 557 72 791 72 c 0,28,29
 1099 72 1099 72 1099 303 c 2,30,-1
 1099 391 l 2,31,32
 1099 580 1099 580 930 625 c 1,33,-1
 930 640 l 1,34,-1
 1470 640 l 1,35,-1
 1470 625 l 1,36,37
 1299 580 1299 580 1299 391 c 2,38,-1
 1299 205 l 17,39,40
 1095 -20 1095 -20 792 -20 c 0,0,1
EndSplineSet
Validated: 1
EndChar

StartChar: H
Encoding: 72 72 42
Width: 1487
GlyphClass: 2
Flags: W
HStem: 0 15<50 70.5859 569.414 590 898 918.465 1416.41 1437> 540 100<420 1067> 1495 15<50 70.5859 569.414 590 898 918.465 1416.41 1437>
VStem: 220 200<96.25 540 640 1413.75> 1067 200<95.75 540 640 1413.75>
LayerCount: 2
Fore
SplineSet
50 0 m 1,0,-1
 50 15 l 1,1,2
 220 60 220 60 220 250 c 2,3,-1
 220 1260 l 2,4,5
 220 1451 220 1451 50 1495 c 1,6,-1
 50 1510 l 1,7,-1
 590 1510 l 1,8,-1
 590 1495 l 1,9,10
 420 1450 420 1450 420 1260 c 2,11,-1
 420 640 l 1,12,-1
 1067 640 l 1,13,-1
 1067 1260 l 2,14,15
 1067 1451 1067 1451 898 1495 c 1,16,-1
 898 1510 l 1,17,-1
 1437 1510 l 1,18,-1
 1437 1495 l 1,19,20
 1267 1450 1267 1450 1267 1260 c 2,21,-1
 1267 250 l 2,22,23
 1267 59 1267 59 1437 15 c 1,24,-1
 1437 0 l 1,25,-1
 898 0 l 1,26,-1
 898 15 l 1,27,28
 1067 60 1067 60 1067 250 c 2,29,-1
 1067 540 l 1,30,-1
 420 540 l 1,31,-1
 420 250 l 2,32,33
 420 59 420 59 590 15 c 1,34,-1
 590 0 l 1,35,-1
 50 0 l 1,0,-1
EndSplineSet
Validated: 1
EndChar

StartChar: I
Encoding: 73 73 43
Width: 640
GlyphClass: 2
Flags: W
HStem: 0 15<50 70.5859 569.414 590> 1495 15<50 70.5859 569.414 590>
VStem: 220 200<96.25 1413.75>
LayerCount: 2
Fore
SplineSet
50 0 m 1,0,1
 50 15 l 1,2,3
 220 60 220 60 220 250 c 2,4,-1
 220 1260 l 2,5,6
 220 1451 220 1451 50 1495 c 1,7,8
 50 1510 l 1,9,10
 590 1510 l 1,11,-1
 590 1495 l 1,12,13
 420 1450 420 1450 420 1260 c 2,14,-1
 420 250 l 2,15,16
 420 59 420 59 590 15 c 1,17,-1
 590 0 l 1,18,-1
 50 0 l 1,0,1
EndSplineSet
Validated: 1
EndChar

StartChar: J
Encoding: 74 74 44
Width: 640
GlyphClass: 2
Flags: W
HStem: -430 21G<-10 205> 1495 15<50 70.5859 569.414 590>
VStem: 220 200<-208.711 1413.75>
LayerCount: 2
Fore
SplineSet
50 1510 m 1,0,-1
 590 1510 l 1,1,-1
 590 1495 l 1,2,3
 420 1450 420 1450 420 1260 c 2,4,-1
 420 0 l 2,5,6
 420 -388 420 -388 -10 -430 c 1,7,-1
 -10 -415 l 1,8,9
 220 -289 220 -289 220 0 c 2,10,-1
 220 1260 l 2,11,12
 220 1451 220 1451 50 1495 c 1,13,14
 50 1510 l 1,0,-1
EndSplineSet
Validated: 1
EndChar

StartChar: K
Encoding: 75 75 45
Width: 1470
GlyphClass: 2
Flags: W
HStem: -283 133<1190.26 1409.5> -40 20G<1501.5 1520> 0 15<50 70.5859 569.414 590> 544 117<595.011 745.465> 1495 15<50 70.5859 569.414 590 902 921.645 1367.95 1380>
VStem: 220 200<97.25 466.67 573 1413.75>
DStem2: 420 573 592 632 0.606216 0.7953<151.192 989.571> 1054 414 856 341 0.371745 -0.928335<-193.108 614.576>
LayerCount: 2
Fore
SplineSet
50 0 m 1,0,-1
 50 15 l 1,1,2
 220 60 220 60 220 249 c 2,3,-1
 220 1260 l 2,4,5
 220 1451 220 1451 50 1495 c 1,6,-1
 50 1510 l 1,7,-1
 590 1510 l 1,8,-1
 590 1495 l 1,9,10
 420 1450 420 1450 420 1260 c 2,11,-1
 420 573 l 1,12,-1
 949 1267 l 2,13,14
 997 1330 997 1330 997 1379 c 0,15,16
 997 1468 997 1468 902 1495 c 1,17,-1
 902 1510 l 1,18,-1
 1380 1510 l 1,19,-1
 1380 1495 l 1,20,21
 1186 1411 1186 1411 1071 1260 c 2,22,-1
 592 632 l 1,23,24
 649 661 649 661 714 661 c 0,25,26
 955 661 955 661 1054 414 c 2,27,-1
 1235 -38 l 2,28,29
 1280 -150 1280 -150 1366 -150 c 0,30,31
 1423 -150 1423 -150 1457 -112 c 0,32,33
 1493 -72 1493 -72 1510 -20 c 1,34,-1
 1520 -20 l 1,35,36
 1508 -139 1508 -139 1440 -211 c 128,-1,37
 1372 -283 1372 -283 1278 -283 c 0,38,39
 1106 -283 1106 -283 1031 -95 c 2,40,-1
 856 341 l 2,41,42
 775 544 775 544 614 544 c 0,43,44
 420 544 420 544 420 270 c 2,45,-1
 420 250 l 2,46,47
 420 62 420 62 590 15 c 1,48,-1
 590 0 l 1,49,-1
 50 0 l 1,0,-1
EndSplineSet
Validated: 1
EndChar

StartChar: L
Encoding: 76 76 46
Width: 1221
GlyphClass: 2
Flags: W
HStem: 0 90<436.365 934.191> 0 15<50 70.5859> 1495 15<50 70.5859 569.414 590>
VStem: 220 200<96.25 1413.75>
LayerCount: 2
Fore
SplineSet
50 0 m 1,0,-1
 50 15 l 1,1,2
 220 60 220 60 220 250 c 2,3,-1
 220 1260 l 2,4,5
 220 1451 220 1451 50 1495 c 1,6,-1
 50 1510 l 1,7,-1
 590 1510 l 1,8,-1
 590 1495 l 1,9,10
 420 1450 420 1450 420 1260 c 2,11,-1
 420 250 l 2,12,13
 420 147 420 147 458 90 c 1,14,-1
 717 90 l 2,15,16
 972 90 972 90 1196 322 c 1,17,-1
 1211 322 l 1,18,-1
 1025 0 l 1,19,-1
 50 0 l 1,0,-1
EndSplineSet
Validated: 1
EndChar

StartChar: M
Encoding: 77 77 47
Width: 2052
GlyphClass: 2
Flags: W
HStem: 0 15<10 27.5415 475.711 491 1443 1459.75 2024.46 2042>
DStem2: 226 250 327 250 0.14834 0.988936<-25.3602 837.234> 436 1550 450 1063 0.435392 -0.900241<444.513 1391.85> 1042 297 1001 -40 0.41648 0.909145<0 892.608> 1631 1550 1500 1069 0.14834 -0.988936<456.246 1322.86>
LayerCount: 2
Fore
SplineSet
10 0 m 1,0,-1
 10 15 l 17,1,2
 201 84 201 84 226 250 c 2,3,-1
 421 1550 l 1,4,-1
 436 1550 l 1,5,-1
 1042 297 l 1,6,-1
 1616 1550 l 1,7,-1
 1631 1550 l 1,8,-1
 1826 250 l 2,9,10
 1851 84 1851 84 2042 15 c 1,11,12
 2042 9 2042 9 2042 0 c 1,13,-1
 1443 0 l 1,14,-1
 1443 15 l 1,15,16
 1626 74 1626 74 1626 211 c 0,17,18
 1626 230 1626 230 1623 250 c 2,19,-1
 1500 1069 l 1,20,-1
 1001 -40 l 1,21,-1
 986 -40 l 1,22,-1
 450 1063 l 1,23,-1
 327 250 l 2,24,25
 324 230 324 230 324 209 c 0,26,27
 324 73 324 73 491 15 c 1,28,-1
 491 0 l 1,29,-1
 10 0 l 1,0,-1
EndSplineSet
Validated: 1
EndChar

StartChar: N
Encoding: 78 78 48
Width: 1505
GlyphClass: 2
Flags: W
HStem: 0 15<50 70.5859 469.414 490> 1495 15<1015 1035.59 1434.41 1455>
VStem: 220 100<96.25 1128> 1185 100<388 1413.75>
DStem2: 235 1550 320 1128 0.630993 -0.775789<381.017 1500.91>
LayerCount: 2
Fore
SplineSet
50 0 m 1,0,1
 50 15 l 1,2,3
 220 60 220 60 220 250 c 2,4,-1
 220 1550 l 1,5,-1
 235 1550 l 1,6,-1
 1185 388 l 1,7,-1
 1185 1260 l 2,8,9
 1185 1450 1185 1450 1015 1495 c 1,10,-1
 1015 1510 l 1,11,-1
 1455 1510 l 1,12,13
 1455 1495 l 1,14,15
 1285 1450 1285 1450 1285 1260 c 2,16,-1
 1285 -40 l 1,17,-1
 1270 -40 l 1,18,-1
 320 1128 l 1,19,-1
 320 250 l 2,20,21
 320 59 320 59 490 15 c 1,22,-1
 490 0 l 1,23,-1
 50 0 l 1,0,1
EndSplineSet
Validated: 1
EndChar

StartChar: P
Encoding: 80 80 49
Width: 1306
GlyphClass: 2
Flags: W
HStem: 0 15<50 70.5859 569.414 590> 490 91<486.285 826.909> 1438 92<488.719 825.396>
VStem: 220 200<96 565 646.131 1341> 1011 225<802.419 1227.69>
LayerCount: 2
Fore
SplineSet
50 0 m 1,0,-1
 50 15 l 1,1,2
 220 60 220 60 220 249 c 2,3,-1
 220 1257 l 2,4,5
 220 1351 220 1351 50 1405 c 1,6,7
 50 1417 50 1417 50 1419 c 1,8,9
 307 1530 307 1530 574 1530 c 0,10,11
 893 1530 893 1530 1067 1385 c 0,12,13
 1236 1244 1236 1244 1236 1016.5 c 128,-1,14
 1236 789 1236 789 1067 635 c 0,15,16
 908 490 908 490 664 490 c 0,17,18
 518 490 518 490 420 565 c 1,19,-1
 420 250 l 2,20,21
 420 59 420 59 590 15 c 1,22,-1
 590 0 l 1,23,-1
 50 0 l 1,0,-1
420 762 m 2,24,25
 420 673 420 673 491 622 c 0,26,27
 548 581 548 581 652 581 c 0,28,29
 837 581 837 581 940 732 c 0,30,31
 1011 835 1011 835 1011 1010 c 0,32,33
 1011 1184 1011 1184 940 1287 c 0,34,35
 837 1438 837 1438 652 1438 c 0,36,37
 548 1438 548 1438 491 1397 c 0,38,39
 420 1346 420 1346 420 1257 c 2,40,-1
 420 762 l 2,24,25
EndSplineSet
Validated: 1
EndChar

StartChar: Q
Encoding: 81 81 50
Width: 1460
GlyphClass: 2
Flags: W
HStem: -258 120<1130.79 1260.77> -40 20G<1338 1355> -20 92<564.168 842.299> 256 120<657.232 786.685> 1438 92<564.168 895.832>
VStem: 90 228<448.451 1061.94> 1142 228<444.848 1061.48>
DStem2: 1002 209 819 155 0.363542 -0.931578<-133.716 0 145.287 384.656>
LayerCount: 2
Fore
SplineSet
730 -20 m 0,0,1
 499 -20 499 -20 330 134 c 0,2,3
 90 353 90 353 90 755 c 128,-1,4
 90 1157 90 1157 330 1376 c 0,5,6
 499 1530 499 1530 730 1530 c 128,-1,7
 961 1530 961 1530 1130 1376 c 0,8,9
 1370 1157 1370 1157 1370 755 c 128,-1,10
 1370 353 1370 353 1130 134 c 0,11,12
 1094 101 1094 101 1055 75 c 1,13,-1
 1098 -37 l 2,14,15
 1137 -138 1137 -138 1216 -138 c 0,16,17
 1266 -138 1266 -138 1298 -103.5 c 128,-1,18
 1330 -69 1330 -69 1346 -20 c 1,19,-1
 1355 -20 l 1,20,21
 1344 -127 1344 -127 1283 -192.5 c 128,-1,22
 1222 -258 1222 -258 1137 -258 c 0,23,24
 981 -258 981 -258 915 -89 c 2,25,-1
 881 -2 l 1,26,27
 809 -20 809 -20 730 -20 c 0,0,1
1002 209 m 1,28,29
 1142 384 1142 384 1142 754 c 0,30,31
 1142 1128 1142 1128 998 1305 c 0,32,33
 889 1438 889 1438 730 1438 c 128,-1,34
 571 1438 571 1438 462 1305 c 0,35,36
 318 1129 318 1129 318 755.5 c 128,-1,37
 318 382 318 382 462 205 c 0,38,39
 571 72 571 72 730 72 c 0,40,41
 791 72 791 72 844 91 c 1,42,-1
 819 155 l 2,43,44
 780 256 780 256 702 256 c 0,45,46
 652 256 652 256 620 221.5 c 128,-1,47
 588 187 588 187 572 138 c 1,48,-1
 563 138 l 1,49,50
 574 245 574 245 635 310.5 c 128,-1,51
 696 376 696 376 781 376 c 0,52,53
 935 376 935 376 1002 209 c 1,28,29
EndSplineSet
Validated: 19457
EndChar

StartChar: R
Encoding: 82 82 51
Width: 1469
GlyphClass: 2
Flags: W
HStem: -283 133<1189.26 1408.7> -40 20G<1500 1519> 0 15<50 70.5859 569.414 590> 490 91<486.632 774.378> 1438 92<488.06 825.396>
VStem: 220 200<96 565 646.131 1341> 1011 225<802.419 1227.69>
DStem2: 1094 313 877 287 0.37181 -0.928309<-176.598 505.56>
LayerCount: 2
Fore
SplineSet
420 762 m 2,0,1
 420 673 420 673 491 622 c 0,2,3
 548 581 548 581 652 581 c 0,4,5
 837 581 837 581 940 732 c 0,6,7
 1011 835 1011 835 1011 1010 c 0,8,9
 1011 1184 1011 1184 940 1287 c 0,10,11
 837 1438 837 1438 652 1438 c 0,12,13
 548 1438 548 1438 491 1397 c 0,14,15
 420 1346 420 1346 420 1257 c 2,16,-1
 420 762 l 2,0,1
50 0 m 1,17,-1
 50 15 l 1,18,19
 220 60 220 60 220 249 c 2,20,-1
 220 1257 l 2,21,22
 220 1351 220 1351 50 1405 c 1,23,24
 50 1419 l 1,25,26
 302 1530 302 1530 574 1530 c 0,27,28
 893 1530 893 1530 1067 1385 c 0,29,30
 1236 1244 1236 1244 1236 1016.5 c 128,-1,31
 1236 789 1236 789 1067 635 c 0,32,33
 976 552 976 552 858 517 c 1,34,35
 1025 487 1025 487 1094 313 c 2,36,-1
 1234 -38 l 2,37,38
 1279 -150 1279 -150 1365 -150 c 0,39,40
 1420 -150 1420 -150 1455.5 -112 c 128,-1,41
 1491 -74 1491 -74 1509 -20 c 1,42,-1
 1519 -20 l 1,43,44
 1507 -139 1507 -139 1439 -211 c 128,-1,45
 1371 -283 1371 -283 1277 -283 c 0,46,47
 1105 -283 1105 -283 1030 -95 c 2,48,-1
 877 287 l 2,49,50
 796 490 796 490 664 490 c 0,51,52
 518 490 518 490 420 565 c 1,53,-1
 420 250 l 2,54,55
 420 59 420 59 590 15 c 1,56,-1
 590 0 l 1,57,-1
 50 0 l 1,17,-1
EndSplineSet
Validated: 1
EndChar

StartChar: S
Encoding: 83 83 52
Width: 1241
GlyphClass: 2
Flags: W
HStem: -20 92<410.575 782.38> 1442 88<469.881 763.375>
VStem: 90 15<-20 7.19336 532.487 566> 192 188<1103.98 1353.76> 944 15<1080 1104.57> 947 204<259.825 543.598>
DStem2: 577 995 491 800 0.91662 -0.399759<-192.117 429.944>
LayerCount: 2
Fore
SplineSet
606 -20 m 0,0,1
 448 -20 448 -20 318 45 c 0,2,3
 240 84 240 84 200 84 c 0,4,5
 127 84 127 84 105 -20 c 1,6,-1
 90 -20 l 1,7,-1
 90 566 l 1,8,-1
 105 566 l 1,9,10
 145 348 145 348 269 220 c 0,11,12
 414 72 414 72 608 72 c 0,13,14
 770 72 770 72 873 191 c 0,15,16
 947 277 947 277 947 399 c 0,17,18
 947 591 947 591 694 707 c 2,19,-1
 491 800 l 2,20,21
 192 937 192 937 192 1189 c 0,22,23
 192 1335 192 1335 306 1437 c 0,24,25
 409 1530 409 1530 569 1530 c 0,26,27
 663 1530 663 1530 737 1499 c 0,28,29
 825 1463 825 1463 868 1463 c 0,30,31
 912 1463 912 1463 944 1530 c 1,32,-1
 959 1530 l 1,33,-1
 959 1080 l 1,34,-1
 944 1080 l 1,35,36
 907 1213 907 1213 850 1304 c 0,37,38
 763 1442 763 1442 621 1442 c 0,39,40
 514 1442 514 1442 448 1382 c 0,41,42
 380 1320 380 1320 380 1223 c 0,43,44
 380 1081 380 1081 577 995 c 2,45,-1
 804 896 l 2,46,47
 1151 745 1151 745 1151 463 c 0,48,49
 1151 251 1151 251 990 106 c 0,50,51
 851 -20 851 -20 606 -20 c 0,0,1
EndSplineSet
Validated: 1
EndChar

StartChar: T
Encoding: 84 84 53
Width: 1375
GlyphClass: 2
Flags: W
HStem: 0 15<418 438.586 937.414 958> 1420 90<286.316 570.846 805.154 1088.51>
VStem: 588 200<96.25 1418.18>
LayerCount: 2
Fore
SplineSet
418 0 m 1,0,-1
 418 15 l 1,1,2
 588 60 588 60 588 250 c 2,3,-1
 588 1260 l 2,4,5
 588 1362 588 1362 550 1420 c 1,6,-1
 504 1420 l 2,7,8
 248 1420 248 1420 25 1188 c 1,9,-1
 10 1188 l 1,10,-1
 196 1510 l 1,11,-1
 1180 1510 l 1,12,-1
 1365 1188 l 1,13,-1
 1350 1188 l 1,14,15
 1126 1420 1126 1420 872 1420 c 2,16,-1
 826 1420 l 1,17,18
 788 1362 788 1362 788 1260 c 2,19,-1
 788 250 l 2,20,21
 788 59 788 59 958 15 c 1,22,-1
 958 0 l 1,23,-1
 418 0 l 1,0,-1
EndSplineSet
Validated: 1
EndChar

StartChar: U
Encoding: 85 85 54
Width: 1487
GlyphClass: 2
Flags: W
HStem: -20 131<597.481 975.969> 1495 15<50 70.5859 569.414 590 996 1016.71 1416.41 1437>
VStem: 220 200<286.25 1413.75> 1167 100<296.751 1413.75>
LayerCount: 2
Fore
SplineSet
750 -20 m 0,0,1
 518 -20 518 -20 369 122 c 128,-1,2
 220 264 220 264 220 495 c 2,3,-1
 220 1260 l 2,4,5
 220 1451 220 1451 50 1495 c 1,6,7
 50 1501 50 1501 50 1510 c 1,8,-1
 590 1510 l 1,9,-1
 590 1495 l 1,10,11
 420 1450 420 1450 420 1260 c 2,12,-1
 420 495 l 2,13,14
 420 313 420 313 510 220 c 0,15,16
 617 111 617 111 784 111 c 0,17,18
 962 111 962 111 1067 218 c 0,19,20
 1167 320 1167 320 1167 495 c 2,21,-1
 1167 1260 l 2,22,23
 1167 1451 1167 1451 996 1495 c 1,24,25
 996 1502 996 1502 996 1510 c 1,26,-1
 1437 1510 l 1,27,-1
 1437 1495 l 1,28,29
 1267 1450 1267 1450 1267 1260 c 2,30,-1
 1267 495 l 2,31,32
 1267 269 1267 269 1121 123 c 24,33,34
 978 -20 978 -20 750 -20 c 0,0,1
EndSplineSet
Validated: 1
EndChar

StartChar: V
Encoding: 86 86 55
Width: 1705
GlyphClass: 2
Flags: W
HStem: 1495 15<10 27.1797 564.562 582 1233 1250.32 1677.7 1695>
DStem2: 907 301 845 -40 0.423076 -0.906094<-1139.79 0> 907 301 860 -40 0.422504 0.906361<0 1138.87>
LayerCount: 2
Fore
SplineSet
845 -40 m 1,0,-1
 238 1260 l 2,1,2
 149 1451 149 1451 10 1495 c 1,3,4
 10 1510 l 1,5,-1
 582 1510 l 1,6,-1
 582 1495 l 1,7,8
 438 1439 438 1439 438 1341 c 0,9,10
 438 1307 438 1307 460 1260 c 2,11,-1
 907 301 l 1,12,-1
 1355 1260 l 2,13,14
 1376 1305 1376 1305 1376 1340 c 0,15,16
 1376 1440 1376 1440 1233 1495 c 1,17,-1
 1233 1510 l 1,18,-1
 1695 1510 l 1,19,20
 1695 1495 l 1,21,22
 1555 1451 1555 1451 1466 1260 c 2,23,-1
 860 -40 l 1,24,-1
 845 -40 l 1,0,-1
EndSplineSet
Validated: 1
EndChar

StartChar: W
Encoding: 87 87 56
Width: 2369
GlyphClass: 2
Flags: W
HStem: 1495 15<10 27.1797 564.562 582 1897 1914.32 2341.7 2359>
DStem2: 998 1510 786 1510 0.422725 -0.906258<0 559.236 691.659 720.148 852.571 1345.74> 907 301 845 -40 0.423076 -0.906094<-1139.79 0> 907 301 860 -40 0.422245 0.906482<0 438.763 774.424 1334.08> 1566 290 1524 -40 0.422504 0.906361<0 1150.95>
LayerCount: 2
Fore
SplineSet
845 -40 m 1,0,-1
 238 1260 l 2,1,2
 149 1451 149 1451 10 1495 c 1,3,-1
 10 1510 l 1,4,-1
 582 1510 l 1,5,-1
 582 1495 l 1,6,7
 438 1439 438 1439 438 1341 c 0,8,9
 438 1307 438 1307 460 1260 c 2,10,-1
 907 301 l 1,11,-1
 1128 776 l 1,12,-1
 786 1510 l 1,13,-1
 998 1510 l 1,14,-1
 1234 1003 l 1,15,-1
 1471 1510 l 1,16,-1
 1582 1510 l 1,17,-1
 1290 883 l 1,18,-1
 1566 290 l 1,19,-1
 2019 1260 l 2,20,21
 2040 1305 2040 1305 2040 1340 c 0,22,23
 2040 1440 2040 1440 1897 1495 c 1,24,-1
 1897 1510 l 1,25,-1
 2359 1510 l 1,26,-1
 2359 1495 l 1,27,28
 2219 1451 2219 1451 2130 1260 c 2,29,-1
 1524 -40 l 1,30,-1
 1509 -40 l 1,31,-1
 1184 656 l 1,32,-1
 860 -40 l 1,33,-1
 845 -40 l 1,0,-1
EndSplineSet
Validated: 1
EndChar

StartChar: X
Encoding: 88 88 57
Width: 1533
GlyphClass: 2
Flags: W
HStem: 0 15<10 27.3862 524.23 543 886 904.285 1504.63 1523> 1495 15<10 32.5273 629.836 648 988 1006.89 1502.46 1523>
DStem2: 799 879 317 1260 0.552795 -0.833317<-579.392 0 170.731 751.305> 318 250 442 250 0.608267 0.793733<-48.3407 555.451 791.834 1395.81>
LayerCount: 2
Fore
SplineSet
10 0 m 1,0,-1
 10 15 l 1,1,2
 197 92 197 92 318 250 c 2,3,-1
 676 719 l 1,4,-1
 317 1260 l 2,5,6
 192 1448 192 1448 10 1495 c 1,7,-1
 10 1510 l 1,8,-1
 648 1510 l 1,9,-1
 648 1495 l 1,10,11
 498 1445 498 1445 498 1376 c 0,12,13
 498 1332 498 1332 546 1260 c 2,14,-1
 799 879 l 1,15,-1
 1090 1260 l 2,16,17
 1144 1331 1144 1331 1144 1377 c 0,18,19
 1144 1442 1144 1442 988 1495 c 1,20,-1
 988 1510 l 1,21,-1
 1523 1510 l 1,22,-1
 1523 1495 l 1,23,24
 1358 1445 1358 1445 1216 1260 c 2,25,-1
 857 791 l 1,26,-1
 1216 250 l 2,27,28
 1325 85 1325 85 1523 15 c 1,29,-1
 1523 0 l 1,30,-1
 886 0 l 1,31,-1
 886 15 l 1,32,33
 1037 65 1037 65 1037 134 c 0,34,35
 1037 175 1037 175 987 250 c 2,36,-1
 734 631 l 1,37,-1
 442 250 l 2,38,39
 388 180 388 180 388 134 c 0,40,41
 388 69 388 69 543 15 c 1,42,-1
 543 0 l 1,43,-1
 10 0 l 1,0,-1
EndSplineSet
Validated: 1
EndChar

StartChar: Y
Encoding: 89 89 58
Width: 1595
GlyphClass: 2
Flags: W
HStem: 0 15<528 548.465 1045.54 1066> 1495 15<10 27.4922 560.631 580 1117 1136.52 1567.27 1585>
VStem: 697 200<95.75 507>
DStem2: 850 626 697 509 0.504657 -0.86332<-826.937 0> 850 626 897 507 0.503657 0.863904<0 826.791>
LayerCount: 2
Fore
SplineSet
528 0 m 1,0,1
 528 9 528 9 528 15 c 1,2,3
 697 60 697 60 697 250 c 2,4,-1
 697 509 l 1,5,-1
 258 1260 l 2,6,7
 151 1443 151 1443 10 1495 c 1,8,-1
 10 1510 l 1,9,-1
 580 1510 l 1,10,-1
 580 1495 l 1,11,12
 451 1454 451 1454 451 1352 c 0,13,14
 451 1308 451 1308 479 1260 c 2,15,-1
 850 626 l 1,16,-1
 1219 1260 l 2,17,18
 1247 1308 1247 1308 1247 1353 c 0,19,20
 1247 1454 1247 1454 1117 1495 c 1,21,-1
 1117 1510 l 1,22,-1
 1585 1510 l 1,23,-1
 1585 1495 l 1,24,25
 1442 1441 1442 1441 1336 1260 c 2,26,-1
 897 507 l 1,27,-1
 897 250 l 2,28,29
 897 59 897 59 1066 15 c 1,30,-1
 1066 0 l 1,31,-1
 528 0 l 1,0,1
EndSplineSet
Validated: 1
EndChar

StartChar: Z
Encoding: 90 90 59
Width: 1336
GlyphClass: 2
Flags: W
HStem: 0 90<309 1041.27> 1420 90<381.035 939>
DStem2: 20 0 309 90 0.543325 0.839523<232.578 1691.44>
LayerCount: 2
Fore
SplineSet
20 0 m 1,0,-1
 939 1420 l 1,1,-1
 595 1420 l 2,2,3
 345 1420 345 1420 120 1188 c 1,4,-1
 106 1188 l 1,5,-1
 292 1510 l 1,6,-1
 1228 1510 l 1,7,-1
 309 90 l 1,8,-1
 827 90 l 2,9,10
 1078 90 1078 90 1301 322 c 1,11,-1
 1316 322 l 1,12,-1
 1130 0 l 1,13,-1
 20 0 l 1,0,-1
EndSplineSet
Validated: 1
EndChar

StartChar: bracketleft
Encoding: 91 91 60
Width: 765
GlyphClass: 2
Flags: W
HStem: -200 95<430 715> 1610 100<430 715>
VStem: 250 180<-105 1610>
LayerCount: 2
Fore
SplineSet
250 -200 m 1,0,-1
 250 1710 l 1,1,-1
 715 1710 l 1,2,-1
 715 1610 l 1,3,-1
 430 1610 l 1,4,-1
 430 -105 l 1,5,-1
 715 -105 l 1,6,-1
 715 -200 l 1,7,-1
 250 -200 l 1,0,-1
EndSplineSet
Validated: 1
EndChar

StartChar: backslash
Encoding: 92 92 61
Width: 1065
GlyphClass: 2
Flags: W
DStem2: 147 1660 10 1596 0.462583 -0.886576<0 1962.67>
LayerCount: 2
Fore
SplineSet
147 1660 m 1,0,-1
 1055 -80 l 1,1,-1
 921 -150 l 1,2,-1
 10 1596 l 1,3,-1
 147 1660 l 1,0,-1
EndSplineSet
Validated: 3073
EndChar

StartChar: bracketright
Encoding: 93 93 62
Width: 765
GlyphClass: 2
Flags: W
HStem: -200 95<50 335> 1610 100<50 335>
VStem: 335 180<-105 1610>
LayerCount: 2
Fore
SplineSet
50 -200 m 1,0,-1
 50 -105 l 1,1,-1
 335 -105 l 1,2,-1
 335 1610 l 1,3,-1
 50 1610 l 1,4,-1
 50 1710 l 1,5,-1
 515 1710 l 1,6,-1
 515 -200 l 1,7,-1
 50 -200 l 1,0,-1
EndSplineSet
Validated: 1
EndChar

StartChar: asciicircum
Encoding: 94 94 63
Width: 776
GlyphClass: 2
Flags: W
HStem: 1493 57<310 466>
VStem: 50 676
LayerCount: 2
Fore
SplineSet
310 1550 m 1,0,-1
 466 1550 l 1,1,-1
 726 1183 l 1,2,-1
 550 1183 l 1,3,4
 436 1265 436 1265 388 1493 c 1,5,6
 340 1265 340 1265 226 1183 c 1,7,-1
 50 1183 l 1,8,-1
 310 1550 l 1,0,-1
EndSplineSet
Validated: 1
EndChar

StartChar: underscore
Encoding: 95 95 64
Width: 1233
GlyphClass: 2
Flags: W
HStem: -200 113<214 1019>
LayerCount: 2
Fore
SplineSet
214 -87 m 1,0,-1
 1083 -87 l 1,1,-1
 1019 -200 l 1,2,-1
 150 -200 l 1,3,-1
 214 -87 l 1,0,-1
EndSplineSet
Validated: 1
EndChar

StartChar: grave
Encoding: 96 96 65
Width: 436
GlyphClass: 2
Flags: W
HStem: 1160 324
VStem: 50 336
LayerCount: 2
Fore
SplineSet
143 1484 m 0,0,1
 196 1484 196 1484 224 1439 c 2,2,-1
 386 1178 l 1,3,-1
 370 1160 l 1,4,-1
 93 1316 l 2,5,6
 50 1340 50 1340 50 1391 c 0,7,8
 50 1428 50 1428 75 1456 c 128,-1,9
 100 1484 100 1484 143 1484 c 0,0,1
EndSplineSet
Validated: 1
EndChar

StartChar: a
Encoding: 97 97 66
Width: 1240
GlyphClass: 2
Flags: W
HStem: -20 91<482.437 792.697> 1029 91<483.424 792.697>
VStem: 90 210<311.597 788.403> 840 180<160.5 939.5>
LayerCount: 2
Fore
SplineSet
659 71 m 0,0,1
 840 71 840 71 840 252 c 2,2,-1
 840 848 l 2,3,4
 840 1029 840 1029 659 1029 c 0,5,6
 464 1029 464 1029 374 875 c 0,7,8
 300 748 300 748 300 550 c 128,-1,9
 300 352 300 352 374 225 c 0,10,11
 463 71 463 71 659 71 c 0,0,1
719 -20 m 0,12,13
 423 -20 423 -20 252 141 c 0,14,15
 90 291 90 291 90 550 c 128,-1,16
 90 809 90 809 252 959 c 0,17,18
 426 1120 426 1120 719 1120 c 0,19,20
 958 1120 958 1120 1190 1009 c 1,21,-1
 1190 995 l 1,22,23
 1020 958 1020 958 1020 847 c 2,24,-1
 1020 253 l 2,25,26
 1020 142 1020 142 1190 105 c 1,27,-1
 1190 91 l 1,28,29
 958 -20 958 -20 719 -20 c 0,12,13
EndSplineSet
Validated: 1
EndChar

StartChar: b
Encoding: 98 98 67
Width: 1240
GlyphClass: 2
Flags: W
HStem: -20 91<447.303 756.576> 1029 91<447.575 756.825> 1510 20G<311.5 400>
VStem: 220 180<160.5 980.878 1113 1356.5> 940 210<311.597 788.403>
LayerCount: 2
Fore
SplineSet
581 71 m 0,0,1
 776 71 776 71 866 225 c 0,2,3
 940 352 940 352 940 550 c 128,-1,4
 940 748 940 748 866 875 c 0,5,6
 777 1029 777 1029 581 1029 c 0,7,8
 400 1029 400 1029 400 848 c 2,9,-1
 400 252 l 2,10,11
 400 71 400 71 581 71 c 0,0,1
521 -20 m 0,12,13
 282 -20 282 -20 50 91 c 1,14,-1
 50 105 l 1,15,16
 220 142 220 142 220 253 c 2,17,-1
 220 1264 l 2,18,19
 220 1375 220 1375 50 1412 c 1,20,-1
 50 1426 l 1,21,22
 223 1509 223 1509 400 1530 c 9,23,-1
 400 1113 l 1,24,25
 460 1120 460 1120 521 1120 c 0,26,27
 814 1120 814 1120 988 959 c 0,28,29
 1150 809 1150 809 1150 550 c 128,-1,30
 1150 291 1150 291 988 141 c 0,31,32
 814 -20 814 -20 521 -20 c 0,12,13
EndSplineSet
Validated: 1
EndChar

StartChar: c
Encoding: 99 99 68
Width: 1196
GlyphClass: 2
Flags: W
HStem: -20 91<484.516 844.642> 1029 91<485.922 819.434>
VStem: 90 215<317.434 786.405> 1031 15<634 653.707 1101.8 1120>
LayerCount: 2
Fore
SplineSet
656 -20 m 0,0,1
 411 -20 411 -20 252 141 c 0,2,3
 90 305 90 305 90 550 c 0,4,5
 90 801 90 801 252 959 c 0,6,7
 417 1120 417 1120 656 1120 c 0,8,9
 762 1120 762 1120 846 1070 c 0,10,11
 909 1032 909 1032 948 1032 c 0,12,13
 1001 1032 1001 1032 1031 1120 c 1,14,-1
 1046 1120 l 1,15,-1
 1046 634 l 1,16,-1
 1031 634 l 1,17,18
 982 793 982 793 898 909 c 0,19,20
 811 1029 811 1029 656 1029 c 0,21,22
 469 1029 469 1029 379 875 c 0,23,24
 305 748 305 748 305 550 c 128,-1,25
 305 352 305 352 379 225 c 0,26,27
 469 71 469 71 656 71 c 0,28,29
 904 71 904 71 1046 316 c 1,30,-1
 1046 179 l 1,31,32
 910 -20 910 -20 656 -20 c 0,0,1
EndSplineSet
Validated: 1
EndChar

StartChar: d
Encoding: 100 100 69
Width: 1240
GlyphClass: 2
Flags: W
HStem: -20 91<483.175 792.697> 1029 91<483.424 792.425> 1510 20G<931.5 1020>
VStem: 90 210<311.597 788.403> 840 180<160.5 980.878 1113 1356.5>
LayerCount: 2
Fore
SplineSet
719 -20 m 0,0,1
 426 -20 426 -20 252 141 c 0,2,3
 90 291 90 291 90 550 c 128,-1,4
 90 809 90 809 252 959 c 0,5,6
 426 1120 426 1120 719 1120 c 0,7,8
 780 1120 780 1120 840 1113 c 1,9,-1
 840 1264 l 2,10,11
 840 1375 840 1375 670 1412 c 1,12,-1
 670 1426 l 1,13,14
 843 1509 843 1509 1020 1530 c 1,15,-1
 1020 253 l 2,16,17
 1020 142 1020 142 1190 105 c 1,18,-1
 1190 91 l 1,19,20
 958 -20 958 -20 719 -20 c 0,0,1
659 71 m 0,21,22
 840 71 840 71 840 252 c 2,23,-1
 840 848 l 2,24,25
 840 1029 840 1029 659 1029 c 0,26,27
 464 1029 464 1029 374 875 c 0,28,29
 300 748 300 748 300 550 c 128,-1,30
 300 352 300 352 374 225 c 0,31,32
 463 71 463 71 659 71 c 0,21,22
EndSplineSet
Validated: 1
EndChar

StartChar: f
Encoding: 102 102 70
Width: 1002
GlyphClass: 2
Flags: W
HStem: 0 15<50 70.5859 549.414 570> 653 90<400 623.406> 1439 91<447.303 761.664>
VStem: 220 180<96.75 653 743 1349.5> 967 15<1012 1048.2>
LayerCount: 2
Fore
SplineSet
50 0 m 1,0,-1
 50 15 l 1,1,2
 220 61 220 61 220 250 c 2,3,-1
 220 1257 l 2,4,5
 220 1368 220 1368 50 1405 c 1,6,-1
 50 1419 l 1,7,8
 282 1530 282 1530 521 1530 c 0,9,10
 811 1530 811 1530 982 1364 c 1,11,-1
 982 1012 l 1,12,-1
 967 1012 l 1,13,14
 943 1158 943 1158 871 1285 c 0,15,16
 784 1439 784 1439 581 1439 c 0,17,18
 400 1439 400 1439 400 1258 c 2,19,-1
 400 743 l 1,20,-1
 628 743 l 2,21,22
 718 743 718 743 813 836 c 1,23,-1
 828 836 l 1,24,-1
 649 542 l 1,25,-1
 634 542 l 1,26,27
 630 653 630 653 572 653 c 2,28,-1
 400 653 l 1,29,-1
 400 250 l 2,30,31
 400 59 400 59 570 15 c 1,32,-1
 570 0 l 1,33,-1
 50 0 l 1,0,-1
EndSplineSet
Validated: 1
EndChar

StartChar: h
Encoding: 104 104 71
Width: 1305
GlyphClass: 2
Flags: W
HStem: -20 21G<940 1031.5> 0 15<50 70.5859 549.414 570> 1029 91<447.575 758.966> 1510 20G<311.5 400>
VStem: 220 180<96.75 980.878 1113 1356.5> 940 185<153.5 802.161>
LayerCount: 2
Fore
SplineSet
50 0 m 1,0,-1
 50 15 l 1,1,2
 220 61 220 61 220 250 c 2,3,-1
 220 1264 l 2,4,5
 220 1375 220 1375 50 1412 c 1,6,-1
 50 1426 l 1,7,8
 223 1509 223 1509 400 1530 c 1,9,-1
 400 1113 l 1,10,11
 460 1120 460 1120 521 1120 c 0,12,13
 811 1120 811 1120 982 954 c 0,14,15
 1125 815 1125 815 1125 550 c 2,16,-1
 1125 246 l 2,17,18
 1125 135 1125 135 1295 98 c 1,19,-1
 1295 84 l 1,20,21
 1123 2 1123 2 940 -20 c 1,22,-1
 940 550 l 2,23,24
 940 748 940 748 866 875 c 0,25,26
 776 1029 776 1029 581 1029 c 0,27,28
 400 1029 400 1029 400 848 c 2,29,-1
 400 250 l 2,30,31
 400 59 400 59 570 15 c 1,32,-1
 570 0 l 1,33,-1
 50 0 l 1,0,-1
EndSplineSet
Validated: 1
EndChar

StartChar: i
Encoding: 105 105 72
Width: 620
GlyphClass: 2
Flags: W
HStem: 0 15<50 70.5859 549.414 570> 1100 20G<311.5 400> 1180 264<201.191 382.809>
VStem: 162 260<1219.71 1404.81> 220 180<96.25 946.5>
LayerCount: 2
Fore
SplineSet
292 1444 m 128,-1,1
 346 1444 346 1444 384 1406 c 128,-1,2
 422 1368 422 1368 422 1312.5 c 128,-1,3
 422 1257 422 1257 384 1218.5 c 128,-1,4
 346 1180 346 1180 292 1180 c 128,-1,5
 238 1180 238 1180 200 1218.5 c 128,-1,6
 162 1257 162 1257 162 1312.5 c 128,-1,7
 162 1368 162 1368 200 1406 c 128,-1,0
 238 1444 238 1444 292 1444 c 128,-1,1
50 0 m 1,8,-1
 50 15 l 1,9,10
 220 60 220 60 220 250 c 2,11,-1
 220 854 l 2,12,13
 220 965 220 965 50 1002 c 1,14,-1
 50 1016 l 1,15,16
 223 1099 223 1099 400 1120 c 1,17,-1
 400 250 l 2,18,19
 400 59 400 59 570 15 c 1,20,-1
 570 0 l 1,21,-1
 50 0 l 1,8,-1
EndSplineSet
Validated: 1
EndChar

StartChar: j
Encoding: 106 106 73
Width: 620
GlyphClass: 2
Flags: W
HStem: -430 21G<-10 195> 1100 20G<311.5 400> 1180 264<201.191 382.809>
VStem: 162 260<1219.71 1404.81> 220 180<-214.833 946.5>
LayerCount: 2
Fore
SplineSet
292 1444 m 128,-1,1
 346 1444 346 1444 384 1406 c 128,-1,2
 422 1368 422 1368 422 1312.5 c 128,-1,3
 422 1257 422 1257 384 1218.5 c 128,-1,4
 346 1180 346 1180 292 1180 c 128,-1,5
 238 1180 238 1180 200 1218.5 c 128,-1,6
 162 1257 162 1257 162 1312.5 c 128,-1,7
 162 1368 162 1368 200 1406 c 128,-1,0
 238 1444 238 1444 292 1444 c 128,-1,1
-10 -430 m 1,8,-1
 -10 -415 l 1,9,10
 220 -289 220 -289 220 0 c 2,11,-1
 220 854 l 2,12,13
 220 965 220 965 50 1002 c 1,14,-1
 50 1016 l 1,15,16
 223 1099 223 1099 400 1120 c 1,17,-1
 400 0 l 2,18,19
 400 -388 400 -388 -10 -430 c 1,8,-1
EndSplineSet
Validated: 1
EndChar

StartChar: l
Encoding: 108 108 74
Width: 620
GlyphClass: 2
Flags: W
HStem: 0 15<50 70.5859 549.414 570> 1510 20G<311.5 400>
VStem: 220 180<96.25 1356.5>
LayerCount: 2
Fore
SplineSet
50 0 m 1,0,-1
 50 15 l 1,1,2
 220 60 220 60 220 250 c 2,3,-1
 220 1264 l 2,4,5
 220 1375 220 1375 50 1412 c 1,6,-1
 50 1426 l 1,7,8
 223 1509 223 1509 400 1530 c 1,9,-1
 400 250 l 2,10,11
 400 59 400 59 570 15 c 1,12,-1
 570 0 l 1,13,-1
 50 0 l 1,0,-1
EndSplineSet
Validated: 1
EndChar

StartChar: m
Encoding: 109 109 75
Width: 2010
GlyphClass: 2
Flags: W
HStem: -20 21G<1645 1736.5> 0 15<50 70.5859 549.414 570 775 795.586 1274.41 1295> 1029 91<447.303 762.129 1174.12 1469.09>
VStem: 220 180<96.75 939.5> 945 180<96.75 811.569> 1645 185<153.5 798.691>
LayerCount: 2
Fore
SplineSet
50 0 m 1,0,-1
 50 15 l 1,1,2
 220 61 220 61 220 250 c 2,3,-1
 220 847 l 2,4,5
 220 958 220 958 50 995 c 1,6,-1
 50 1009 l 1,7,8
 282 1120 282 1120 521 1120 c 0,9,10
 795 1120 795 1120 964 972 c 1,11,12
 1063 1120 1063 1120 1246 1120 c 0,13,14
 1524 1120 1524 1120 1687 954 c 0,15,16
 1830 808 1830 808 1830 550 c 2,17,-1
 1830 246 l 2,18,19
 1830 135 1830 135 2000 98 c 1,20,-1
 2000 84 l 1,21,22
 1828 2 1828 2 1645 -20 c 1,23,-1
 1645 550 l 2,24,25
 1645 739 1645 739 1571 875 c 0,26,27
 1487 1029 1487 1029 1306 1029 c 128,-1,28
 1125 1029 1125 1029 1125 848 c 2,29,-1
 1125 250 l 2,30,31
 1125 59 1125 59 1295 15 c 1,32,-1
 1295 0 l 1,33,-1
 775 0 l 1,34,-1
 775 15 l 1,35,36
 945 61 945 61 945 250 c 2,37,-1
 945 550 l 2,38,39
 945 748 945 748 871 875 c 0,40,41
 781 1029 781 1029 581 1029 c 0,42,43
 400 1029 400 1029 400 848 c 2,44,-1
 400 250 l 2,45,46
 400 59 400 59 570 15 c 1,47,-1
 570 0 l 1,48,-1
 50 0 l 1,0,-1
EndSplineSet
Validated: 1
EndChar

StartChar: n
Encoding: 110 110 76
Width: 1305
GlyphClass: 2
Flags: W
HStem: -20 21G<940 1031.5> 0 15<50 70.5859 549.414 570> 1029 91<447.303 758.966>
VStem: 220 180<96.75 939.5> 940 185<153.5 802.161>
LayerCount: 2
Fore
SplineSet
50 0 m 1,0,-1
 50 15 l 1,1,2
 220 61 220 61 220 250 c 2,3,-1
 220 847 l 2,4,5
 220 958 220 958 50 995 c 1,6,-1
 50 1009 l 1,7,8
 282 1120 282 1120 521 1120 c 0,9,10
 811 1120 811 1120 982 954 c 0,11,12
 1125 815 1125 815 1125 550 c 2,13,-1
 1125 246 l 2,14,15
 1125 135 1125 135 1295 98 c 1,16,-1
 1295 84 l 1,17,18
 1123 2 1123 2 940 -20 c 1,19,-1
 940 550 l 2,20,21
 940 748 940 748 866 875 c 0,22,23
 776 1029 776 1029 581 1029 c 0,24,25
 400 1029 400 1029 400 848 c 2,26,-1
 400 250 l 2,27,28
 400 59 400 59 570 15 c 1,29,-1
 570 0 l 1,30,-1
 50 0 l 1,0,-1
EndSplineSet
Validated: 1
EndChar

StartChar: o
Encoding: 111 111 77
Width: 1222
GlyphClass: 2
Flags: W
HStem: -20 91<459.83 762.17> 1029 91<460.071 762.17>
VStem: 90 210<303.575 796.425> 922 210<303.813 796.187>
LayerCount: 2
Fore
SplineSet
611 -20 m 128,-1,1
 415 -20 415 -20 265 116 c 0,2,3
 90 274 90 274 90 550 c 128,-1,4
 90 826 90 826 265 984 c 0,5,6
 415 1120 415 1120 611 1120 c 128,-1,7
 807 1120 807 1120 957 984 c 0,8,9
 1132 826 1132 826 1132 550 c 128,-1,10
 1132 274 1132 274 957 116 c 0,11,0
 807 -20 807 -20 611 -20 c 128,-1,1
611 71 m 128,-1,13
 756 71 756 71 840 193 c 0,14,15
 922 312 922 312 922 550 c 128,-1,16
 922 788 922 788 840 907 c 0,17,18
 756 1029 756 1029 611 1029 c 0,19,20
 467 1029 467 1029 382 907 c 0,21,22
 300 789 300 789 300 550 c 128,-1,23
 300 311 300 311 382 193 c 0,24,12
 466 71 466 71 611 71 c 128,-1,13
EndSplineSet
Validated: 1
EndChar

StartChar: p
Encoding: 112 112 78
Width: 1240
VWidth: 1638
GlyphClass: 2
Flags: W
HStem: -410 15<50 70.5859 549.414 570> -20 91<447.575 756.576> 1029 91<447.303 756.825>
VStem: 220 180<-313.75 -13 119.122 939.5> 940 210<311.597 788.403>
LayerCount: 2
Fore
SplineSet
581 71 m 0,0,1
 776 71 776 71 866 225 c 0,2,3
 940 352 940 352 940 550 c 128,-1,4
 940 748 940 748 866 875 c 0,5,6
 777 1029 777 1029 581 1029 c 0,7,8
 400 1029 400 1029 400 848 c 2,9,-1
 400 252 l 2,10,11
 400 71 400 71 581 71 c 0,0,1
50 -410 m 1,12,-1
 50 -395 l 1,13,14
 220 -350 220 -350 220 -160 c 2,15,-1
 220 847 l 2,16,17
 220 958 220 958 50 995 c 1,18,-1
 50 1009 l 1,19,20
 282 1120 282 1120 521 1120 c 0,21,22
 814 1120 814 1120 988 959 c 0,23,24
 1150 809 1150 809 1150 550 c 128,-1,25
 1150 291 1150 291 988 141 c 0,26,27
 814 -20 814 -20 521 -20 c 0,28,29
 460 -20 460 -20 400 -13 c 1,30,-1
 400 -160 l 2,31,32
 400 -351 400 -351 570 -395 c 1,33,-1
 570 -410 l 1,34,-1
 50 -410 l 1,12,-1
EndSplineSet
Validated: 1
EndChar

StartChar: q
Encoding: 113 113 79
Width: 1240
GlyphClass: 2
Flags: W
HStem: -430 21G<840 928.5> -20 91<483.175 792.425> 1029 91<483.424 792.697>
VStem: 90 210<311.597 788.403> 840 180<-256.5 -13 119.122 939.5>
LayerCount: 2
Fore
SplineSet
659 71 m 0,0,1
 840 71 840 71 840 252 c 2,2,-1
 840 848 l 2,3,4
 840 1029 840 1029 659 1029 c 0,5,6
 464 1029 464 1029 374 875 c 0,7,8
 300 748 300 748 300 550 c 128,-1,9
 300 352 300 352 374 225 c 0,10,11
 463 71 463 71 659 71 c 0,0,1
719 1120 m 0,12,13
 958 1120 958 1120 1190 1009 c 1,14,-1
 1190 995 l 1,15,16
 1020 958 1020 958 1020 847 c 2,17,-1
 1020 -164 l 2,18,19
 1020 -275 1020 -275 1190 -312 c 1,20,-1
 1190 -326 l 1,21,22
 1017 -409 1017 -409 840 -430 c 9,23,-1
 840 -13 l 1,24,25
 780 -20 780 -20 719 -20 c 0,26,27
 426 -20 426 -20 252 141 c 0,28,29
 90 291 90 291 90 550 c 128,-1,30
 90 809 90 809 252 959 c 0,31,32
 426 1120 426 1120 719 1120 c 0,12,13
EndSplineSet
Validated: 1
EndChar

StartChar: r
Encoding: 114 114 80
Width: 1002
GlyphClass: 2
Flags: W
HStem: 0 15<50 70.5859 549.414 570> 1029 91<447.303 761.664>
VStem: 220 180<96.75 939.5> 967 15<602 638.203>
LayerCount: 2
Fore
SplineSet
50 0 m 1,0,-1
 50 15 l 1,1,2
 220 61 220 61 220 250 c 2,3,-1
 220 847 l 2,4,5
 220 958 220 958 50 995 c 1,6,-1
 50 1009 l 1,7,8
 282 1120 282 1120 521 1120 c 0,9,10
 811 1120 811 1120 982 954 c 1,11,-1
 982 602 l 1,12,-1
 967 602 l 1,13,14
 943 748 943 748 871 875 c 0,15,16
 784 1029 784 1029 581 1029 c 0,17,18
 400 1029 400 1029 400 848 c 2,19,-1
 400 250 l 2,20,21
 400 59 400 59 570 15 c 1,22,-1
 570 0 l 1,23,-1
 50 0 l 1,0,-1
EndSplineSet
Validated: 1
EndChar

StartChar: s
Encoding: 115 115 81
Width: 990
GlyphClass: 2
Flags: W
HStem: -20 86<315.584 615.824> 1037 83<388.108 626.633>
VStem: 90 15<-20 4.19922 417.085 453> 181 165<810.326 1002.85> 720 180<176.583 423.21> 750 15<768 805.575>
DStem2: 491 744 396 580 0.908896 -0.417023<-167.259 332.456>
LayerCount: 2
Fore
SplineSet
472 -20 m 0,0,1
 355 -20 355 -20 249 39 c 0,2,3
 204 64 204 64 178 64 c 0,4,5
 126 64 126 64 105 -20 c 1,6,-1
 90 -20 l 1,7,-1
 90 453 l 1,8,-1
 105 453 l 1,9,10
 138 257 138 257 250 156 c 0,11,12
 350 66 350 66 474 66 c 0,13,14
 581 66 581 66 656 141 c 0,15,16
 720 205 720 205 720 304 c 0,17,18
 720 431 720 431 566 502 c 6,19,-1
 396 580 l 6,20,21
 181 679 181 679 181 860 c 0,22,23
 181 980 181 980 277 1057 c 0,24,25
 357 1120 357 1120 468 1120 c 0,26,27
 550 1120 550 1120 611 1090 c 0,28,29
 652 1070 652 1070 685 1070 c 0,30,31
 734 1070 734 1070 750 1120 c 1,32,-1
 765 1120 l 1,33,-1
 765 768 l 1,34,-1
 750 768 l 1,35,36
 737 861 737 861 673 949 c 128,-1,37
 609 1037 609 1037 498 1037 c 0,38,39
 433 1037 433 1037 392 1005 c 0,40,41
 346 969 346 969 346 901 c 0,42,43
 346 812 346 812 491 744 c 2,44,-1
 645 672 l 2,45,46
 900 553 900 553 900 341 c 0,47,48
 900 187 900 187 772 78 c 0,49,50
 656 -20 656 -20 472 -20 c 0,0,1
EndSplineSet
Validated: 19457
EndChar

StartChar: t
Encoding: 116 116 82
Width: 886
GlyphClass: 2
Flags: W
HStem: 0 15<188 208.586 677.414 698> 1010 90<214.594 358 528 671.406> 1510 20G<444.5 528>
VStem: 358 170<96.25 1010 1100 1356.5>
LayerCount: 2
Fore
SplineSet
188 0 m 1,0,-1
 188 15 l 1,1,2
 358 60 358 60 358 250 c 2,3,-1
 358 1010 l 1,4,-1
 210 1010 l 2,5,6
 120 1010 120 1010 25 917 c 1,7,-1
 10 917 l 1,8,-1
 189 1211 l 1,9,-1
 204 1211 l 1,10,11
 208 1100 208 1100 266 1100 c 2,12,-1
 358 1100 l 1,13,-1
 358 1264 l 2,14,15
 358 1375 358 1375 188 1412 c 1,16,-1
 188 1426 l 1,17,18
 361 1510 361 1510 528 1530 c 1,19,-1
 528 1100 l 1,20,-1
 676 1100 l 2,21,22
 766 1100 766 1100 861 1193 c 1,23,-1
 876 1193 l 1,24,-1
 697 899 l 1,25,-1
 682 899 l 1,26,27
 678 1010 678 1010 620 1010 c 2,28,-1
 528 1010 l 1,29,-1
 528 250 l 2,30,31
 528 59 528 59 698 15 c 1,32,-1
 698 0 l 1,33,-1
 188 0 l 1,0,-1
EndSplineSet
Validated: 1
EndChar

StartChar: u
Encoding: 117 117 83
Width: 1305
GlyphClass: 2
Flags: W
HStem: -20 91<546.034 857.697> 1100 20G<273.5 365 996.5 1085>
VStem: 180 185<297.839 946.5> 905 180<160.5 946.5>
LayerCount: 2
Fore
SplineSet
784 -20 m 0,0,1
 494 -20 494 -20 323 146 c 0,2,3
 180 285 180 285 180 550 c 2,4,-1
 180 854 l 2,5,6
 180 965 180 965 10 1002 c 1,7,-1
 10 1016 l 1,8,9
 182 1098 182 1098 365 1120 c 1,10,-1
 365 550 l 2,11,12
 365 352 365 352 439 225 c 0,13,14
 529 71 529 71 724 71 c 0,15,16
 905 71 905 71 905 252 c 2,17,-1
 905 854 l 2,18,19
 905 965 905 965 735 1002 c 1,20,-1
 735 1016 l 1,21,22
 908 1099 908 1099 1085 1120 c 9,23,-1
 1085 253 l 2,24,25
 1085 142 1085 142 1255 105 c 1,26,-1
 1255 91 l 1,27,28
 1023 -20 1023 -20 784 -20 c 0,0,1
EndSplineSet
Validated: 1
EndChar

StartChar: braceleft
Encoding: 123 123 84
Width: 708
GlyphClass: 2
Flags: W
HStem: -200 82<524.293 658> 1628 82<522.846 658>
VStem: 250 180<11.9307 644.907 861.931 1497.52>
LayerCount: 2
Fore
SplineSet
658 1710 m 1,0,-1
 658 1628 l 1,1,2
 565 1628 565 1628 504 1574 c 0,3,4
 430 1510 430 1510 430 1301 c 2,5,-1
 430 1027 l 2,6,7
 430 806 430 806 227 755 c 1,8,9
 430 697 430 697 430 483 c 2,10,-1
 430 209 l 2,11,12
 430 0 430 0 504 -64 c 0,13,14
 565 -118 565 -118 658 -118 c 1,15,-1
 658 -200 l 1,16,17
 478 -200 478 -200 374 -99 c 0,18,19
 250 22 250 22 250 214 c 2,20,-1
 250 482 l 2,21,22
 250 693 250 693 50 755 c 1,23,24
 250 815 250 815 250 1028 c 2,25,-1
 250 1296 l 2,26,27
 250 1485 250 1485 374 1609 c 0,28,29
 475 1710 475 1710 658 1710 c 1,0,-1
EndSplineSet
Validated: 1
EndChar

StartChar: bar
Encoding: 124 124 85
Width: 655
GlyphClass: 2
Flags: W
VStem: 250 155<-150 1660>
LayerCount: 2
Fore
SplineSet
250 -150 m 1,0,-1
 250 1660 l 1,1,-1
 405 1660 l 1,2,-1
 405 -150 l 1,3,-1
 250 -150 l 1,0,-1
EndSplineSet
Validated: 3073
EndChar

StartChar: braceright
Encoding: 125 125 86
Width: 708
GlyphClass: 2
Flags: W
HStem: -200 82<50 183.707> 1628 82<50 185.154>
VStem: 278 180<11.9307 644.907 861.931 1497.52>
LayerCount: 2
Fore
SplineSet
50 1710 m 1,0,1
 233 1710 233 1710 334 1609 c 0,2,3
 458 1485 458 1485 458 1296 c 2,4,-1
 458 1028 l 2,5,6
 458 815 458 815 658 755 c 1,7,8
 458 693 458 693 458 482 c 2,9,-1
 458 214 l 2,10,11
 458 22 458 22 334 -99 c 0,12,13
 230 -200 230 -200 50 -200 c 1,14,-1
 50 -118 l 1,15,16
 143 -118 143 -118 204 -64 c 0,17,18
 278 0 278 0 278 209 c 2,19,-1
 278 483 l 2,20,21
 278 697 278 697 481 755 c 1,22,23
 278 806 278 806 278 1027 c 2,24,-1
 278 1301 l 2,25,26
 278 1510 278 1510 204 1574 c 0,27,28
 143 1628 143 1628 50 1628 c 1,29,-1
 50 1710 l 1,0,1
EndSplineSet
Validated: 1
EndChar

StartChar: asciitilde
Encoding: 126 126 87
Width: 1193
GlyphClass: 2
Flags: W
HStem: 598 151<716.25 943.751> 760 151<247.931 477.75>
DStem2: 766 772 428 737 0.915812 -0.401606<-382.506 86.1301>
LayerCount: 2
Fore
SplineSet
392 911 m 0,0,1
 449 911 449 911 522 879 c 2,2,-1
 766 772 l 2,3,4
 818 749 818 749 851 749 c 0,5,6
 966 749 966 749 1024 885 c 1,7,-1
 1043 885 l 1,8,9
 1023 598 1023 598 802 598 c 0,10,11
 745 598 745 598 672 630 c 2,12,-1
 428 737 l 2,13,14
 376 760 376 760 342 760 c 0,15,16
 228 760 228 760 170 624 c 1,17,-1
 150 624 l 1,18,19
 168 911 168 911 392 911 c 0,0,1
EndSplineSet
Validated: 1
EndChar

StartChar: exclamdown
Encoding: 161 161 89
Width: 659
GlyphClass: 2
Flags: W
HStem: -430 21G<302 356> 856 264<238.676 419.809>
VStem: 200 259<-390.293 -89.101 895.707 1080.29>
LayerCount: 2
Fore
SplineSet
329 1120 m 128,-1,1
 383 1120 383 1120 421 1081.5 c 128,-1,2
 459 1043 459 1043 459 988 c 128,-1,3
 459 933 459 933 421 894.5 c 128,-1,4
 383 856 383 856 329 856 c 128,-1,5
 275 856 275 856 237.5 894.5 c 128,-1,6
 200 933 200 933 200 988 c 128,-1,7
 200 1043 200 1043 237.5 1081.5 c 128,-1,0
 275 1120 275 1120 329 1120 c 128,-1,1
329 -430 m 128,-1,9
 275 -430 275 -430 237.5 -392 c 128,-1,10
 200 -354 200 -354 200 -298 c 0,11,-1
 201 -276 l 2,12,-1
 281 780 l 1,13,-1
 379 780 l 1,14,-1
 458 -276 l 2,15,16
 459 -289 459 -289 459 -298 c 0,17,18
 459 -353 459 -353 421 -391.5 c 128,-1,8
 383 -430 383 -430 329 -430 c 128,-1,9
EndSplineSet
Validated: 1
EndChar

StartChar: cent
Encoding: 162 162 90
Width: 1196
GlyphClass: 2
Flags: W
HStem: -18 93<508.161 628 727 881.078> 1025 93<508.161 628 728 854.721>
VStem: 120 215<317.434 786.405> 628 99<-93 -14.7109 75 1025 1112.59 1193> 1061 15<634 653.707 1101.8 1120>
LayerCount: 2
Fore
SplineSet
727 -93 m 1,0,-1
 628 -150 l 1,1,-1
 628 -18 l 1,2,3
 422 -1 422 -1 282 141 c 0,4,5
 120 305 120 305 120 550 c 0,6,7
 120 801 120 801 282 959 c 0,8,9
 427 1100 427 1100 628 1118 c 1,10,-1
 628 1193 l 1,11,-1
 728 1250 l 1,12,-1
 728 1118 l 1,13,14
 809 1110 809 1110 876 1070 c 0,15,16
 939 1032 939 1032 978 1032 c 0,17,18
 1031 1032 1031 1032 1061 1120 c 1,19,-1
 1076 1120 l 1,20,-1
 1076 634 l 1,21,-1
 1061 634 l 1,22,23
 1012 793 1012 793 928 909 c 0,24,25
 853 1012 853 1012 728 1027 c 1,26,-1
 727 73 l 1,27,28
 946 92 946 92 1076 316 c 1,29,-1
 1076 179 l 1,30,31
 951 -4 951 -4 727 -19 c 1,32,-1
 727 -93 l 1,0,-1
628 75 m 1,33,-1
 628 1025 l 1,34,35
 484 1004 484 1004 409 875 c 0,36,37
 335 748 335 748 335 550 c 128,-1,38
 335 352 335 352 409 225 c 0,39,40
 484 96 484 96 628 75 c 1,33,-1
EndSplineSet
Validated: 1
EndChar

StartChar: sterling
Encoding: 163 163 91
Width: 1256
GlyphClass: 2
Flags: W
HStem: 0 90<487.154 879.191> 0 15<100 120.586> 545 90<151 270 470 782> 1446 84<563.153 846.375>
VStem: 270 200<96.25 545 635 1322.88> 725 273<1194.32 1365.93>
LayerCount: 2
Fore
SplineSet
100 0 m 1,0,-1
 100 15 l 1,1,2
 270 60 270 60 270 250 c 2,3,-1
 270 545 l 1,4,-1
 100 545 l 1,5,-1
 151 635 l 1,6,-1
 270 635 l 1,7,-1
 270 1128 l 2,8,9
 270 1312 270 1312 392 1429 c 0,10,11
 498 1530 498 1530 708 1530 c 0,12,13
 864 1530 864 1530 949 1430 c 0,14,15
 998 1372 998 1372 998 1304 c 0,16,17
 998 1235 998 1235 954 1193 c 0,18,19
 915 1155 915 1155 858 1155 c 0,20,21
 806 1155 806 1155 768 1186 c 0,22,23
 725 1221 725 1221 725 1278 c 0,24,25
 725 1333 725 1333 760 1367 c 0,26,27
 791 1398 791 1398 849 1402 c 1,28,29
 810 1446 810 1446 706 1446 c 128,-1,30
 602 1446 602 1446 538 1385 c 0,31,32
 470 1320 470 1320 470 1128 c 2,33,-1
 470 635 l 1,34,-1
 833 635 l 1,35,-1
 782 545 l 1,36,-1
 470 545 l 1,37,-1
 470 250 l 2,38,39
 470 150 470 150 508 90 c 1,40,-1
 662 90 l 2,41,42
 917 90 917 90 1141 322 c 1,43,-1
 1156 322 l 1,44,-1
 970 0 l 1,45,-1
 100 0 l 1,0,-1
EndSplineSet
Validated: 1
EndChar

StartChar: currency
Encoding: 164 164 92
Width: 1522
GlyphClass: 2
Flags: W
HStem: 191 91<609.862 912.138> 1240 91<610 912.594>
VStem: 240 210<512.937 1006.8> 1072 210<513.175 1006.56>
DStem2: 306 1299 200 1193 0.707107 -0.707107<0 154.327 1245.92 1436.84> 200 283 306 177 0.707107 0.707107<0 190.919 1282.53 1436.84>
LayerCount: 2
Fore
SplineSet
761 282 m 128,-1,1
 906 282 906 282 990 404 c 0,2,3
 1072 523 1072 523 1072 761 c 128,-1,4
 1072 999 1072 999 990 1118 c 0,5,6
 906 1240 906 1240 761 1240 c 0,7,8
 617 1240 617 1240 532 1118 c 0,9,10
 450 1000 450 1000 450 761 c 128,-1,11
 450 522 450 522 532 404 c 0,12,0
 616 282 616 282 761 282 c 128,-1,1
762 1331 m 0,13,14
 957 1331 957 1331 1110 1192 c 9,15,-1
 1216 1299 l 1,16,-1
 1322 1193 l 1,17,-1
 1205 1075 l 1,18,19
 1282 944 1282 944 1282 761 c 0,20,21
 1282 557 1282 557 1187 418 c 1,22,-1
 1322 283 l 1,23,-1
 1216 177 l 1,24,-1
 1085 308 l 1,25,26
 943 191 943 191 761 191 c 128,-1,27
 579 191 579 191 437 308 c 1,28,-1
 306 177 l 1,29,-1
 200 283 l 1,30,-1
 335 418 l 1,31,32
 240 557 240 557 240 761 c 0,33,34
 240 944 240 944 317 1075 c 1,35,-1
 200 1193 l 1,36,-1
 306 1299 l 1,37,-1
 412 1192 l 17,38,39
 565 1331 565 1331 762 1331 c 0,13,14
EndSplineSet
Validated: 1
EndChar

StartChar: yen
Encoding: 165 165 93
Width: 1595
GlyphClass: 2
Flags: W
HStem: 0 15<528 548.465 1045.54 1066> 335 90<384 697 897 1212> 538 90<384 627 968 1212> 1495 15<10 27.4922 560.631 580 1117 1136.52 1567.27 1585>
VStem: 697 200<95.75 335 425 507>
DStem2: 849 628 627 628 0.504657 -0.86332<-824.706 -112.034 -7.58825 0> 851 628 968 628 0.503657 0.863904<58.9279 824.559>
LayerCount: 2
Fore
SplineSet
528 0 m 1,0,1
 528 9 528 9 528 15 c 1,2,3
 697 60 697 60 697 250 c 2,4,-1
 697 335 l 1,5,-1
 332 335 l 1,6,-1
 384 425 l 1,7,-1
 697 425 l 1,8,-1
 697 509 l 1,9,-1
 680 538 l 1,10,-1
 332 538 l 1,11,-1
 384 628 l 1,12,-1
 627 628 l 1,13,-1
 258 1260 l 2,14,15
 151 1443 151 1443 10 1495 c 1,16,-1
 10 1510 l 1,17,-1
 580 1510 l 1,18,-1
 580 1495 l 1,19,20
 451 1454 451 1454 451 1352 c 0,21,22
 451 1308 451 1308 479 1260 c 2,23,-1
 849 628 l 1,24,-1
 851 628 l 1,25,-1
 1219 1260 l 2,26,27
 1247 1308 1247 1308 1247 1353 c 0,28,29
 1247 1454 1247 1454 1117 1495 c 1,30,-1
 1117 1510 l 1,31,-1
 1585 1510 l 1,32,-1
 1585 1495 l 1,33,34
 1442 1441 1442 1441 1336 1260 c 2,35,-1
 968 628 l 1,36,-1
 1262 628 l 1,37,-1
 1212 538 l 1,38,-1
 915 538 l 1,39,-1
 897 507 l 1,40,-1
 897 425 l 1,41,-1
 1262 425 l 1,42,-1
 1212 335 l 1,43,-1
 897 335 l 1,44,-1
 897 250 l 2,45,46
 897 59 897 59 1066 15 c 1,47,-1
 1066 0 l 1,48,-1
 528 0 l 1,0,1
EndSplineSet
Validated: 1
EndChar

StartChar: brokenbar
Encoding: 166 166 94
Width: 654
GlyphClass: 2
Flags: W
VStem: 250 154<-150 661 850 1660>
LayerCount: 2
Fore
SplineSet
250 -150 m 1,0,-1
 250 661 l 9,1,-1
 404 661 l 17,2,-1
 404 -150 l 1,3,-1
 250 -150 l 1,0,-1
250 1660 m 1,4,-1
 404 1660 l 1,5,-1
 404 850 l 9,6,-1
 250 850 l 17,7,-1
 250 1660 l 1,4,-1
EndSplineSet
Validated: 3073
EndChar

StartChar: section
Encoding: 167 167 95
Width: 1142
GlyphClass: 2
Flags: W
HStem: -20 83<413.267 667.154> 1447 83<474.846 728.733>
VStem: 150 165<683.714 923.605> 260 273<143.068 314.681> 273 148<1200.26 1403.73> 609 273<1195.32 1366.93> 721 148<106.271 309.74> 827 165<586.395 826.286>
DStem2: 484 598 418 448 0.908896 -0.417023<-179.504 336.346> 569 1131 488 990 0.908896 -0.417023<-163.367 351.724>
LayerCount: 2
Fore
SplineSet
550 -20 m 0,0,1
 393 -20 393 -20 309 79 c 0,2,3
 260 137 260 137 260 205 c 0,4,5
 260 274 260 274 304 316 c 0,6,7
 343 354 343 354 400 354 c 0,8,9
 452 354 452 354 490 323 c 0,10,11
 533 288 533 288 533 231 c 0,12,13
 533 176 533 176 498 142 c 0,14,15
 467 111 467 111 409 107 c 1,16,17
 448 63 448 63 552 63 c 0,18,19
 616 63 616 63 662 94 c 0,20,21
 721 134 721 134 721 199 c 0,22,23
 721 313 721 313 573 379 c 2,24,-1
 418 448 l 2,25,26
 150 567 150 567 150 759 c 0,27,28
 150 913 150 913 278 1022 c 1,29,-1
 394 959 l 1,30,31
 315 896 315 896 315 796 c 0,32,33
 315 676 315 676 484 598 c 2,34,-1
 654 520 l 2,35,36
 869 421 869 421 869 240 c 0,37,38
 869 120 869 120 773 43 c 0,39,40
 693 -20 693 -20 550 -20 c 0,0,1
592 1530 m 0,41,42
 749 1530 749 1530 833 1431 c 0,43,44
 882 1373 882 1373 882 1305 c 0,45,46
 882 1236 882 1236 838 1194 c 0,47,48
 799 1156 799 1156 742 1156 c 0,49,50
 690 1156 690 1156 652 1187 c 0,51,52
 609 1222 609 1222 609 1279 c 0,53,54
 609 1334 609 1334 644 1368 c 0,55,56
 675 1399 675 1399 733 1403 c 1,57,58
 694 1447 694 1447 590 1447 c 0,59,60
 526 1447 526 1447 480 1416 c 0,61,62
 421 1376 421 1376 421 1311 c 0,63,64
 421 1197 421 1197 569 1131 c 2,65,-1
 724 1062 l 2,66,67
 992 943 992 943 992 751 c 0,68,69
 992 597 992 597 864 488 c 1,70,-1
 748 551 l 1,71,72
 827 614 827 614 827 714 c 0,73,74
 827 834 827 834 658 912 c 2,75,-1
 488 990 l 2,76,77
 273 1089 273 1089 273 1270 c 0,78,79
 273 1390 273 1390 369 1467 c 0,80,81
 449 1530 449 1530 592 1530 c 0,41,42
EndSplineSet
Validated: 1
EndChar

StartChar: dieresis
Encoding: 168 168 96
Width: 636
GlyphClass: 2
Flags: W
HStem: 1200 238<85.0659 246.934 388.097 550.934>
VStem: 50 232<1235.07 1402.93> 352 234<1235.58 1402.42>
LayerCount: 2
Fore
SplineSet
470 1438 m 128,-1,1
 518 1438 518 1438 552 1404 c 128,-1,2
 586 1370 586 1370 586 1319 c 128,-1,3
 586 1268 586 1268 552 1234 c 128,-1,4
 518 1200 518 1200 470 1200 c 128,-1,5
 422 1200 422 1200 387 1234.5 c 128,-1,6
 352 1269 352 1269 352 1319 c 128,-1,7
 352 1369 352 1369 387 1403.5 c 128,-1,0
 422 1438 422 1438 470 1438 c 128,-1,1
166 1438 m 128,-1,9
 214 1438 214 1438 248 1404 c 128,-1,10
 282 1370 282 1370 282 1319 c 128,-1,11
 282 1268 282 1268 248 1234 c 128,-1,12
 214 1200 214 1200 166 1200 c 128,-1,13
 118 1200 118 1200 84 1234 c 128,-1,14
 50 1268 50 1268 50 1319 c 128,-1,15
 50 1370 50 1370 84 1404 c 128,-1,8
 118 1438 118 1438 166 1438 c 128,-1,9
EndSplineSet
Validated: 1
EndChar

StartChar: copyright
Encoding: 169 169 97
Width: 1401
GlyphClass: 2
Flags: W
HStem: 386 73<514.363 878.202> 558 56<644.569 866.217> 687 73<916 989> 1286 57<635.013 832.16> 1453 77<516.855 884.866>
VStem: 150 74<768.815 1151.31> 353 157<749.498 1150.65> 972 17<1042 1064.34 1320.66 1346> 1176 75<757.376 1158.43>
LayerCount: 2
Fore
SplineSet
724 1343 m 0,0,1
 799 1343 799 1343 846 1318 c 0,2,3
 898 1291 898 1291 919 1291 c 0,4,5
 961 1291 961 1291 972 1346 c 1,6,-1
 989 1346 l 1,7,-1
 989 1042 l 1,8,-1
 972 1042 l 1,9,10
 905 1286 905 1286 724 1286 c 0,11,12
 622 1286 622 1286 559 1167 c 24,13,14
 510 1074 510 1074 510 948 c 0,15,16
 510 819 510 819 559 733 c 0,17,18
 627 614 627 614 751 614 c 0,19,20
 894 614 894 614 989 760 c 1,21,-1
 989 687 l 1,22,23
 902 558 902 558 734 558 c 0,24,25
 546 558 546 558 440 686 c 0,26,27
 353 791 353 791 353 952 c 0,28,29
 353 1112 353 1112 440 1214 c 0,30,31
 549 1343 549 1343 724 1343 c 0,0,1
701 1530 m 0,32,33
 943 1530 943 1530 1099 1357 c 0,34,35
 1251 1188 1251 1188 1251 953 c 0,36,37
 1251 701 1251 701 1090 549 c 0,38,39
 919 386 919 386 699 386 c 0,40,41
 476 386 476 386 311 549 c 0,42,43
 150 708 150 708 150 953 c 0,44,45
 150 1197 150 1197 308 1362 c 0,46,47
 469 1530 469 1530 701 1530 c 0,32,33
699 1453 m 0,48,49
 509 1453 509 1453 367 1312 c 0,50,51
 224 1170 224 1170 224 953 c 0,52,53
 224 760 224 760 364 605 c 0,54,55
 495 459 495 459 701 459 c 0,56,57
 892 459 892 459 1037 605 c 0,58,59
 1176 745 1176 745 1176 953 c 0,60,61
 1176 1174 1176 1174 1039 1309 c 0,62,63
 893 1453 893 1453 699 1453 c 0,48,49
EndSplineSet
Validated: 1
EndChar

StartChar: ordfeminine
Encoding: 170 170 98
Width: 635
GlyphClass: 2
Flags: W
HStem: 816 130<124 511> 1003 53<219.033 352.658> 1312 56<256.547 369> 1526 54<191.02 338.592>
VStem: 50 139<1070.54 1267.72> 106 17<1379 1405.27> 369 130<1082.47 1312 1368 1497.06>
LayerCount: 2
Fore
SplineSet
280.5 1580 m 128,-1,1
 378 1580 378 1580 438.5 1536 c 128,-1,2
 499 1492 499 1492 499 1409 c 2,3,-1
 499 1143 l 2,4,5
 499 1084 499 1084 584 1072 c 1,6,-1
 584 1061 l 1,7,8
 460 1003 460 1003 315.5 1003 c 128,-1,9
 171 1003 171 1003 110 1049 c 0,10,11
 50 1094 50 1094 50 1174 c 128,-1,12
 50 1254 50 1254 126 1310 c 0,13,14
 202 1364 202 1364 369 1368 c 1,15,-1
 369 1410 l 2,16,17
 369 1468 369 1468 341 1498 c 0,18,19
 315 1526 315 1526 273 1526 c 0,20,21
 160 1526 160 1526 123 1379 c 1,22,-1
 106 1379 l 1,23,-1
 106 1529 l 1,24,0
 183 1580 183 1580 280.5 1580 c 128,-1,1
369 1312 m 1,25,26
 274 1307 274 1307 231.5 1268 c 128,-1,27
 189 1229 189 1229 189 1170 c 0,28,29
 189 1056 189 1056 296 1056 c 24,30,31
 369 1056 369 1056 369 1143 c 2,32,-1
 369 1312 l 1,25,26
124 946 m 1,33,-1
 585 946 l 1,34,-1
 511 816 l 1,35,-1
 50 816 l 1,36,-1
 124 946 l 1,33,-1
EndSplineSet
Validated: 1
EndChar

StartChar: guillemotleft
Encoding: 171 171 99
Width: 1223
GlyphClass: 2
Flags: W
DStem2: 304 796 150 730 0.577331 -0.81651<0 565.636> 150 730 304 796 0.554364 0.832274<140.302 687.274> 691 796 537 730 0.577331 -0.81651<0 565.636> 537 730 691 796 0.554364 0.832274<140.302 687.274>
LayerCount: 2
Fore
SplineSet
918 1302 m 1,0,-1
 1000 1252 l 1,1,-1
 691 796 l 1,2,-1
 1023 338 l 1,3,-1
 887 235 l 1,4,-1
 537 730 l 1,5,-1
 918 1302 l 1,0,-1
531 1302 m 1,6,-1
 613 1252 l 1,7,-1
 304 796 l 1,8,-1
 636 338 l 1,9,-1
 500 235 l 1,10,-1
 150 730 l 1,11,-1
 531 1302 l 1,6,-1
EndSplineSet
Validated: 1
EndChar

StartChar: logicalnot
Encoding: 172 172 100
Width: 1218
GlyphClass: 2
Flags: W
HStem: 680 150<235 828>
DStem2: 657 380 811 380 0.495931 0.868362<76.3734 345.313>
LayerCount: 2
Fore
SplineSet
235 830 m 1,0,-1
 1068 830 l 1,1,-1
 811 380 l 1,2,-1
 657 380 l 1,3,-1
 828 680 l 1,4,-1
 150 680 l 1,5,-1
 235 830 l 1,0,-1
EndSplineSet
Validated: 1
EndChar

StartChar: uni00AD
Encoding: 173 173 101
Width: 1218
GlyphClass: 2
Flags: W
HStem: 680 150<235 983>
LayerCount: 2
Fore
SplineSet
235 830 m 1,0,-1
 1068 830 l 1,1,-1
 983 680 l 1,2,-1
 150 680 l 1,3,-1
 235 830 l 1,0,-1
EndSplineSet
Validated: 1
EndChar

StartChar: registered
Encoding: 174 174 102
Width: 1401
GlyphClass: 2
Flags: W
HStem: 386 73<514.473 877.944> 557 16<681.775 704> 802 57<650.908 768.531> 1276 55<650.052 797.29> 1453 77<516.855 884.866>
VStem: 150 74<769.815 1151.31> 479 140<591.8 821 880.692 1246.39> 875 151<927.916 1213.28> 1176 75<759.336 1158.43>
LayerCount: 2
Fore
SplineSet
1031 599 m 1,0,1
 1176 745 1176 745 1176 953 c 0,2,3
 1176 1174 1176 1174 1039 1309 c 0,4,5
 893 1453 893 1453 699 1453 c 0,6,7
 509 1453 509 1453 367 1312 c 0,8,9
 224 1170 224 1170 224 953 c 0,10,11
 224 764 224 764 364 605 c 0,12,13
 379 588 379 588 395 573 c 1,14,15
 479 597 479 597 479 688 c 2,16,-1
 479 1191 l 2,17,18
 479 1236 479 1236 394 1263 c 1,19,-1
 394 1273 l 1,20,21
 530 1331 530 1331 690 1331 c 0,22,23
 852 1331 852 1331 942 1257 c 0,24,25
 1026 1187 1026 1187 1026 1071 c 0,26,27
 1026 953 1026 953 942 879 c 0,28,29
 899 841 899 841 846 822 c 1,30,31
 930 798 930 798 956 720 c 0,32,33
 983 636 983 636 1031 599 c 1,0,1
701 1530 m 0,34,35
 943 1530 943 1530 1099 1357 c 0,36,37
 1251 1188 1251 1188 1251 953 c 0,38,39
 1251 701 1251 701 1090 549 c 0,40,41
 919 386 919 386 699 386 c 0,42,43
 476 386 476 386 311 549 c 0,44,45
 150 708 150 708 150 953 c 0,46,47
 150 1197 150 1197 308 1362 c 0,48,49
 469 1530 469 1530 701 1530 c 0,34,35
619 944 m 2,50,51
 619 902 619 902 650 880 c 0,52,53
 679 859 679 859 715 859 c 0,54,55
 792 859 792 859 839 930 c 0,56,57
 875 985 875 985 875 1068 c 0,58,59
 875 1153 875 1153 831 1214.5 c 128,-1,60
 787 1276 787 1276 715 1276 c 0,61,62
 674 1276 674 1276 654 1259 c 0,63,64
 619 1229 619 1229 619 1191 c 2,65,-1
 619 944 l 2,50,51
414 557 m 1,66,67
 532 459 532 459 701 459 c 0,68,69
 857 459 857 459 983 557 c 1,70,-1
 779 557 l 1,71,-1
 779 573 l 1,72,73
 825 584 825 584 825 633 c 0,74,75
 825 663 825 663 808 706 c 0,76,77
 770 802 770 802 718 802 c 0,78,79
 661 802 661 802 619 821 c 1,80,-1
 619 688 l 2,81,82
 619 595 619 595 704 573 c 1,83,-1
 704 557 l 1,84,-1
 414 557 l 1,66,67
EndSplineSet
Validated: 1
EndChar

StartChar: macron
Encoding: 175 175 103
Width: 650
GlyphClass: 2
Flags: W
HStem: 1246 130<124 526>
VStem: 50 550
LayerCount: 2
Fore
SplineSet
124 1376 m 1,0,-1
 600 1376 l 1,1,-1
 526 1246 l 1,2,-1
 50 1246 l 1,3,-1
 124 1376 l 1,0,-1
EndSplineSet
Validated: 1
EndChar

StartChar: degree
Encoding: 176 176 104
Width: 558
GlyphClass: 2
Flags: W
HStem: 1079 83<205.039 352.568> 1498 82<206.427 351.831>
VStem: 50 123<1200.11 1459.61> 385 123<1200.36 1460.1>
LayerCount: 2
Fore
SplineSet
278 1580 m 128,-1,1
 364 1580 364 1580 431 1521 c 0,2,3
 508 1453 508 1453 508 1330 c 0,4,5
 508 1209 508 1209 431 1139 c 0,6,7
 364 1079 364 1079 278.5 1079 c 128,-1,8
 193 1079 193 1079 127 1139 c 0,9,10
 50 1208 50 1208 50 1329.5 c 128,-1,11
 50 1451 50 1451 127 1521 c 0,12,0
 192 1580 192 1580 278 1580 c 128,-1,1
279 1498 m 0,13,14
 233 1498 233 1498 201 1451 c 0,15,16
 173 1410 173 1410 173 1330 c 128,-1,17
 173 1250 173 1250 201 1209 c 0,18,19
 233 1162 233 1162 280 1162 c 0,20,21
 325 1162 325 1162 357 1209 c 0,22,23
 385 1250 385 1250 385 1330 c 0,24,25
 385 1411 385 1411 357 1451 c 0,26,27
 323 1498 323 1498 279 1498 c 0,13,14
EndSplineSet
Validated: 1
EndChar

StartChar: plusminus
Encoding: 177 177 105
Width: 1318
GlyphClass: 2
Flags: W
HStem: 256 150<285 1033> 808 150<285 584 734 1033>
VStem: 584 150<509 808 958 1257>
LayerCount: 2
Fore
SplineSet
734 1342 m 1,0,-1
 734 958 l 1,1,-1
 1118 958 l 1,2,-1
 1033 808 l 1,3,-1
 734 808 l 1,4,-1
 734 509 l 1,5,-1
 584 424 l 1,6,-1
 584 808 l 1,7,-1
 200 808 l 1,8,-1
 285 958 l 1,9,-1
 584 958 l 1,10,-1
 584 1257 l 1,11,-1
 734 1342 l 1,0,-1
285 406 m 1,12,-1
 1118 406 l 1,13,-1
 1033 256 l 1,14,-1
 200 256 l 1,15,-1
 285 406 l 1,12,-1
EndSplineSet
Validated: 1
EndChar

StartChar: uni00B2
Encoding: 178 178 106
Width: 664
VWidth: 1401
GlyphClass: 2
Flags: W
HStem: 796 130<250.936 534.772> 841 120<145.001 449.309> 1524 56<215.486 377.669>
VStem: 76 16<1313 1334.78> 428 156<1239.35 1472.73>
LayerCount: 2
Fore
SplineSet
303 1580 m 0,0,1
 438 1580 438 1580 510 1520 c 0,2,3
 584 1459 584 1459 584 1365 c 0,4,5
 584 1232 584 1232 462 1158 c 128,-1,6
 340 1084 340 1084 289 1037 c 128,-1,7
 238 990 238 990 202 937 c 1,8,9
 252 961 252 961 298 961 c 0,10,11
 326 961 326 961 354 951 c 0,12,13
 424 926 424 926 490 926 c 0,14,15
 550 926 550 926 598 973 c 1,16,-1
 614 973 l 1,17,18
 556 796 556 796 412 796 c 0,19,20
 370 796 370 796 304 819 c 0,21,22
 240 841 240 841 196 841 c 0,23,24
 108 841 108 841 64 796 c 1,25,-1
 50 796 l 1,26,27
 88 941 88 941 164 1029 c 128,-1,28
 240 1117 240 1117 334 1190 c 128,-1,29
 428 1263 428 1263 428 1364 c 0,30,31
 428 1421 428 1421 408 1457 c 0,32,33
 372 1524 372 1524 302 1524 c 0,34,35
 230 1524 230 1524 176 1461 c 0,36,37
 122 1402 122 1402 92 1313 c 1,38,-1
 76 1313 l 1,39,-1
 76 1485 l 1,40,41
 169 1580 169 1580 303 1580 c 0,0,1
EndSplineSet
Validated: 1
EndChar

StartChar: uni00B3
Encoding: 179 179 107
Width: 606
VWidth: 1401
GlyphClass: 2
Flags: W
HStem: 798 56<162.112 333.637> 1524 56<177.275 323.62>
VStem: 50 14<997.436 1011> 94 16<1391 1413.34> 354 138<1299.36 1500.79> 406 150<908.614 1174.25>
LayerCount: 2
Fore
SplineSet
271 1580 m 128,-1,1
 374 1580 374 1580 432 1534 c 0,2,3
 492 1488 492 1488 492 1399 c 128,-1,4
 492 1310 492 1310 388 1260 c 1,5,6
 440 1246 440 1246 478 1216 c 0,7,8
 556 1153 556 1153 556 1043.5 c 128,-1,9
 556 934 556 934 474 866 c 0,10,11
 390 798 390 798 266 798 c 0,12,13
 132 798 132 798 50 855 c 1,14,-1
 50 1011 l 1,15,-1
 64 1011 l 1,16,17
 86 962 86 962 116 924 c 0,18,19
 174 854 174 854 250 854 c 0,20,21
 317 854 317 854 361.5 908 c 144,-1,22
 406 962 406 962 406 1050 c 128,-1,23
 406 1138 406 1138 354 1181 c 0,24,25
 296 1227 296 1227 220 1235 c 1,26,-1
 220 1249 l 1,27,28
 284 1265 284 1265 319 1306 c 128,-1,29
 354 1347 354 1347 354 1404 c 128,-1,30
 354 1461 354 1461 328 1492.5 c 128,-1,31
 302 1524 302 1524 262 1524 c 0,32,33
 206 1524 206 1524 168 1489 c 0,34,35
 128 1453 128 1453 110 1391 c 1,36,-1
 94 1391 l 1,37,-1
 94 1525 l 1,38,0
 168 1580 168 1580 271 1580 c 128,-1,1
EndSplineSet
Validated: 1
EndChar

StartChar: acute
Encoding: 180 180 108
Width: 436
GlyphClass: 2
Flags: W
HStem: 1160 324
VStem: 50 336
LayerCount: 2
Fore
SplineSet
293 1484 m 0,0,1
 336 1484 336 1484 361 1456 c 128,-1,2
 386 1428 386 1428 386 1391 c 0,3,4
 386 1340 386 1340 343 1316 c 2,5,6
 66 1160 l 1,7,-1
 50 1178 l 1,8,-1
 212 1439 l 2,9,10
 240 1484 240 1484 293 1484 c 0,0,1
EndSplineSet
Validated: 1
EndChar

StartChar: uni00B5
Encoding: 181 181 109
Width: 1335
GlyphClass: 2
Flags: W
HStem: -430 21G<346 512> -20 91<547.223 857.697> 1100 20G<273.5 365 996.5 1085>
VStem: 180 185<-233.479 113 288.431 946.5> 905 180<160.5 946.5>
LayerCount: 2
Fore
SplineSet
784 -20 m 0,0,1
 524 -20 524 -20 360 113 c 1,2,-1
 360 0 l 2,3,4
 360 -342 360 -342 512 -415 c 1,5,-1
 512 -430 l 1,6,7
 180 -388 180 -388 180 0 c 2,8,-1
 180 854 l 2,9,10
 180 965 180 965 10 1002 c 1,11,-1
 10 1016 l 1,12,13
 182 1098 182 1098 365 1120 c 1,14,-1
 365 550 l 2,15,16
 365 352 365 352 439 225 c 0,17,18
 529 71 529 71 724 71 c 0,19,20
 905 71 905 71 905 252 c 2,21,-1
 905 854 l 2,22,23
 905 965 905 965 735 1002 c 1,24,-1
 735 1016 l 1,25,26
 908 1099 908 1099 1085 1120 c 1,27,-1
 1085 253 l 2,28,29
 1085 142 1085 142 1255 105 c 1,30,-1
 1255 91 l 1,31,32
 1023 -20 1023 -20 784 -20 c 0,0,1
EndSplineSet
Validated: 1
EndChar

StartChar: paragraph
Encoding: 182 182 110
Width: 1072
GlyphClass: 2
Flags: W
HStem: 0 15<452 472.586 971.414 992>
VStem: 120 573<958.618 1247.79> 622 71<106.79 764> 753 69<111.188 1253>
LayerCount: 2
Fore
SplineSet
452 0 m 1,0,-1
 452 15 l 1,1,2
 622 59 622 59 622 249 c 2,3,-1
 622 764 l 1,4,5
 578 760 578 760 542 760 c 0,6,7
 389 760 389 760 282 831 c 0,8,9
 120 939 120 939 120 1145 c 0,10,11
 120 1338 120 1338 281 1458 c 0,12,13
 377 1530 377 1530 541 1530 c 0,14,15
 747 1530 747 1530 992 1415 c 1,16,-1
 992 1401 l 1,17,18
 822 1348 822 1348 822 1253 c 2,19,-1
 822 249 l 18,20,21
 822 60 822 60 992 15 c 1,22,-1
 992 0 l 1,23,-1
 753 0 l 1,24,-1
 753 1253 l 1,25,-1
 693 1253 l 1,26,-1
 693 0 l 1,27,-1
 452 0 l 1,0,-1
EndSplineSet
Validated: 1
EndChar

StartChar: periodcentered
Encoding: 183 183 111
Width: 359
GlyphClass: 2
Flags: W
HStem: 625 264<89.1914 270.324>
VStem: 50 259<664.707 849.293>
LayerCount: 2
Fore
SplineSet
180 889 m 128,-1,1
 234 889 234 889 271.5 850.5 c 128,-1,2
 309 812 309 812 309 757 c 128,-1,3
 309 702 309 702 271.5 663.5 c 128,-1,4
 234 625 234 625 180 625 c 128,-1,5
 126 625 126 625 88 663.5 c 128,-1,6
 50 702 50 702 50 757 c 128,-1,7
 50 812 50 812 88 850.5 c 128,-1,0
 126 889 126 889 180 889 c 128,-1,1
EndSplineSet
Validated: 1
EndChar

StartChar: cedilla
Encoding: 184 184 112
Width: 364
GlyphClass: 2
Flags: W
HStem: -430 138<109.144 158.927> -107 107<58 138>
VStem: 58 80<-49.158 0> 191 123<-268.876 -128.728>
LayerCount: 2
Fore
SplineSet
58 0 m 1,0,-1
 138 0 l 1,1,-1
 138 -39 l 1,2,3
 195 -49 195 -49 240 -82 c 0,4,5
 314 -136 314 -136 314 -219 c 0,6,7
 314 -304 314 -304 263 -356 c 0,8,9
 202 -416 202 -416 116 -430 c 1,10,-1
 50 -292 l 1,11,12
 126 -292 126 -292 160 -265 c 0,13,14
 191 -240 191 -240 191 -198 c 0,15,16
 191 -158 191 -158 153 -130 c 0,17,18
 121 -107 121 -107 58 -107 c 1,19,-1
 58 0 l 1,0,-1
EndSplineSet
Validated: 1
EndChar

StartChar: uni00B9
Encoding: 185 185 113
Width: 410
VWidth: 1411
GlyphClass: 2
Flags: W
HStem: 804 15<50 69.9219 340.078 360>
VStem: 135 140<838.283 1403.6>
LayerCount: 2
Fore
SplineSet
260 1590 m 1,0,-1
 275 1590 l 1,1,-1
 275 935 l 2,2,3
 275 843 275 843 360 819 c 1,4,-1
 360 804 l 1,5,-1
 50 804 l 1,6,-1
 50 819 l 1,7,8
 135 844 135 844 135 935 c 2,9,-1
 135 1307 l 2,10,11
 135 1399 135 1399 50 1422 c 1,12,-1
 50 1433 l 1,13,14
 183 1488 183 1488 260 1590 c 1,0,-1
EndSplineSet
Validated: 1
EndChar

StartChar: ordmasculine
Encoding: 186 186 114
Width: 660
GlyphClass: 2
Flags: W
HStem: 816 130<124 536> 1002 56<262.124 400.19> 1525 55<261.24 398.651>
VStem: 50 144<1124.99 1458.47> 466 144<1124.06 1460.78>
LayerCount: 2
Fore
SplineSet
124 946 m 1,0,-1
 610 946 l 1,1,-1
 536 816 l 1,2,-1
 50 816 l 1,3,-1
 124 946 l 1,0,-1
332 1580 m 128,-1,5
 444 1580 444 1580 527 1505 c 128,-1,6
 610 1430 610 1430 610 1291.5 c 128,-1,7
 610 1153 610 1153 526 1077.5 c 128,-1,8
 442 1002 442 1002 330 1002 c 128,-1,9
 218 1002 218 1002 134 1078 c 128,-1,10
 50 1154 50 1154 50 1292.5 c 128,-1,11
 50 1431 50 1431 135 1505.5 c 128,-1,4
 220 1580 220 1580 332 1580 c 128,-1,5
331 1525 m 128,-1,13
 276 1525 276 1525 236 1470 c 24,14,15
 194 1411 194 1411 194 1291 c 0,16,17
 195 1172 195 1172 235 1115 c 128,-1,18
 275 1058 275 1058 330.5 1058 c 128,-1,19
 386 1058 386 1058 424 1113 c 0,20,21
 466 1176 466 1176 466 1292 c 128,-1,22
 466 1408 466 1408 426 1466.5 c 128,-1,12
 386 1525 386 1525 331 1525 c 128,-1,13
EndSplineSet
Validated: 1
EndChar

StartChar: guillemotright
Encoding: 187 187 115
Width: 1223
GlyphClass: 2
Flags: W
DStem2: 336 1302 200 1199 0.577331 -0.81651<5.58361 571.219> 223 285 305 235 0.554364 0.832274<3.84418 550.816> 723 1302 587 1199 0.577331 -0.81651<5.58361 571.219> 610 285 692 235 0.554364 0.832274<3.84418 550.816>
LayerCount: 2
Fore
SplineSet
336 1302 m 1,0,-1
 686 807 l 1,1,-1
 305 235 l 1,2,-1
 223 285 l 1,3,-1
 532 741 l 1,4,-1
 200 1199 l 1,5,-1
 336 1302 l 1,0,-1
723 1302 m 1,6,-1
 1073 807 l 1,7,-1
 692 235 l 1,8,-1
 610 285 l 1,9,-1
 919 741 l 1,10,-1
 587 1199 l 1,11,-1
 723 1302 l 1,6,-1
EndSplineSet
Validated: 1
EndChar

StartChar: onequarter
Encoding: 188 188 116
Width: 1519
VWidth: 1411
GlyphClass: 2
Flags: W
HStem: 0 15<1056 1078.23 1346.08 1366> 180 56<892 1141 1281 1338> 764 15<150 169.922 440.078 460>
VStem: 235 140<798.283 1363.6> 1141 140<33.3955 180 236 542>
DStem2: 204 34 335 -40 0.522628 0.852561<5.37472 1778.53> 780 194 892 236 0.635296 0.772269<103.588 498.091>
LayerCount: 2
Fore
SplineSet
360 1550 m 1,0,-1
 375 1550 l 1,1,-1
 375 895 l 2,2,3
 375 803 375 803 460 779 c 1,4,-1
 460 764 l 1,5,-1
 150 764 l 1,6,-1
 150 779 l 1,7,8
 235 804 235 804 235 895 c 2,9,-1
 235 1267 l 2,10,11
 235 1359 235 1359 150 1382 c 1,12,-1
 150 1393 l 1,13,14
 283 1448 283 1448 360 1550 c 1,0,-1
1134 1550 m 1,15,-1
 1268 1482 l 1,16,-1
 335 -40 l 1,17,-1
 204 34 l 1,18,-1
 1134 1550 l 1,15,-1
1056 0 m 1,19,-1
 1056 15 l 1,20,21
 1141 33 1141 33 1141 130 c 2,22,-1
 1141 180 l 1,23,-1
 780 180 l 1,24,-1
 780 194 l 1,25,-1
 1267 786 l 1,26,-1
 1281 786 l 1,27,-1
 1281 236 l 1,28,-1
 1369 236 l 1,29,-1
 1338 180 l 1,30,-1
 1281 180 l 1,31,-1
 1281 130 l 2,32,33
 1281 38 1281 38 1366 15 c 1,34,-1
 1366 0 l 1,35,-1
 1056 0 l 1,19,-1
1141 236 m 1,36,-1
 1141 542 l 1,37,-1
 892 236 l 1,38,-1
 1141 236 l 1,36,-1
EndSplineSet
Validated: 1
EndChar

StartChar: onehalf
Encoding: 189 189 117
Width: 1648
VWidth: 1411
GlyphClass: 2
Flags: W
HStem: -10 130<1134.94 1418.77> 35 120<1029 1333.31> 718 56<1099.49 1261.67> 764 15<150 169.922 440.078 460>
VStem: 235 140<798.283 1363.6> 960 16<507 528.781> 1312 156<433.349 666.732>
DStem2: 204 34 335 -40 0.522628 0.852561<5.37472 1778.53>
LayerCount: 2
Fore
SplineSet
1187 774 m 0,0,1
 1322 774 1322 774 1394 714 c 0,2,3
 1468 653 1468 653 1468 559 c 0,4,5
 1468 426 1468 426 1346 352 c 128,-1,6
 1224 278 1224 278 1173 231 c 128,-1,7
 1122 184 1122 184 1086 131 c 1,8,9
 1136 155 1136 155 1182 155 c 0,10,11
 1210 155 1210 155 1238 145 c 0,12,13
 1308 120 1308 120 1374 120 c 0,14,15
 1434 120 1434 120 1482 167 c 1,16,-1
 1498 167 l 1,17,18
 1440 -10 1440 -10 1296 -10 c 0,19,20
 1254 -10 1254 -10 1188 13 c 0,21,22
 1124 35 1124 35 1080 35 c 0,23,24
 992 35 992 35 948 -10 c 1,25,-1
 934 -10 l 1,26,27
 972 135 972 135 1048 223 c 128,-1,28
 1124 311 1124 311 1218 384 c 128,-1,29
 1312 457 1312 457 1312 558 c 0,30,31
 1312 615 1312 615 1292 651 c 0,32,33
 1256 718 1256 718 1186 718 c 0,34,35
 1114 718 1114 718 1060 655 c 0,36,37
 1006 596 1006 596 976 507 c 1,38,-1
 960 507 l 1,39,-1
 960 679 l 1,40,41
 1053 774 1053 774 1187 774 c 0,0,1
360 1550 m 1,42,-1
 375 1550 l 1,43,-1
 375 895 l 2,44,45
 375 803 375 803 460 779 c 1,46,-1
 460 764 l 1,47,-1
 150 764 l 1,48,-1
 150 779 l 1,49,50
 235 804 235 804 235 895 c 2,51,-1
 235 1267 l 2,52,53
 235 1359 235 1359 150 1382 c 1,54,-1
 150 1393 l 1,55,56
 283 1448 283 1448 360 1550 c 1,42,-1
1134 1550 m 1,57,-1
 1268 1482 l 1,58,-1
 335 -40 l 1,59,-1
 204 34 l 1,60,-1
 1134 1550 l 1,57,-1
EndSplineSet
Validated: 1
EndChar

StartChar: threequarters
Encoding: 190 190 118
Width: 1639
VWidth: 1411
GlyphClass: 2
Flags: W
HStem: 0 15<1176 1198.23 1466.08 1486> 180 56<1012 1261 1401 1458> 758 56<262.112 433.637> 1484 56<277.275 423.62>
VStem: 150 14<957.436 971> 194 16<1351 1373.34> 454 138<1259.36 1460.79> 506 150<868.614 1134.25> 1261 140<33.3955 180 236 542>
DStem2: 324 34 455 -40 0.522628 0.852561<5.37472 1778.53> 900 194 1012 236 0.635296 0.772269<103.588 498.091>
LayerCount: 2
Fore
SplineSet
371 1540 m 128,-1,1
 474 1540 474 1540 532 1494 c 0,2,3
 592 1448 592 1448 592 1359 c 128,-1,4
 592 1270 592 1270 488 1220 c 1,5,6
 540 1206 540 1206 578 1176 c 0,7,8
 656 1113 656 1113 656 1003.5 c 128,-1,9
 656 894 656 894 574 826 c 0,10,11
 490 758 490 758 366 758 c 0,12,13
 232 758 232 758 150 815 c 1,14,-1
 150 971 l 1,15,-1
 164 971 l 1,16,17
 186 922 186 922 216 884 c 0,18,19
 274 814 274 814 350 814 c 0,20,21
 417 814 417 814 461.5 868 c 144,-1,22
 506 922 506 922 506 1010 c 128,-1,23
 506 1098 506 1098 454 1141 c 0,24,25
 396 1187 396 1187 320 1195 c 1,26,-1
 320 1209 l 1,27,28
 384 1225 384 1225 419 1266 c 128,-1,29
 454 1307 454 1307 454 1364 c 128,-1,30
 454 1421 454 1421 428 1452.5 c 128,-1,31
 402 1484 402 1484 362 1484 c 0,32,33
 306 1484 306 1484 268 1449 c 0,34,35
 228 1413 228 1413 210 1351 c 1,36,-1
 194 1351 l 1,37,-1
 194 1485 l 1,38,0
 268 1540 268 1540 371 1540 c 128,-1,1
1254 1550 m 1,39,-1
 1388 1482 l 1,40,-1
 455 -40 l 1,41,-1
 324 34 l 1,42,-1
 1254 1550 l 1,39,-1
1176 0 m 1,43,-1
 1176 15 l 1,44,45
 1261 33 1261 33 1261 130 c 2,46,-1
 1261 180 l 1,47,-1
 900 180 l 1,48,-1
 900 194 l 1,49,-1
 1387 786 l 1,50,-1
 1401 786 l 1,51,-1
 1401 236 l 1,52,-1
 1489 236 l 1,53,-1
 1458 180 l 1,54,-1
 1401 180 l 1,55,-1
 1401 130 l 2,56,57
 1401 38 1401 38 1486 15 c 1,58,-1
 1486 0 l 1,59,-1
 1176 0 l 1,43,-1
1261 236 m 1,60,-1
 1261 542 l 1,61,-1
 1012 236 l 1,62,-1
 1261 236 l 1,60,-1
EndSplineSet
Validated: 1
EndChar

StartChar: questiondown
Encoding: 191 191 119
Width: 1235
GlyphClass: 2
Flags: W
HStem: -430 92<511.442 828.586> 856 264<598.676 779.809>
VStem: 150 235<-192.688 174.847> 560 259<895.707 1080.29> 640 108<608.062 780> 1070 15<58.8096 86>
LayerCount: 2
Fore
SplineSet
640 -430 m 0,0,1
 432 -430 432 -430 297 -317 c 0,2,3
 150 -194 150 -194 150 -7 c 0,4,5
 150 205 150 205 349 365 c 2,6,-1
 473 465 l 2,7,8
 640 600 640 600 640 780 c 1,9,-1
 748 780 l 1,10,11
 748 530 748 530 562 340 c 2,12,-1
 519 296 l 2,13,14
 385 159 385 159 385 -7 c 0,15,16
 385 -121 385 -121 424 -193 c 0,17,18
 502 -338 502 -338 662 -338 c 0,19,20
 835 -338 835 -338 945 -185 c 0,21,22
 1035 -60 1035 -60 1070 86 c 1,23,-1
 1085 86 l 1,24,-1
 1085 -246 l 1,25,26
 910 -430 910 -430 640 -430 c 0,0,1
689 1120 m 128,-1,28
 743 1120 743 1120 781 1081.5 c 128,-1,29
 819 1043 819 1043 819 988 c 128,-1,30
 819 933 819 933 781 894.5 c 128,-1,31
 743 856 743 856 689 856 c 128,-1,32
 635 856 635 856 597.5 894.5 c 128,-1,33
 560 933 560 933 560 988 c 128,-1,34
 560 1043 560 1043 597.5 1081.5 c 128,-1,27
 635 1120 635 1120 689 1120 c 128,-1,28
EndSplineSet
Validated: 1
EndChar

StartChar: endash
Encoding: 8211 8211 120
Width: 1218
GlyphClass: 2
Flags: W
HStem: 680 150<235 983>
LayerCount: 2
Fore
SplineSet
235 830 m 1,0,-1
 1068 830 l 1,1,-1
 983 680 l 1,2,-1
 150 680 l 1,3,-1
 235 830 l 1,0,-1
EndSplineSet
Validated: 1
EndChar

StartChar: emdash
Encoding: 8212 8212 121
Width: 1533
GlyphClass: 2
Flags: W
HStem: 680 150<235 1298>
LayerCount: 2
Fore
SplineSet
235 830 m 1,0,-1
 1383 830 l 1,1,-1
 1298 680 l 1,2,-1
 150 680 l 1,3,-1
 235 830 l 1,0,-1
EndSplineSet
Validated: 1
EndChar

StartChar: afii00208
Encoding: 8213 8213 122
Width: 1533
GlyphClass: 2
Flags: W
HStem: 680 150<235 1298>
LayerCount: 2
Fore
SplineSet
235 830 m 1,0,-1
 1383 830 l 1,1,-1
 1298 680 l 1,2,-1
 150 680 l 1,3,-1
 235 830 l 1,0,-1
EndSplineSet
Validated: 1
EndChar

StartChar: quoteleft
Encoding: 8216 8216 123
Width: 401
GlyphClass: 2
Flags: W
HStem: 1136 444
VStem: 50 266<1176.87 1344.87>
LayerCount: 2
Fore
SplineSet
351 1580 m 1,0,-1
 351 1567 l 1,1,2
 273 1523 273 1523 225 1456 c 0,3,4
 201 1422 201 1422 187 1377 c 1,5,6
 251 1377 251 1377 281 1346 c 0,7,8
 316 1310 316 1310 316 1260 c 0,9,10
 316 1208 316 1208 280 1171 c 0,11,12
 245 1136 245 1136 190 1136 c 0,13,14
 138 1136 138 1136 101 1170 c 0,15,16
 50 1218 50 1218 50 1290 c 128,-1,17
 50 1362 50 1362 95 1435 c 0,18,19
 154 1531 154 1531 264 1568 c 0,20,21
 300 1580 300 1580 351 1580 c 1,0,-1
EndSplineSet
Validated: 1
EndChar

StartChar: quoteright
Encoding: 8217 8217 124
Width: 401
GlyphClass: 2
Flags: W
HStem: 1136 444
VStem: 85 266<1371.13 1539.13>
LayerCount: 2
Fore
SplineSet
211 1580 m 0,0,1
 263 1580 263 1580 300 1546 c 0,2,3
 351 1498 351 1498 351 1426 c 128,-1,4
 351 1354 351 1354 306 1281 c 0,5,6
 247 1185 247 1185 137 1148 c 0,7,8
 101 1136 101 1136 50 1136 c 1,9,-1
 50 1149 l 1,10,11
 128 1193 128 1193 176 1260 c 0,12,13
 200 1294 200 1294 214 1339 c 1,14,15
 150 1339 150 1339 120 1370 c 0,16,17
 85 1406 85 1406 85 1456 c 0,18,19
 85 1508 85 1508 121 1545 c 0,20,21
 156 1580 156 1580 211 1580 c 0,0,1
EndSplineSet
Validated: 1
EndChar

StartChar: quotesinglbase
Encoding: 8218 8218 125
Width: 368
GlyphClass: 2
Flags: W
HStem: -221 444
VStem: 52 266<14.1284 182.127>
LayerCount: 2
Fore
SplineSet
17 -221 m 1,0,-1
 17 -208 l 1,1,2
 95 -164 95 -164 143 -97 c 0,3,4
 167 -63 167 -63 181 -18 c 1,5,6
 117 -18 117 -18 87 13 c 0,7,8
 52 49 52 49 52 99 c 0,9,10
 52 151 52 151 88 188 c 0,11,12
 123 223 123 223 178 223 c 0,13,14
 230 223 230 223 267 189 c 0,15,16
 318 141 318 141 318 69 c 128,-1,17
 318 -3 318 -3 273 -76 c 0,18,19
 214 -172 214 -172 104 -209 c 0,20,21
 68 -221 68 -221 17 -221 c 1,0,-1
EndSplineSet
Validated: 1
EndChar

StartChar: quotereversed
Encoding: 8219 8219 126
Width: 401
GlyphClass: 2
Flags: W
HStem: 1136 444
VStem: 50 266<1371.13 1539.13>
LayerCount: 2
Fore
SplineSet
190 1580 m 0,0,1
 245 1580 245 1580 280 1545 c 0,2,3
 316 1508 316 1508 316 1456 c 0,4,5
 316 1406 316 1406 281 1370 c 0,6,7
 251 1339 251 1339 187 1339 c 1,8,9
 201 1294 201 1294 225 1260 c 0,10,11
 273 1193 273 1193 351 1149 c 1,12,-1
 351 1136 l 1,13,14
 300 1136 300 1136 264 1148 c 0,15,16
 154 1185 154 1185 95 1281 c 0,17,18
 50 1354 50 1354 50 1426 c 128,-1,19
 50 1498 50 1498 101 1546 c 0,20,21
 138 1580 138 1580 190 1580 c 0,0,1
EndSplineSet
Validated: 1
EndChar

StartChar: quotedblleft
Encoding: 8220 8220 127
Width: 685
GlyphClass: 2
Flags: W
HStem: 1136 241<188.379 278.901 505.379 595.901>
VStem: 50 266<1176.87 1344.87> 367 266<1176.87 1344.87>
LayerCount: 2
Fore
SplineSet
351 1580 m 1,0,-1
 351 1567 l 1,1,2
 273 1523 273 1523 225 1456 c 0,3,4
 201 1422 201 1422 187 1377 c 1,5,6
 251 1377 251 1377 281 1346 c 0,7,8
 316 1310 316 1310 316 1260 c 0,9,10
 316 1208 316 1208 280 1171 c 0,11,12
 245 1136 245 1136 190 1136 c 0,13,14
 138 1136 138 1136 101 1170 c 0,15,16
 50 1218 50 1218 50 1290 c 128,-1,17
 50 1362 50 1362 95 1435 c 0,18,19
 154 1531 154 1531 264 1568 c 0,20,21
 300 1580 300 1580 351 1580 c 1,0,-1
668 1580 m 1,22,-1
 668 1567 l 1,23,24
 590 1523 590 1523 542 1456 c 0,25,26
 518 1422 518 1422 504 1377 c 1,27,28
 568 1377 568 1377 598 1346 c 0,29,30
 633 1310 633 1310 633 1260 c 0,31,32
 633 1208 633 1208 597 1171 c 0,33,34
 562 1136 562 1136 507 1136 c 0,35,36
 455 1136 455 1136 418 1170 c 0,37,38
 367 1218 367 1218 367 1290 c 128,-1,39
 367 1362 367 1362 412 1435 c 0,40,41
 471 1531 471 1531 581 1568 c 0,42,43
 617 1580 617 1580 668 1580 c 1,22,-1
EndSplineSet
Validated: 1
EndChar

StartChar: quotedblright
Encoding: 8221 8221 128
Width: 685
GlyphClass: 2
Flags: W
HStem: 1339 241<89.0986 179.621 406.099 496.621>
VStem: 52 266<1371.13 1539.13> 369 266<1371.13 1539.13>
LayerCount: 2
Fore
SplineSet
334 1136 m 1,0,-1
 334 1149 l 1,1,2
 412 1193 412 1193 460 1260 c 0,3,4
 484 1294 484 1294 498 1339 c 1,5,6
 434 1339 434 1339 404 1370 c 0,7,8
 369 1406 369 1406 369 1456 c 0,9,10
 369 1508 369 1508 405 1545 c 0,11,12
 440 1580 440 1580 495 1580 c 0,13,14
 547 1580 547 1580 584 1546 c 0,15,16
 635 1498 635 1498 635 1426 c 128,-1,17
 635 1354 635 1354 590 1281 c 0,18,19
 531 1185 531 1185 421 1148 c 0,20,21
 385 1136 385 1136 334 1136 c 1,0,-1
17 1136 m 1,22,-1
 17 1149 l 1,23,24
 95 1193 95 1193 143 1260 c 0,25,26
 167 1294 167 1294 181 1339 c 1,27,28
 117 1339 117 1339 87 1370 c 0,29,30
 52 1406 52 1406 52 1456 c 0,31,32
 52 1508 52 1508 88 1545 c 0,33,34
 123 1580 123 1580 178 1580 c 0,35,36
 230 1580 230 1580 267 1546 c 0,37,38
 318 1498 318 1498 318 1426 c 128,-1,39
 318 1354 318 1354 273 1281 c 0,40,41
 214 1185 214 1185 104 1148 c 0,42,43
 68 1136 68 1136 17 1136 c 1,22,-1
EndSplineSet
Validated: 1
EndChar

StartChar: quotedblbase
Encoding: 8222 8222 129
Width: 685
GlyphClass: 2
Flags: W
HStem: -18 241<89.0986 179.621 406.099 496.621>
VStem: 52 266<14.1284 182.127> 369 266<14.1284 182.127>
LayerCount: 2
Fore
SplineSet
334 -221 m 1,0,-1
 334 -208 l 1,1,2
 412 -164 412 -164 460 -97 c 0,3,4
 484 -63 484 -63 498 -18 c 1,5,6
 434 -18 434 -18 404 13 c 0,7,8
 369 49 369 49 369 99 c 0,9,10
 369 151 369 151 405 188 c 0,11,12
 440 223 440 223 495 223 c 0,13,14
 547 223 547 223 584 189 c 0,15,16
 635 141 635 141 635 69 c 128,-1,17
 635 -3 635 -3 590 -76 c 0,18,19
 531 -172 531 -172 421 -209 c 0,20,21
 385 -221 385 -221 334 -221 c 1,0,-1
17 -221 m 1,22,-1
 17 -208 l 1,23,24
 95 -164 95 -164 143 -97 c 0,25,26
 167 -63 167 -63 181 -18 c 1,27,28
 117 -18 117 -18 87 13 c 0,29,30
 52 49 52 49 52 99 c 0,31,32
 52 151 52 151 88 188 c 0,33,34
 123 223 123 223 178 223 c 0,35,36
 230 223 230 223 267 189 c 0,37,38
 318 141 318 141 318 69 c 128,-1,39
 318 -3 318 -3 273 -76 c 0,40,41
 214 -172 214 -172 104 -209 c 0,42,43
 68 -221 68 -221 17 -221 c 1,22,-1
EndSplineSet
Validated: 1
EndChar

StartChar: dagger
Encoding: 8224 8224 130
Width: 1390
VWidth: 0
GlyphClass: 2
Flags: W
HStem: 935 100<430.616 645 745 959.384>
VStem: 645 100<240.616 935 1035 1269.38>
LayerCount: 2
Fore
SplineSet
690 -40 m 1,0,1
 637 105 637 105 491 159 c 1,2,-1
 491 169 l 1,3,4
 645 224 645 224 645 368 c 2,5,-1
 645 935 l 1,6,-1
 558 935 l 2,7,8
 415 935 415 935 359 781 c 1,9,-1
 349 781 l 1,10,11
 295 927 295 927 150 980 c 1,12,-1
 150 990 l 1,13,14
 295 1043 295 1043 349 1189 c 1,15,-1
 359 1189 l 1,16,17
 414 1035 414 1035 558 1035 c 2,18,-1
 645 1035 l 1,19,-1
 645 1142 l 2,20,21
 645 1285 645 1285 491 1341 c 1,22,-1
 491 1351 l 1,23,24
 637 1405 637 1405 690 1550 c 1,25,-1
 700 1550 l 1,26,27
 753 1405 753 1405 899 1351 c 1,28,-1
 899 1341 l 1,29,30
 745 1286 745 1286 745 1142 c 2,31,-1
 745 1035 l 1,32,-1
 832 1035 l 2,33,34
 975 1035 975 1035 1031 1189 c 1,35,-1
 1041 1189 l 1,36,37
 1095 1043 1095 1043 1240 990 c 1,38,-1
 1240 980 l 1,39,40
 1095 927 1095 927 1041 781 c 1,41,-1
 1031 781 l 1,42,43
 976 935 976 935 832 935 c 2,44,-1
 745 935 l 1,45,-1
 745 368 l 2,46,47
 745 225 745 225 899 169 c 1,48,-1
 899 159 l 1,49,50
 753 105 753 105 700 -40 c 1,51,-1
 690 -40 l 1,0,1
EndSplineSet
Validated: 19457
EndChar

StartChar: daggerdbl
Encoding: 8225 8225 131
Width: 1390
VWidth: 0
GlyphClass: 2
Flags: W
HStem: 475 100<430.616 645 745 959.384> 935 100<430.616 645 745 959.384>
VStem: 645 100<240.616 475 575 935 1035 1269.38>
LayerCount: 2
Fore
SplineSet
690 -40 m 1,0,1
 637 105 637 105 491 159 c 1,2,-1
 491 169 l 1,3,4
 645 224 645 224 645 368 c 2,5,-1
 645 475 l 1,6,-1
 558 475 l 2,7,8
 415 475 415 475 359 321 c 1,9,-1
 349 321 l 1,10,11
 295 467 295 467 150 520 c 1,12,-1
 150 530 l 1,13,14
 295 583 295 583 349 729 c 1,15,-1
 359 729 l 1,16,17
 414 575 414 575 558 575 c 2,18,-1
 645 575 l 1,19,-1
 645 935 l 1,20,-1
 558 935 l 2,21,22
 415 935 415 935 359 781 c 1,23,-1
 349 781 l 1,24,25
 295 927 295 927 150 980 c 1,26,-1
 150 990 l 1,27,28
 295 1043 295 1043 349 1189 c 1,29,-1
 359 1189 l 1,30,31
 414 1035 414 1035 558 1035 c 2,32,-1
 645 1035 l 1,33,-1
 645 1142 l 2,34,35
 645 1285 645 1285 491 1341 c 1,36,-1
 491 1351 l 1,37,38
 637 1405 637 1405 690 1550 c 1,39,-1
 700 1550 l 1,40,41
 753 1405 753 1405 899 1351 c 1,42,-1
 899 1341 l 1,43,44
 745 1286 745 1286 745 1142 c 2,45,-1
 745 1035 l 1,46,-1
 832 1035 l 2,47,48
 975 1035 975 1035 1031 1189 c 1,49,-1
 1041 1189 l 1,50,51
 1095 1043 1095 1043 1240 990 c 1,52,-1
 1240 980 l 1,53,54
 1095 927 1095 927 1041 781 c 1,55,-1
 1031 781 l 1,56,57
 976 935 976 935 832 935 c 2,58,-1
 745 935 l 1,59,-1
 745 575 l 1,60,-1
 832 575 l 2,61,62
 975 575 975 575 1031 729 c 1,63,-1
 1041 729 l 1,64,65
 1095 583 1095 583 1240 530 c 1,66,-1
 1240 520 l 1,67,68
 1095 467 1095 467 1041 321 c 1,69,-1
 1031 321 l 1,70,71
 976 475 976 475 832 475 c 2,72,-1
 745 475 l 1,73,-1
 745 368 l 2,74,75
 745 225 745 225 899 169 c 1,76,-1
 899 159 l 1,77,78
 753 105 753 105 700 -40 c 1,79,-1
 690 -40 l 1,0,1
EndSplineSet
Validated: 19457
EndChar

StartChar: bullet
Encoding: 8226 8226 132
Width: 880
GlyphClass: 2
Flags: W
HStem: 470 572<285.581 594.419>
VStem: 150 580<603.979 908.763>
LayerCount: 2
Fore
SplineSet
440 1042 m 128,-1,1
 560 1042 560 1042 645 958.5 c 128,-1,2
 730 875 730 875 730 756.5 c 128,-1,3
 730 638 730 638 645 554 c 128,-1,4
 560 470 560 470 440 470 c 128,-1,5
 320 470 320 470 235 554 c 128,-1,6
 150 638 150 638 150 756.5 c 128,-1,7
 150 875 150 875 235 958.5 c 128,-1,0
 320 1042 320 1042 440 1042 c 128,-1,1
EndSplineSet
Validated: 1
EndChar

StartChar: ellipsis
Encoding: 8230 8230 133
Width: 1125
GlyphClass: 2
Flags: W
HStem: -20 264<89.1914 270.324 472.191 653.324 855.191 1036.32>
VStem: 50 259<19.7072 204.293> 433 259<19.7072 204.293> 816 259<19.7072 204.293>
CounterMasks: 1 70
LayerCount: 2
Fore
SplineSet
946 -20 m 128,-1,1
 892 -20 892 -20 854 18.5 c 128,-1,2
 816 57 816 57 816 112 c 128,-1,3
 816 167 816 167 854 205.5 c 128,-1,4
 892 244 892 244 946 244 c 128,-1,5
 1000 244 1000 244 1037.5 205.5 c 128,-1,6
 1075 167 1075 167 1075 112 c 128,-1,7
 1075 57 1075 57 1037.5 18.5 c 128,-1,0
 1000 -20 1000 -20 946 -20 c 128,-1,1
563 -20 m 128,-1,9
 509 -20 509 -20 471 18.5 c 128,-1,10
 433 57 433 57 433 112 c 128,-1,11
 433 167 433 167 471 205.5 c 128,-1,12
 509 244 509 244 563 244 c 128,-1,13
 617 244 617 244 654.5 205.5 c 128,-1,14
 692 167 692 167 692 112 c 128,-1,15
 692 57 692 57 654.5 18.5 c 128,-1,8
 617 -20 617 -20 563 -20 c 128,-1,9
180 -20 m 128,-1,17
 126 -20 126 -20 88 18.5 c 128,-1,18
 50 57 50 57 50 112 c 128,-1,19
 50 167 50 167 88 205.5 c 128,-1,20
 126 244 126 244 180 244 c 128,-1,21
 234 244 234 244 271.5 205.5 c 128,-1,22
 309 167 309 167 309 112 c 128,-1,23
 309 57 309 57 271.5 18.5 c 128,-1,16
 234 -20 234 -20 180 -20 c 128,-1,17
EndSplineSet
Validated: 1
EndChar

StartChar: perthousand
Encoding: 8240 8240 134
Width: 2293
GlyphClass: 2
Flags: W
HStem: -20 84<1038.15 1214.05 1742.15 1918.05> 580 84<1037.96 1214.22 1741.96 1918.22> 846 84<375.152 551.055> 1446 84<374.959 551.22>
VStem: 150 164<1004.63 1372.63> 612 164<1003.39 1372.31> 813 164<138.632 506.625> 1275 164<137.39 506.315> 1517 164<138.632 506.625> 1979 164<137.39 506.315>
DStem2: 266 34 397 -40 0.522628 0.852561<5.37472 1778.53>
LayerCount: 2
Fore
SplineSet
1830 -20 m 128,-1,1
 1712 -20 1712 -20 1622 62 c 0,2,3
 1517 157 1517 157 1517 322.5 c 128,-1,4
 1517 488 1517 488 1622 582 c 0,5,6
 1712 664 1712 664 1830 664 c 128,-1,7
 1948 664 1948 664 2038 582 c 0,8,9
 2143 487 2143 487 2143 321.5 c 128,-1,10
 2143 156 2143 156 2038 62 c 0,11,0
 1948 -20 1948 -20 1830 -20 c 128,-1,1
1830.5 64 m 128,-1,13
 1896 64 1896 64 1940 134 c 0,14,15
 1979 197 1979 197 1979 322 c 128,-1,16
 1979 447 1979 447 1940 510 c 0,17,18
 1897 580 1897 580 1830 580 c 0,19,20
 1764 580 1764 580 1720 510 c 0,21,22
 1681 448 1681 448 1681 322 c 0,23,24
 1681 195 1681 195 1720 134 c 0,25,12
 1765 64 1765 64 1830.5 64 c 128,-1,13
1126 -20 m 128,-1,27
 1008 -20 1008 -20 918 62 c 0,28,29
 813 157 813 157 813 322.5 c 128,-1,30
 813 488 813 488 918 582 c 0,31,32
 1008 664 1008 664 1126 664 c 128,-1,33
 1244 664 1244 664 1334 582 c 0,34,35
 1439 487 1439 487 1439 321.5 c 128,-1,36
 1439 156 1439 156 1334 62 c 0,37,26
 1244 -20 1244 -20 1126 -20 c 128,-1,27
1126.5 64 m 128,-1,39
 1192 64 1192 64 1236 134 c 0,40,41
 1275 197 1275 197 1275 322 c 128,-1,42
 1275 447 1275 447 1236 510 c 0,43,44
 1193 580 1193 580 1126 580 c 0,45,46
 1060 580 1060 580 1016 510 c 0,47,48
 977 448 977 448 977 322 c 0,49,50
 977 195 977 195 1016 134 c 0,51,38
 1061 64 1061 64 1126.5 64 c 128,-1,39
463 1530 m 128,-1,53
 581 1530 581 1530 671 1448 c 0,54,55
 776 1353 776 1353 776 1187.5 c 128,-1,56
 776 1022 776 1022 671 928 c 0,57,58
 581 846 581 846 463 846 c 128,-1,59
 345 846 345 846 255 928 c 0,60,61
 150 1023 150 1023 150 1188.5 c 128,-1,62
 150 1354 150 1354 255 1448 c 0,63,52
 345 1530 345 1530 463 1530 c 128,-1,53
463 1446 m 0,64,65
 397 1446 397 1446 353 1376 c 0,66,67
 314 1314 314 1314 314 1188 c 0,68,69
 314 1061 314 1061 353 1000 c 0,70,71
 398 930 398 930 463.5 930 c 128,-1,72
 529 930 529 930 573 1000 c 0,73,74
 612 1063 612 1063 612 1188 c 128,-1,75
 612 1313 612 1313 573 1376 c 0,76,77
 530 1446 530 1446 463 1446 c 0,64,65
1196 1550 m 1,78,-1
 1330 1482 l 1,79,-1
 397 -40 l 1,80,-1
 266 34 l 1,81,-1
 1196 1550 l 1,78,-1
EndSplineSet
Validated: 1
EndChar

StartChar: minute
Encoding: 8242 8242 135
Width: 371
GlyphClass: 2
Flags: W
HStem: 1150 400
VStem: 50 271
LayerCount: 2
Fore
SplineSet
158 1550 m 1,0,-1
 321 1491 l 1,1,-1
 165 1150 l 1,2,-1
 50 1192 l 1,3,-1
 158 1550 l 1,0,-1
EndSplineSet
Validated: 1
EndChar

StartChar: second
Encoding: 8243 8243 136
Width: 608
GlyphClass: 2
Flags: W
HStem: 1150 400
VStem: 50 508
LayerCount: 2
Fore
SplineSet
395 1550 m 1,0,-1
 558 1491 l 1,1,-1
 402 1150 l 1,2,-1
 287 1192 l 1,3,-1
 395 1550 l 1,0,-1
158 1550 m 1,4,-1
 321 1491 l 1,5,-1
 165 1150 l 1,6,-1
 50 1192 l 1,7,-1
 158 1550 l 1,4,-1
EndSplineSet
Validated: 1
EndChar

StartChar: guilsinglleft
Encoding: 8249 8249 137
Width: 836
GlyphClass: 2
Flags: W
VStem: 150 486
DStem2: 304 796 150 730 0.577331 -0.81651<0 565.636> 150 730 304 796 0.554364 0.832274<140.302 687.274>
LayerCount: 2
Fore
SplineSet
531 1302 m 1,0,-1
 613 1252 l 1,1,-1
 304 796 l 1,2,-1
 636 338 l 1,3,-1
 500 235 l 1,4,-1
 150 730 l 1,5,-1
 531 1302 l 1,0,-1
EndSplineSet
Validated: 1
EndChar

StartChar: guilsinglright
Encoding: 8250 8250 138
Width: 836
GlyphClass: 2
Flags: W
VStem: 200 486
DStem2: 336 1302 200 1199 0.577331 -0.81651<5.58361 571.219> 223 285 305 235 0.554364 0.832274<3.84418 550.816>
LayerCount: 2
Fore
SplineSet
336 1302 m 1,0,-1
 686 807 l 1,1,-1
 305 235 l 1,2,-1
 223 285 l 1,3,-1
 532 741 l 1,4,-1
 200 1199 l 1,5,-1
 336 1302 l 1,0,-1
EndSplineSet
Validated: 1
EndChar

StartChar: fraction
Encoding: 8260 8260 139
Width: 1084
GlyphClass: 2
Flags: W
DStem2: 10 34 141 -40 0.522628 0.852561<5.37472 1778.53>
LayerCount: 2
Fore
SplineSet
940 1550 m 1,0,-1
 1074 1482 l 1,1,-1
 141 -40 l 1,2,-1
 10 34 l 1,3,-1
 940 1550 l 1,0,-1
EndSplineSet
Validated: 1
EndChar

StartChar: Euro
Encoding: 8364 8364 140
Width: 1592
GlyphClass: 2
Flags: W
HStem: -20 92<720.994 1113.13> 230 143<1249 1392> 607 90<102 202 443 930> 810 90<102 201 443 930> 1438 92<721.518 1097.44>
VStem: 200 234<463.194 607 697 810 900 1045.96> 1377 15<950 970.061 1503.33 1530>
LayerCount: 2
Fore
SplineSet
899 -20 m 0,0,1
 583 -20 583 -20 374 230 c 0,2,3
 242 387 242 387 210 607 c 1,4,-1
 50 607 l 1,5,-1
 102 697 l 1,6,-1
 202 697 l 1,7,8
 200 726 200 726 200 755 c 0,9,10
 200 783 200 783 201 810 c 1,11,-1
 50 810 l 1,12,-1
 102 900 l 1,13,-1
 210 900 l 1,14,15
 241 1124 241 1124 374 1280 c 0,16,17
 587 1530 587 1530 902 1530 c 0,18,19
 1032 1530 1032 1530 1128.5 1479 c 128,-1,20
 1225 1428 1225 1428 1276 1428 c 0,21,22
 1355 1428 1355 1428 1377 1530 c 1,23,-1
 1392 1530 l 1,24,-1
 1392 950 l 1,25,-1
 1377 950 l 1,26,27
 1317 1166 1317 1166 1213 1296 c 0,28,29
 1099 1438 1099 1438 902 1438 c 0,30,31
 662 1438 662 1438 532 1191 c 0,32,33
 463 1061 463 1061 443 900 c 1,34,-1
 980 900 l 1,35,-1
 930 810 l 1,36,-1
 435 810 l 1,37,38
 434 783 434 783 434 756 c 0,39,40
 434 726 434 726 435 697 c 1,41,-1
 980 697 l 1,42,-1
 930 607 l 1,43,-1
 443 607 l 1,44,45
 464 445 464 445 532 319 c 0,46,47
 667 72 667 72 901 72 c 0,48,49
 1206 72 1206 72 1392 373 c 1,50,-1
 1392 230 l 1,51,52
 1226 -20 1226 -20 899 -20 c 0,0,1
EndSplineSet
Validated: 19457
EndChar

StartChar: afii61248
Encoding: 8453 8453 141
Width: 1774
GlyphClass: 2
Flags: W
HStem: -20 56<1167.17 1338.83> 708 57<1164.01 1341.79> 745 56<441.569 663.217> 874 73<713 786> 1473 57<432.013 629.16>
VStem: 150 157<936.498 1337.65> 769 17<1229 1251.34 1507.66 1533> 882 157<171.498 572.655> 1467 157<171.498 572.655>
DStem2: 338 34 469 -40 0.522628 0.852561<5.37472 1778.53>
LayerCount: 2
Fore
SplineSet
1253 36 m 128,-1,1
 1350 36 1350 36 1418 155 c 0,2,3
 1467 241 1467 241 1467 370 c 0,4,5
 1467 496 1467 496 1418 589 c 24,6,7
 1355 708 1355 708 1253 708 c 128,-1,8
 1151 708 1151 708 1088 589 c 0,9,10
 1039 496 1039 496 1039 370 c 0,11,12
 1039 241 1039 241 1088 155 c 0,13,0
 1156 36 1156 36 1253 36 c 128,-1,1
1253 -20 m 128,-1,15
 1075 -20 1075 -20 969 108 c 0,16,17
 882 213 882 213 882 374 c 0,18,19
 882 534 882 534 969 636 c 0,20,21
 1078 765 1078 765 1253 765 c 0,22,23
 1427 765 1427 765 1537 636 c 0,24,25
 1624 534 1624 534 1624 374 c 0,26,27
 1624 213 1624 213 1537 108 c 0,28,14
 1431 -20 1431 -20 1253 -20 c 128,-1,15
1268 1550 m 1,29,-1
 1402 1482 l 1,30,-1
 469 -40 l 1,31,-1
 338 34 l 1,32,-1
 1268 1550 l 1,29,-1
521 1530 m 0,33,34
 596 1530 596 1530 643 1505 c 0,35,36
 695 1478 695 1478 716 1478 c 0,37,38
 758 1478 758 1478 769 1533 c 1,39,-1
 786 1533 l 1,40,-1
 786 1229 l 1,41,-1
 769 1229 l 1,42,43
 702 1473 702 1473 521 1473 c 0,44,45
 419 1473 419 1473 356 1354 c 24,46,47
 307 1261 307 1261 307 1135 c 0,48,49
 307 1006 307 1006 356 920 c 0,50,51
 424 801 424 801 548 801 c 0,52,53
 691 801 691 801 786 947 c 1,54,-1
 786 874 l 1,55,56
 699 745 699 745 531 745 c 0,57,58
 343 745 343 745 237 873 c 0,59,60
 150 978 150 978 150 1139 c 0,61,62
 150 1299 150 1299 237 1401 c 0,63,64
 346 1530 346 1530 521 1530 c 0,33,34
EndSplineSet
Validated: 1
EndChar

StartChar: afii61289
Encoding: 8467 8467 142
Width: 958
GlyphClass: 2
Flags: W
HStem: -20 136<458.002 574.715> 0 21G<50 263> 1510 20G<632 703>
VStem: 232 155<466 819.618> 655 153<1042.58 1357.48>
LayerCount: 2
Fore
SplineSet
387 466 m 1,0,1
 498 708 498 708 554 860 c 0,2,3
 655 1134 655 1134 655 1359 c 1,4,5
 563 1238 563 1238 503 1067 c 0,6,7
 387 740 387 740 387 466 c 1,0,1
50 0 m 1,8,9
 171 158 171 158 244 282 c 1,10,11
 232 366 232 366 232 443 c 0,12,13
 232 629 232 629 279 848 c 0,14,15
 367 1251 367 1251 517 1434 c 0,16,17
 595 1530 595 1530 669 1530 c 0,18,19
 737 1530 737 1530 772 1479 c 0,20,21
 808 1429 808 1429 808 1318 c 0,22,23
 808 1226 808 1226 778 1072 c 0,24,25
 708 722 708 722 422 271 c 1,26,27
 454 116 454 116 511 116 c 0,28,29
 535 116 535 116 562.5 145 c 128,-1,30
 590 174 590 174 616 228 c 1,31,-1
 792 228 l 1,32,33
 715 100 715 100 650.5 40 c 128,-1,34
 586 -20 586 -20 502 -20 c 0,35,36
 382 -20 382 -20 305 90 c 1,37,-1
 251 0 l 1,38,-1
 50 0 l 1,8,9
EndSplineSet
Validated: 1
EndChar

StartChar: trademark
Encoding: 8482 8482 143
Width: 1956
GlyphClass: 2
Flags: W
HStem: 765 15<307 326.922 597.078 617 700 717.262 937.837 955 1417 1435.83 1738.74 1756> 1475 55<240.74 386.652 537.348 682.526>
VStem: 392 140<798.396 1474.12>
DStem2: 808 896 873 895 0.149671 0.988736<-8.92892 357.637> 921 1550 925 1240 0.472221 -0.88148<275.148 667.06> 1236 962 1204 745 0.453267 0.891375<0 339.499> 1549 1550 1456 1231 0.149671 -0.988736<301.487 660.234>
LayerCount: 2
Fore
SplineSet
907 1550 m 1,0,-1
 921 1550 l 1,1,-1
 1236 962 l 1,2,-1
 1535 1550 l 1,3,-1
 1549 1550 l 1,4,-1
 1648 896 l 2,5,6
 1660 815 1660 815 1756 780 c 1,7,-1
 1756 765 l 1,8,-1
 1417 765 l 1,9,-1
 1417 780 l 1,10,11
 1508 810 1508 810 1509 876 c 0,12,13
 1509 882 1509 882 1507 895 c 2,14,-1
 1456 1231 l 1,15,-1
 1204 745 l 1,16,-1
 1190 745 l 1,17,-1
 925 1240 l 1,18,-1
 873 895 l 2,19,20
 872 886 872 886 872 877 c 0,21,22
 872 810 872 810 955 780 c 1,23,-1
 955 765 l 1,24,-1
 700 765 l 1,25,-1
 700 780 l 1,26,27
 796 814 796 814 808 896 c 2,28,-1
 907 1550 l 1,0,-1
199 1530 m 1,29,-1
 725 1530 l 1,30,-1
 823 1359 l 1,31,-1
 808 1359 l 1,32,33
 692 1475 692 1475 554 1475 c 2,34,-1
 548 1475 l 1,35,36
 532 1447 532 1447 532 1400 c 2,37,-1
 532 895 l 2,38,39
 532 803 532 803 617 780 c 1,40,-1
 617 765 l 1,41,-1
 307 765 l 1,42,-1
 307 780 l 1,43,44
 392 803 392 803 392 895 c 2,45,-1
 392 1400 l 2,46,47
 392 1448 392 1448 376 1475 c 1,48,-1
 370 1475 l 2,49,50
 231 1475 231 1475 115 1359 c 1,51,-1
 100 1359 l 1,52,-1
 199 1530 l 1,29,-1
EndSplineSet
Validated: 1
EndChar

StartChar: uni2126
Encoding: 8486 8486 144
Width: 1642
GlyphClass: 2
Flags: W
HStem: 0 21G<195.123 644 998 1446.88> 1438 92<655.168 986.832>
VStem: 181 228<482.996 1061.87> 558 86<90 147.904> 998 86<90 150.049> 1233 228<494.542 1061.73>
LayerCount: 2
Fore
SplineSet
206 0 m 1,0,-1
 20 342 l 1,1,-1
 35 342 l 1,2,3
 275 136 275 136 558 90 c 1,4,-1
 558 130 l 1,5,6
 181 315 181 315 181 755 c 0,7,8
 181 1157 181 1157 421 1376 c 0,9,10
 590 1530 590 1530 821 1530 c 128,-1,11
 1052 1530 1052 1530 1221 1376 c 0,12,13
 1461 1157 1461 1157 1461 755 c 0,14,15
 1461 339 1461 339 1084 130 c 1,16,-1
 1084 90 l 1,17,18
 1369 134 1369 134 1607 342 c 1,19,-1
 1622 342 l 1,20,-1
 1436 0 l 1,21,-1
 998 0 l 1,22,-1
 998 180 l 1,23,24
 1233 375 1233 375 1233 754 c 0,25,26
 1233 1129 1233 1129 1089 1305 c 0,27,28
 980 1438 980 1438 821 1438 c 128,-1,29
 662 1438 662 1438 553 1305 c 0,30,31
 409 1129 409 1129 409 755 c 0,32,33
 409 348 409 348 644 180 c 1,34,-1
 644 0 l 1,35,-1
 206 0 l 1,0,-1
EndSplineSet
Validated: 1
EndChar

StartChar: estimated
Encoding: 8494 8494 145
Width: 1330
GlyphClass: 2
Flags: W
HStem: -20 92<451.758 852.453> 525 80<348 983> 1036 84<468.183 852.399>
VStem: 100 248<309.991 525 605 788.181> 983 247<605 774.087>
LayerCount: 2
Fore
SplineSet
1104 204 m 1,0,1
 1032 113 1032 113 948 61 c 0,2,3
 817 -20 817 -20 665 -20 c 0,4,5
 409 -20 409 -20 256 139 c 0,6,7
 100 301 100 301 100 550 c 0,8,9
 100 788 100 788 249 952 c 24,10,11
 402 1120 402 1120 666 1120 c 0,12,13
 915 1120 915 1120 1064 964 c 280,14,15
 1230 790 1230 790 1230 525 c 1,16,-1
 348 525 l 1,17,-1
 348 192 l 1,18,19
 459 72 459 72 666 72 c 256,20,21
 789 72 789 72 880 132 c 0,22,23
 962 186 962 186 1011 266 c 1,24,25
 1104 204 l 1,0,1
348 605 m 1,26,-1
 983 605 l 1,27,-1
 983 903 l 1,28,29
 852 1036 852 1036 666 1036 c 0,30,31
 475 1036 475 1036 348 914 c 1,32,-1
 348 605 l 1,26,-1
EndSplineSet
Validated: 1
EndChar

StartChar: partialdiff
Encoding: 8706 8706 146
Width: 1285
GlyphClass: 2
Flags: W
HStem: -20 153<399.379 663.581> 870 170<546.66 823.335> 1378 152<492 830.299>
VStem: 150 188<198.966 600.959> 952 183<930 1235.35>
LayerCount: 2
Fore
SplineSet
512 -20 m 0,0,1
 150 -20 150 -20 150 375 c 0,2,3
 150 631 150 631 286 815 c 0,4,5
 454 1040 454 1040 672 1040 c 0,6,7
 859 1040 859 1040 952 930 c 1,8,9
 952 1136 952 1136 907 1239 c 0,10,11
 846 1378 846 1378 678 1378 c 0,12,13
 547 1378 547 1378 420 1294 c 1,14,-1
 420 1468 l 1,15,16
 554 1530 554 1530 703 1530 c 0,17,18
 1135 1530 1135 1530 1135 934 c 0,19,20
 1135 545 1135 545 966.5 262.5 c 128,-1,21
 798 -20 798 -20 512 -20 c 0,0,1
525 133 m 0,22,23
 663 133 663 133 772.5 286 c 128,-1,24
 882 439 882 439 920 680 c 1,25,26
 898 765 898 765 834.5 817.5 c 128,-1,27
 771 870 771 870 695 870 c 0,28,29
 535 870 535 870 436.5 710 c 128,-1,30
 338 550 338 550 338 369 c 0,31,32
 338 133 338 133 525 133 c 0,22,23
EndSplineSet
Validated: 1
EndChar

StartChar: uni2206
Encoding: 8710 8710 147
Width: 1660
GlyphClass: 2
Flags: W
HStem: 0 90<275 1274> 0 15<10 27.5352 1628.01 1650>
DStem2: 239 250 275 90 0.416173 0.909285<-125.406 1106.77> 849 1550 790 1215 0.403328 -0.915055<282.747 1507.4>
LayerCount: 2
Fore
SplineSet
10 0 m 1,0,-1
 10 15 l 1,1,2
 152 60 152 60 239 250 c 2,3,-1
 834 1550 l 1,4,-1
 849 1550 l 1,5,-1
 1422 250 l 18,6,7
 1507 57 1507 57 1650 15 c 1,8,-1
 1650 0 l 1,9,-1
 10 0 l 1,0,-1
275 90 m 1,10,-1
 1274 90 l 1,11,-1
 790 1215 l 1,12,-1
 275 90 l 1,10,-1
EndSplineSet
Validated: 1
EndChar

StartChar: product
Encoding: 8719 8719 148
Width: 1548
GlyphClass: 2
Flags: W
HStem: -410 15<80 100.586 599.414 620 928 948.586 1447.41 1468> 1419 91<466.365 1081.63> 1495 15<80 100.586 1447.41 1468>
VStem: 250 200<-314.5 1413.75> 1098 200<-314.5 1413.75>
LayerCount: 2
Fore
SplineSet
80 -410 m 1,0,-1
 80 -395 l 1,1,2
 250 -351 250 -351 250 -161 c 2,3,-1
 250 1260 l 2,4,5
 250 1450 250 1450 80 1495 c 1,6,-1
 80 1510 l 1,7,-1
 1468 1510 l 1,8,-1
 1468 1495 l 1,9,10
 1298 1450 1298 1450 1298 1260 c 2,11,-1
 1298 -161 l 2,12,13
 1298 -351 1298 -351 1468 -395 c 1,14,-1
 1468 -410 l 1,15,-1
 928 -410 l 1,16,-1
 928 -395 l 1,17,18
 1098 -352 1098 -352 1098 -161 c 2,19,-1
 1098 1260 l 2,20,21
 1098 1361 1098 1361 1060 1419 c 1,22,-1
 488 1419 l 17,23,24
 450 1361 450 1361 450 1260 c 2,25,-1
 450 -161 l 2,26,27
 450 -352 450 -352 620 -395 c 1,28,-1
 620 -410 l 1,29,-1
 80 -410 l 1,0,-1
EndSplineSet
Validated: 1
EndChar

StartChar: summation
Encoding: 8721 8721 149
Width: 1362
GlyphClass: 2
Flags: W
HStem: -410 91<418.891 1045.68> 1419 91<417.25 915.684>
DStem2: 80 -395 430 -161 0.496541 0.868013<303.569 1071.41> 832 535 612 535 0.484714 -0.874673<-892.445 -106.637>
LayerCount: 2
Fore
SplineSet
80 -410 m 1,0,-1
 80 -395 l 9,1,-1
 612 535 l 1,2,-1
 80 1495 l 17,3,-1
 80 1510 l 1,4,-1
 1006 1510 l 1,5,-1
 1192 1188 l 1,6,-1
 1177 1188 l 1,7,8
 954 1419 954 1419 698 1419 c 2,9,-1
 442 1419 l 1,10,11
 409 1378 409 1378 409 1322 c 0,12,13
 409 1287 409 1287 424 1260 c 2,14,-1
 832 535 l 1,15,-1
 430 -161 l 2,16,17
 412 -192 412 -192 412 -236.582089552 c 128,-1,18
 412 -281 412 -281 448 -319 c 1,19,-1
 828 -319 l 2,20,21
 1084 -319 1084 -319 1307 -88 c 1,22,-1
 1322 -88 l 1,23,-1
 1136 -410 l 1,24,-1
 80 -410 l 1,0,-1
EndSplineSet
Validated: 1
EndChar

StartChar: minus
Encoding: 8722 8722 150
Width: 1218
GlyphClass: 2
Flags: W
HStem: 680 150<235 983>
LayerCount: 2
Fore
SplineSet
235 830 m 1,0,-1
 1068 830 l 1,1,-1
 983 680 l 1,2,-1
 150 680 l 1,3,-1
 235 830 l 1,0,-1
EndSplineSet
Validated: 1
EndChar

StartChar: uni2215
Encoding: 8725 8725 151
Width: 1084
GlyphClass: 2
Flags: W
DStem2: 10 34 141 -40 0.522628 0.852561<5.37472 1778.53>
LayerCount: 2
Fore
SplineSet
940 1550 m 1,0,-1
 1074 1482 l 1,1,-1
 141 -40 l 1,2,-1
 10 34 l 1,3,-1
 940 1550 l 1,0,-1
EndSplineSet
Validated: 1
EndChar

StartChar: uni2219
Encoding: 8729 8729 152
Width: 359
GlyphClass: 2
Flags: W
HStem: 625 264<89.1914 270.324>
VStem: 50 259<664.707 849.293>
LayerCount: 2
Fore
SplineSet
180 889 m 128,-1,1
 234 889 234 889 271.5 850.5 c 128,-1,2
 309 812 309 812 309 757 c 128,-1,3
 309 702 309 702 271.5 663.5 c 128,-1,4
 234 625 234 625 180 625 c 128,-1,5
 126 625 126 625 88 663.5 c 128,-1,6
 50 702 50 702 50 757 c 128,-1,7
 50 812 50 812 88 850.5 c 128,-1,0
 126 889 126 889 180 889 c 128,-1,1
EndSplineSet
Validated: 1
EndChar

StartChar: radical
Encoding: 8730 8730 153
Width: 1338
GlyphClass: 2
Flags: W
HStem: 741 90<50 232> 1550 90<1158 1328>
DStem2: 395 831 232 741 0.368927 -0.929458<23.5161 525.694> 593 344 557 -40 0.353572 0.935407<0 1327.87>
LayerCount: 2
Fore
SplineSet
542 -40 m 1,0,-1
 232 741 l 1,1,-1
 50 741 l 1,2,-1
 50 831 l 1,3,-1
 395 831 l 1,4,-1
 593 344 l 1,5,-1
 1084 1640 l 1,6,-1
 1328 1640 l 1,7,-1
 1328 1550 l 1,8,-1
 1158 1550 l 1,9,-1
 557 -40 l 1,10,-1
 542 -40 l 1,0,-1
EndSplineSet
Validated: 1
EndChar

StartChar: infinity
Encoding: 8734 8734 154
Width: 1658
GlyphClass: 2
Flags: W
HStem: 362 178<340.827 604.484> 362 90<1000.43 1289.72> 970 178<1052.4 1317.17> 1058 90<368.285 657.575>
VStem: 150 100<624.483 929.651> 1408 100<580.349 885.517>
DStem2: 700 710 886 645 0.422581 0.906325<-169.233 366.997>
LayerCount: 2
Fore
SplineSet
496 1148 m 0,0,1
 606 1148 606 1148 700 1088 c 1,2,-1
 644 1015 l 1,3,4
 577 1058 577 1058 499 1058 c 0,5,6
 400 1058 400 1058 324 972 c 0,7,8
 250 887 250 887 250 758 c 0,9,10
 250 664 250 664 318 598 c 0,11,12
 378 540 378 540 474 540 c 0,13,14
 621 540 621 540 700 710 c 2,15,-1
 772 865 l 2,16,17
 903 1148 903 1148 1127 1148 c 0,18,19
 1296 1148 1296 1148 1398 1042 c 0,20,21
 1508 928 1508 928 1508 752 c 0,22,23
 1508 586 1508 586 1398 468 c 0,24,25
 1300 362 1300 362 1162 362 c 0,26,27
 1052 362 1052 362 958 422 c 1,28,-1
 1014 495 l 1,29,30
 1081 452 1081 452 1159 452 c 0,31,32
 1258 452 1258 452 1334 538 c 0,33,34
 1408 623 1408 623 1408 752 c 0,35,36
 1408 846 1408 846 1340 912 c 0,37,38
 1280 970 1280 970 1184 970 c 0,39,40
 1038 970 1038 970 962 808 c 2,41,-1
 886 645 l 2,42,43
 754 362 754 362 531 362 c 0,44,45
 362 362 362 362 260 468 c 0,46,47
 150 582 150 582 150 758 c 0,48,49
 150 924 150 924 260 1042 c 0,50,51
 358 1148 358 1148 496 1148 c 0,0,1
EndSplineSet
Validated: 1
EndChar

StartChar: approxequal
Encoding: 8776 8776 155
Width: 1193
GlyphClass: 2
Flags: W
HStem: 406 151<716.25 943.751> 568 151<247.931 477.75> 804 151<716.25 943.751> 966 151<247.931 477.75>
DStem2: 766 978 428 943 0.915812 -0.401606<-382.506 86.1301> 766 580 428 545 0.915812 -0.401606<-382.506 86.1301>
LayerCount: 2
Fore
SplineSet
392 719 m 0,0,1
 449 719 449 719 522 687 c 2,2,-1
 766 580 l 2,3,4
 818 557 818 557 851 557 c 0,5,6
 966 557 966 557 1024 693 c 1,7,-1
 1043 693 l 1,8,9
 1023 406 1023 406 802 406 c 0,10,11
 745 406 745 406 672 438 c 2,12,-1
 428 545 l 2,13,14
 376 568 376 568 342 568 c 0,15,16
 228 568 228 568 170 432 c 1,17,-1
 150 432 l 1,18,19
 168 719 168 719 392 719 c 0,0,1
392 1117 m 0,20,21
 449 1117 449 1117 522 1085 c 2,22,-1
 766 978 l 2,23,24
 818 955 818 955 851 955 c 0,25,26
 966 955 966 955 1024 1091 c 1,27,-1
 1043 1091 l 1,28,29
 1023 804 1023 804 802 804 c 0,30,31
 745 804 745 804 672 836 c 2,32,-1
 428 943 l 2,33,34
 376 966 376 966 342 966 c 0,35,36
 228 966 228 966 170 830 c 1,37,-1
 150 830 l 1,38,39
 168 1117 168 1117 392 1117 c 0,20,21
EndSplineSet
Validated: 1
EndChar

StartChar: notequal
Encoding: 8800 8800 156
Width: 1218
GlyphClass: 2
Flags: W
HStem: 490 150<235 400 603 983> 870 150<235 619 822 983>
VStem: 215 116<170 286> 887 116<1217 1333>
DStem2: 215 170 331 170 0.500302 0.865851<58.0351 369.628 601.067 808.218 1039.66 1343.19>
LayerCount: 2
Fore
SplineSet
887 1333 m 1,0,-1
 1003 1333 l 1,1,-1
 822 1020 l 1,2,-1
 1068 1020 l 1,3,-1
 983 870 l 1,4,-1
 735 870 l 1,5,-1
 603 640 l 1,6,-1
 1068 640 l 1,7,-1
 983 490 l 1,8,-1
 516 490 l 1,9,-1
 331 170 l 1,10,-1
 215 170 l 1,11,-1
 400 490 l 1,12,-1
 150 490 l 1,13,-1
 235 640 l 1,14,-1
 487 640 l 1,15,-1
 619 870 l 1,16,-1
 150 870 l 1,17,-1
 235 1020 l 1,18,-1
 706 1020 l 1,19,-1
 887 1333 l 1,0,-1
EndSplineSet
Validated: 1
EndChar

StartChar: lessequal
Encoding: 8804 8804 157
Width: 1318
GlyphClass: 2
Flags: W
HStem: 190 150<285 1033>
DStem2: 200 885 475 914 0.870231 0.492643<253.6 956.067> 475 914 200 870 0.878605 -0.47755<0 694.483>
LayerCount: 2
Fore
SplineSet
285 340 m 1,0,-1
 1118 340 l 1,1,-1
 1033 190 l 1,2,-1
 200 190 l 1,3,-1
 285 340 l 1,0,-1
1032 1356 m 1,4,-1
 1088 1261 l 1,5,-1
 475 914 l 1,6,-1
 1088 581 l 1,7,-1
 1004 433 l 1,8,-1
 200 870 l 1,9,-1
 200 885 l 1,10,-1
 1032 1356 l 1,4,-1
EndSplineSet
Validated: 1
EndChar

StartChar: greaterequal
Encoding: 8805 8805 158
Width: 1318
GlyphClass: 2
Flags: W
HStem: 190 150<285 1033>
DStem2: 284 1356 200 1208 0.878605 -0.47755<0 694.483> 200 528 256 433 0.870231 0.492643<1.93187 704.399>
LayerCount: 2
Fore
SplineSet
285 340 m 1,0,-1
 1118 340 l 1,1,-1
 1033 190 l 1,2,-1
 200 190 l 1,3,-1
 285 340 l 1,0,-1
284 1356 m 1,4,-1
 1088 919 l 1,5,-1
 1088 904 l 1,6,-1
 256 433 l 1,7,-1
 200 528 l 1,8,-1
 813 875 l 1,9,-1
 200 1208 l 1,10,-1
 284 1356 l 1,4,-1
EndSplineSet
Validated: 1
EndChar

StartChar: lozenge
Encoding: 9674 9674 159
Width: 1134
GlyphClass: 2
Flags: W
HStem: -20 21G<554.678 579.273> 1510 20G<555.207 578.838>
DStem2: 100 738 263 818 0.507923 0.861403<151.704 651.981> 263 818 100 738 0.524536 -0.851388<0 670.384> 567 1530 517 1249 0.509354 -0.860557<216.349 892.569> 611 245 567 -20 0.523035 0.852311<0 492.332>
LayerCount: 2
Fore
SplineSet
611 245 m 1,0,-1
 863 668 l 1,1,-1
 517 1249 l 1,2,-1
 263 818 l 1,3,-1
 611 245 l 1,0,-1
567 -20 m 1,4,-1
 100 738 l 1,5,-1
 567 1530 l 1,6,-1
 1034 741 l 1,7,-1
 567 -20 l 1,4,-1
EndSplineSet
Validated: 1
EndChar

StartChar: multiply
Encoding: 215 215 160
Width: 1156
Flags: W
HStem: 649 212<472 684>
VStem: 472 212<649 861>
DStem2: 367 1072 200 1027 0.707107 -0.707107<0 298.399 448.306 746.705> 200 483 367 438 0.707107 0.707107<86.267 384.666 534.573 832.972>
LayerCount: 2
Fore
SplineSet
200 1027 m 1,0,-1
 367 1072 l 1,1,-1
 578 861 l 1,2,-1
 789 1072 l 1,3,-1
 956 1027 l 1,4,-1
 684 755 l 1,5,-1
 956 483 l 1,6,-1
 789 438 l 1,7,-1
 578 649 l 1,8,-1
 367 438 l 1,9,-1
 200 483 l 1,10,-1
 472 755 l 1,11,-1
 200 1027 l 1,0,-1
EndSplineSet
Validated: 1
EndChar

StartChar: divide
Encoding: 247 247 161
Width: 1218
Flags: W
HStem: 298 264<518.191 699.324> 680 150<235 983> 943 264<518.191 699.324>
VStem: 479 259<337.707 522.293 982.707 1167.29>
LayerCount: 2
Fore
SplineSet
235 830 m 1,0,-1
 1068 830 l 1,1,-1
 983 680 l 1,2,-1
 150 680 l 1,3,-1
 235 830 l 1,0,-1
479 1075 m 128,-1,5
 479 1130 479 1130 517 1168.5 c 128,-1,6
 555 1207 555 1207 609 1207 c 128,-1,7
 663 1207 663 1207 700.5 1168.5 c 128,-1,8
 738 1130 738 1130 738 1075 c 128,-1,9
 738 1020 738 1020 700.5 981.5 c 128,-1,10
 663 943 663 943 609 943 c 128,-1,11
 555 943 555 943 517 981.5 c 128,-1,4
 479 1020 479 1020 479 1075 c 128,-1,5
479 430 m 128,-1,13
 479 485 479 485 517 523.5 c 128,-1,14
 555 562 555 562 609 562 c 128,-1,15
 663 562 663 562 700.5 523.5 c 128,-1,16
 738 485 738 485 738 430 c 128,-1,17
 738 375 738 375 700.5 336.5 c 128,-1,18
 663 298 663 298 609 298 c 128,-1,19
 555 298 555 298 517 336.5 c 128,-1,12
 479 375 479 375 479 430 c 128,-1,13
EndSplineSet
Validated: 1
EndChar

StartChar: g
Encoding: 103 103 162
Width: 1240
Flags: W
HStem: -430 91<342.054 659.848> -20 91<483.175 792.663> 1029 91<483.424 792.697>
VStem: 90 210<311.597 788.403> 183 15<-78.5635 -46> 840 180<119.122 939.5>
LayerCount: 2
Fore
SplineSet
659 71 m 0,0,1
 840 71 840 71 840 252 c 2,2,-1
 840 848 l 2,3,4
 840 1029 840 1029 659 1029 c 0,5,6
 464 1029 464 1029 374 875 c 0,7,8
 300 748 300 748 300 550 c 128,-1,9
 300 352 300 352 374 225 c 0,10,11
 463 71 463 71 659 71 c 0,0,1
840 -8 m 1,12,13
 781 -20 781 -20 719 -20 c 0,14,15
 426 -20 426 -20 252 141 c 0,16,17
 90 291 90 291 90 550 c 128,-1,18
 90 809 90 809 252 959 c 0,19,20
 426 1120 426 1120 719 1120 c 0,21,22
 958 1120 958 1120 1190 1009 c 1,23,-1
 1190 995 l 1,24,25
 1020 958 1020 958 1020 847 c 2,26,-1
 1020 140 l 2,27,28
 1020 -125 1020 -125 877 -264 c 0,29,30
 706 -430 706 -430 436 -430 c 0,31,32
 312 -430 312 -430 183 -398 c 1,33,-1
 183 -46 l 1,34,-1
 198 -46 l 1,35,36
 218 -152 218 -152 281 -235 c 0,37,38
 360 -339 360 -339 494 -339 c 0,39,40
 669 -339 669 -339 771 -186 c 0,41,42
 825 -105 825 -105 840 -8 c 1,12,13
EndSplineSet
Validated: 1
EndChar

StartChar: k
Encoding: 107 107 163
Width: 1278
Flags: W
HStem: 0 15<50 70.5859 549.414 570 672 692.42 1250.46 1268> 1085 15<701 721.885 1155.42 1171> 1510 20G<311.5 400>
VStem: 220 180<96.25 249 398 1356.5>
DStem2: 400 398 400 249 0.617648 0.786455<0 216.105 253.118 705.954> 788 540 606 511 0.539136 -0.842218<0 332.293>
LayerCount: 2
Fore
SplineSet
50 0 m 1,0,-1
 50 15 l 1,1,2
 220 60 220 60 220 250 c 2,3,-1
 220 1264 l 2,4,5
 220 1375 220 1375 50 1412 c 1,6,-1
 50 1426 l 1,7,8
 223 1509 223 1509 400 1530 c 1,9,-1
 400 398 l 1,10,-1
 754 863 l 2,11,12
 802 926 802 926 802 985 c 0,13,14
 802 1054 802 1054 701 1085 c 1,15,-1
 701 1100 l 1,16,-1
 1171 1100 l 1,17,-1
 1171 1085 l 1,18,19
 1004 1018 1004 1018 872 850 c 2,20,-1
 629 540 l 1,21,-1
 788 540 l 1,22,-1
 973 251 l 2,23,24
 1079 85 1079 85 1268 15 c 1,25,-1
 1268 0 l 1,26,-1
 672 0 l 1,27,-1
 672 15 l 1,28,29
 808 61 808 61 808 157 c 0,30,31
 808 197 808 197 775 248 c 2,32,-1
 606 511 l 1,33,-1
 400 249 l 1,34,35
 400 59 400 59 570 15 c 1,36,-1
 570 0 l 1,37,-1
 50 0 l 1,0,-1
EndSplineSet
Validated: 1
EndChar

StartChar: v
Encoding: 118 118 164
Width: 1257
Flags: W
HStem: -20 91<455.253 775.945> 1100 20G<311.5 400 880.775 1044>
VStem: 220 180<125.613 946.5> 977 190<329.176 790.554>
LayerCount: 2
Fore
SplineSet
541 -20 m 0,0,1
 220 -20 220 -20 220 250 c 2,2,-1
 220 854 l 2,3,4
 220 965 220 965 50 1002 c 1,5,-1
 50 1016 l 1,6,7
 223 1099 223 1099 400 1120 c 9,8,-1
 400 252 l 2,9,10
 400 71 400 71 601 71 c 0,11,12
 788 71 788 71 891 225 c 0,13,14
 977 354 977 354 977 570 c 0,15,16
 977 847 977 847 742 1031 c 1,17,-1
 921 1120 l 1,18,19
 1167 886 1167 886 1167 570 c 0,20,21
 1167 314 1167 314 1002 146 c 0,22,23
 839 -20 839 -20 541 -20 c 0,0,1
EndSplineSet
Validated: 1
EndChar

StartChar: w
Encoding: 119 119 165
Width: 1962
Flags: W
HStem: -20 91<449.288 763.103 1177.5 1486.31> 1100 20G<311.5 400 1036.5 1125 1585.78 1749>
VStem: 220 180<119.482 946.5> 945 180<288.431 946.5> 1682 190<329.176 790.554>
LayerCount: 2
Fore
SplineSet
521 -20 m 0,0,1
 220 -20 220 -20 220 250 c 2,2,-1
 220 854 l 2,3,4
 220 965 220 965 50 1002 c 1,5,-1
 50 1016 l 1,6,7
 223 1099 223 1099 400 1120 c 9,8,-1
 400 252 l 2,9,10
 400 71 400 71 581 71 c 0,11,12
 781 71 781 71 871 225 c 0,13,14
 945 352 945 352 945 550 c 2,15,-1
 945 854 l 2,16,17
 945 965 945 965 775 1002 c 1,18,-1
 775 1016 l 1,19,20
 948 1099 948 1099 1125 1120 c 9,21,-1
 1125 252 l 2,22,23
 1125 71 1125 71 1326 71 c 0,24,25
 1493 71 1493 71 1596 225 c 0,26,27
 1682 354 1682 354 1682 570 c 0,28,29
 1682 847 1682 847 1447 1031 c 1,30,-1
 1626 1120 l 1,31,32
 1872 886 1872 886 1872 570 c 0,33,34
 1872 314 1872 314 1707 146 c 0,35,36
 1544 -20 1544 -20 1266 -20 c 0,37,38
 1063 -20 1063 -20 964 128 c 1,39,40
 785 -20 785 -20 521 -20 c 0,0,1
EndSplineSet
Validated: 1
EndChar

StartChar: y
Encoding: 121 121 166
Width: 1285
Flags: W
HStem: -430 91<407.054 725.844> -20 91<545.785 858.139> 1100 20G<273.5 365 996.5 1085>
VStem: 180 185<297.839 946.5> 248 15<-78.5635 -46> 905 180<119.122 946.5>
LayerCount: 2
Fore
SplineSet
501 -430 m 0,0,1
 377 -430 377 -430 248 -398 c 1,2,-1
 248 -46 l 1,3,-1
 263 -46 l 1,4,5
 283 -152 283 -152 346 -235 c 0,6,7
 425 -339 425 -339 559 -339 c 0,8,9
 738 -339 738 -339 836 -187 c 0,10,11
 889 -104 889 -104 905 -8 c 1,12,13
 848 -20 848 -20 784 -20 c 0,14,15
 494 -20 494 -20 323 146 c 24,16,17
 180 285 180 285 180 550 c 2,18,-1
 180 854 l 2,19,20
 180 965 180 965 10 1002 c 1,21,-1
 10 1016 l 1,22,23
 182 1098 182 1098 365 1120 c 1,24,-1
 365 550 l 2,25,26
 365 352 365 352 439 225 c 0,27,28
 528 71 528 71 724 71 c 0,29,30
 905 71 905 71 905 252 c 2,31,-1
 905 854 l 2,32,33
 905 965 905 965 735 1002 c 1,34,-1
 735 1016 l 1,35,36
 908 1099 908 1099 1085 1120 c 9,37,-1
 1085 140 l 2,38,39
 1085 -125 1085 -125 942 -264 c 0,40,41
 771 -430 771 -430 501 -430 c 0,0,1
EndSplineSet
Validated: 1
EndChar

StartChar: z
Encoding: 122 122 167
Width: 1019
Flags: W
HStem: 0 90<285 770.371> 1010 90<298.907 695>
DStem2: 20 0 285 90 0.55565 0.831417<222.075 1214.79>
LayerCount: 2
Fore
SplineSet
20 0 m 1,0,-1
 695 1010 l 1,1,-1
 519 1010 l 2,2,3
 269 1010 269 1010 84 818 c 1,4,-1
 70 818 l 1,5,-1
 233 1100 l 1,6,-1
 959 1100 l 1,7,-1
 285 90 l 1,8,-1
 550 90 l 2,9,10
 801 90 801 90 984 282 c 1,11,-1
 999 282 l 1,12,-1
 836 0 l 1,13,-1
 20 0 l 1,0,-1
EndSplineSet
Validated: 1
EndChar

StartChar: x
Encoding: 120 120 168
Width: 1186
Flags: W
HStem: 0 15<20 38.8008 647 662.615 1152.46 1166> 1085 15<20 33.4495 517.286 532 746 763.784 1148.88 1166>
DStem2: 617 653 285 849 0.577421 -0.816447<-353.479 0 151.862 493.346> 303 243 420 235 0.607784 0.794102<-76.603 320.775 516.426 913.31>
LayerCount: 2
Fore
SplineSet
20 0 m 1,0,-1
 20 15 l 1,1,2
 171 70 171 70 303 243 c 2,3,-1
 516 522 l 1,4,-1
 285 849 l 2,5,6
 164 1020 164 1020 20 1085 c 1,7,-1
 20 1100 l 1,8,-1
 532 1100 l 1,9,-1
 532 1085 l 1,10,11
 434 1045 434 1045 434 958 c 0,12,13
 434 911 434 911 471 859 c 2,14,-1
 617 653 l 1,15,-1
 773 857 l 2,16,17
 832 934 832 934 832 990 c 0,18,19
 832 1055 832 1055 746 1085 c 1,20,-1
 746 1100 l 1,21,-1
 1166 1100 l 1,22,-1
 1166 1085 l 1,23,24
 1029 1031 1029 1031 893 853 c 2,25,-1
 676 569 l 1,26,-1
 901 251 l 2,27,28
 1021 81 1021 81 1166 15 c 1,29,-1
 1166 0 l 1,30,-1
 647 0 l 1,31,-1
 647 15 l 1,32,33
 751 55 751 55 751 142 c 0,34,35
 751 190 751 190 710 248 c 2,36,-1
 576 438 l 1,37,-1
 420 235 l 2,38,39
 359 155 359 155 359 102 c 0,40,41
 359 45 359 45 429 15 c 1,42,-1
 429 0 l 1,43,-1
 20 0 l 1,0,-1
EndSplineSet
Validated: 1
EndChar

StartChar: AE
Encoding: 198 198 169
Width: 2077
Flags: W
HStem: 0 90<1211.37 1790.19> 0 15<10 29.8352 456.684 474 825 845.586> 545 90<549 995 1195 1457.37> 1420 90<1212.15 1660.19>
VStem: 995 200<96.25 545 635 1414.12>
DStem2: 239 250 352 250 0.456231 0.889862<-28.101 384.323 484.028 1362.41>
LayerCount: 2
Fore
SplineSet
10 0 m 1,0,-1
 10 15 l 1,1,2
 138 52 138 52 239 250 c 2,3,-1
 885 1510 l 1,4,-1
 1751 1510 l 1,5,-1
 1937 1188 l 1,6,-1
 1922 1188 l 1,7,8
 1698 1420 1698 1420 1443 1420 c 2,9,-1
 1233 1420 l 1,10,11
 1195 1362 1195 1362 1195 1260 c 2,12,-1
 1195 635 l 1,13,-1
 1359 635 l 2,14,15
 1573 635 1573 635 1762 832 c 1,16,-1
 1777 832 l 1,17,-1
 1508 360 l 1,18,-1
 1493 360 l 1,19,20
 1493 545 1493 545 1359 545 c 2,21,-1
 1195 545 l 1,22,-1
 1195 250 l 2,23,24
 1195 147 1195 147 1233 90 c 1,25,-1
 1573 90 l 2,26,27
 1828 90 1828 90 2052 322 c 1,28,-1
 2067 322 l 1,29,-1
 1881 0 l 1,30,-1
 825 0 l 1,31,-1
 825 15 l 1,32,33
 995 60 995 60 995 250 c 2,34,-1
 995 545 l 1,35,-1
 506 545 l 1,36,-1
 352 250 l 2,37,38
 331 210 331 210 331 170 c 0,39,40
 331 70 331 70 474 15 c 1,41,-1
 474 0 l 1,42,-1
 10 0 l 1,0,-1
951 1416 m 1,43,-1
 549 635 l 1,44,-1
 995 635 l 1,45,-1
 995 1260 l 2,46,47
 995 1356 995 1356 951 1416 c 1,43,-1
EndSplineSet
Validated: 1
EndChar

StartChar: Eth
Encoding: 208 208 170
Width: 1454
Flags: W
HStem: -20 92<488.554 844> 715 90<101 220 420 579> 1438 92<488.554 848.087>
VStem: 220 200<169 715 805 1341> 1130 234<465.875 1048.35>
LayerCount: 2
Fore
SplineSet
600 -20 m 0,0,1
 304 -20 304 -20 50 91 c 1,2,-1
 50 105 l 1,3,4
 220 159 220 159 220 253 c 2,5,-1
 220 715 l 1,6,-1
 50 715 l 1,7,-1
 101 805 l 1,8,-1
 220 805 l 1,9,-1
 220 1257 l 2,10,11
 220 1351 220 1351 50 1405 c 1,12,-1
 50 1419 l 1,13,14
 304 1530 304 1530 600 1530 c 0,15,16
 977 1530 977 1530 1190 1280 c 0,17,18
 1364 1075 1364 1075 1364 755 c 0,19,20
 1364 438 1364 438 1190 230 c 0,21,22
 981 -20 981 -20 600 -20 c 0,0,1
662 72 m 0,23,24
 905 72 905 72 1032 311 c 0,25,26
 1130 495 1130 495 1130 756 c 0,27,28
 1130 1015 1130 1015 1032 1199 c 0,29,30
 905 1438 905 1438 662 1438 c 0,31,32
 553 1438 553 1438 491 1397 c 0,33,34
 420 1350 420 1350 420 1257 c 2,35,-1
 420 805 l 1,36,-1
 630 805 l 1,37,-1
 579 715 l 1,38,-1
 420 715 l 1,39,-1
 420 253 l 2,40,41
 420 158 420 158 491 113 c 0,42,43
 556 72 556 72 662 72 c 0,23,24
EndSplineSet
Validated: 1
EndChar

StartChar: Dcroat
Encoding: 272 272 171
Width: 1454
Flags: W
HStem: -20 92<488.554 844> 715 90<101 220 420 579> 1438 92<488.554 848.087>
VStem: 220 200<169 715 805 1341> 1130 234<465.875 1048.35>
LayerCount: 2
Fore
SplineSet
600 -20 m 0,0,1
 304 -20 304 -20 50 91 c 1,2,-1
 50 105 l 1,3,4
 220 159 220 159 220 253 c 2,5,-1
 220 715 l 1,6,-1
 50 715 l 1,7,-1
 101 805 l 1,8,-1
 220 805 l 1,9,-1
 220 1257 l 2,10,11
 220 1351 220 1351 50 1405 c 1,12,-1
 50 1419 l 1,13,14
 304 1530 304 1530 600 1530 c 0,15,16
 977 1530 977 1530 1190 1280 c 0,17,18
 1364 1075 1364 1075 1364 755 c 0,19,20
 1364 438 1364 438 1190 230 c 0,21,22
 981 -20 981 -20 600 -20 c 0,0,1
662 72 m 0,23,24
 905 72 905 72 1032 311 c 0,25,26
 1130 495 1130 495 1130 756 c 0,27,28
 1130 1015 1130 1015 1032 1199 c 0,29,30
 905 1438 905 1438 662 1438 c 0,31,32
 553 1438 553 1438 491 1397 c 0,33,34
 420 1350 420 1350 420 1257 c 2,35,-1
 420 805 l 1,36,-1
 630 805 l 1,37,-1
 579 715 l 1,38,-1
 420 715 l 1,39,-1
 420 253 l 2,40,41
 420 158 420 158 491 113 c 0,42,43
 556 72 556 72 662 72 c 0,23,24
EndSplineSet
Validated: 1
EndChar

StartChar: Hbar
Encoding: 294 294 172
Width: 1487
Flags: W
HStem: 0 15<50 70.5859 569.414 590 898 918.465 1416.41 1437> 540 100<420 1067> 1050 90<101 220 420 1067 1267 1386> 1495 15<50 70.5859 569.414 590 898 918.465 1416.41 1437>
VStem: 220 200<96.25 540 640 1050 1140 1413.75> 1067 200<95.75 540 640 1050 1140 1413.75>
LayerCount: 2
Fore
SplineSet
50 0 m 1,0,-1
 50 15 l 1,1,2
 220 60 220 60 220 250 c 2,3,-1
 220 1050 l 1,4,-1
 50 1050 l 1,5,-1
 101 1140 l 1,6,-1
 220 1140 l 1,7,-1
 220 1260 l 2,8,9
 220 1451 220 1451 50 1495 c 1,10,-1
 50 1510 l 1,11,-1
 590 1510 l 1,12,-1
 590 1495 l 1,13,14
 420 1450 420 1450 420 1260 c 2,15,-1
 420 1140 l 1,16,-1
 1067 1140 l 1,17,-1
 1067 1260 l 2,18,19
 1067 1451 1067 1451 898 1495 c 1,20,-1
 898 1510 l 1,21,-1
 1437 1510 l 1,22,-1
 1437 1495 l 1,23,24
 1267 1450 1267 1450 1267 1260 c 2,25,-1
 1267 1140 l 1,26,-1
 1437 1140 l 1,27,-1
 1386 1050 l 1,28,-1
 1267 1050 l 1,29,-1
 1267 250 l 2,30,31
 1267 59 1267 59 1437 15 c 1,32,-1
 1437 0 l 1,33,-1
 898 0 l 1,34,-1
 898 15 l 1,35,36
 1067 60 1067 60 1067 250 c 2,37,-1
 1067 540 l 1,38,-1
 420 540 l 1,39,-1
 420 250 l 2,40,41
 420 59 420 59 590 15 c 1,42,-1
 590 0 l 1,43,-1
 50 0 l 1,0,-1
420 1050 m 1,44,-1
 420 640 l 1,45,-1
 1067 640 l 1,46,-1
 1067 1050 l 1,47,-1
 420 1050 l 1,44,-1
EndSplineSet
Validated: 1
EndChar

StartChar: Lslash
Encoding: 321 321 173
Width: 1221
Flags: W
HStem: 0 90<436.365 934.191> 0 15<50 70.5859> 1495 15<50 70.5859 569.414 590>
VStem: 220 200<96.25 601 719 769 887 1413.75>
DStem2: 50 576 69 474 0.765936 0.642917<0 146.282 483.343 631.8>
LayerCount: 2
Fore
SplineSet
50 0 m 1,0,-1
 50 15 l 1,1,2
 220 60 220 60 220 250 c 2,3,-1
 220 601 l 1,4,-1
 69 474 l 1,5,-1
 50 576 l 1,6,-1
 220 719 l 1,7,-1
 220 1260 l 2,8,9
 220 1451 220 1451 50 1495 c 1,10,-1
 50 1510 l 1,11,-1
 590 1510 l 1,12,-1
 590 1495 l 1,13,14
 420 1450 420 1450 420 1260 c 2,15,-1
 420 887 l 1,16,-1
 573 1015 l 1,17,-1
 592 913 l 1,18,-1
 420 769 l 1,19,-1
 420 250 l 2,20,21
 420 147 420 147 458 90 c 1,22,-1
 717 90 l 2,23,24
 972 90 972 90 1196 322 c 1,25,-1
 1211 322 l 1,26,-1
 1025 0 l 1,27,-1
 50 0 l 1,0,-1
EndSplineSet
Validated: 1
EndChar

StartChar: Eng
Encoding: 330 330 174
Width: 1514
Flags: W
HStem: -430 21G<954 1159> 0 15<50 70.5859 569.414 590> 1438 92<488.554 857.763>
VStem: 220 200<96 1341> 1151 213<-216.112 1046.25>
LayerCount: 2
Fore
SplineSet
50 0 m 1,0,-1
 50 15 l 1,1,2
 220 60 220 60 220 249 c 2,3,-1
 220 1257 l 2,4,5
 220 1351 220 1351 50 1405 c 1,6,-1
 50 1419 l 1,7,8
 304 1530 304 1530 600 1530 c 0,9,10
 977 1530 977 1530 1190 1280 c 0,11,12
 1364 1075 1364 1075 1364 755 c 2,13,-1
 1364 0 l 18,14,15
 1364 -388 1364 -388 954 -430 c 1,16,-1
 954 -415 l 1,17,18
 1151 -306 1151 -306 1151 0 c 10,19,-1
 1151 756 l 2,20,21
 1151 998 1151 998 1044 1202 c 0,22,23
 920 1438 920 1438 662 1438 c 0,24,25
 553 1438 553 1438 491 1397 c 0,26,27
 420 1350 420 1350 420 1257 c 2,28,-1
 420 250 l 2,29,30
 420 59 420 59 590 15 c 1,31,-1
 590 0 l 1,32,-1
 50 0 l 1,0,-1
EndSplineSet
Validated: 1
EndChar

StartChar: OE
Encoding: 338 338 175
Width: 2079
Flags: W
HStem: -20 92<564.168 891.159> 0 90<1213.37 1792.19> 545 90<1197 1459.37> 1420 90<1214.15 1662.19> 1438 92<564.168 891.159>
VStem: 90 228<448.451 1061.94> 997 200<200.75 545 635 1309.25>
LayerCount: 2
Fore
SplineSet
1883 0 m 1,0,-1
 888 0 l 1,1,2
 813 -20 813 -20 730 -20 c 0,3,4
 499 -20 499 -20 330 134 c 0,5,6
 90 353 90 353 90 755 c 128,-1,7
 90 1157 90 1157 330 1376 c 0,8,9
 499 1530 499 1530 730 1530 c 0,10,11
 813 1530 813 1530 888 1510 c 1,12,-1
 1753 1510 l 1,13,-1
 1939 1188 l 1,14,-1
 1924 1188 l 1,15,16
 1700 1420 1700 1420 1445 1420 c 2,17,-1
 1235 1420 l 1,18,19
 1197 1362 1197 1362 1197 1260 c 2,20,-1
 1197 635 l 1,21,-1
 1361 635 l 2,22,23
 1575 635 1575 635 1764 832 c 1,24,-1
 1779 832 l 1,25,-1
 1510 360 l 1,26,-1
 1495 360 l 1,27,28
 1495 545 1495 545 1361 545 c 2,29,-1
 1197 545 l 1,30,-1
 1197 250 l 2,31,32
 1197 147 1197 147 1235 90 c 1,33,-1
 1575 90 l 2,34,35
 1830 90 1830 90 2054 322 c 1,36,-1
 2069 322 l 1,37,-1
 1883 0 l 1,0,-1
994 1310 m 1,38,39
 886 1438 886 1438 730 1438 c 0,40,41
 571 1438 571 1438 462 1305 c 0,42,43
 318 1129 318 1129 318 755.5 c 128,-1,44
 318 382 318 382 462 205 c 0,45,46
 571 72 571 72 730 72 c 0,47,48
 886 72 886 72 994 200 c 1,49,50
 997 224 997 224 997 250 c 2,51,-1
 997 1260 l 2,52,53
 997 1286 997 1286 994 1310 c 1,38,39
EndSplineSet
Validated: 1
EndChar

StartChar: Tbar
Encoding: 358 358 176
Width: 1375
Flags: W
HStem: 0 15<418 438.586 937.414 958> 715 90<448 588 788 926> 1420 90<286.316 570.846 805.154 1088.51>
VStem: 588 200<96.25 715 805 1418.18>
LayerCount: 2
Fore
SplineSet
418 0 m 1,0,-1
 418 15 l 1,1,2
 588 60 588 60 588 250 c 2,3,-1
 588 715 l 1,4,-1
 398 715 l 1,5,-1
 448 805 l 1,6,-1
 588 805 l 1,7,-1
 588 1260 l 2,8,9
 588 1362 588 1362 550 1420 c 1,10,-1
 504 1420 l 2,11,12
 248 1420 248 1420 25 1188 c 1,13,-1
 10 1188 l 1,14,-1
 196 1510 l 1,15,-1
 1180 1510 l 1,16,-1
 1365 1188 l 1,17,-1
 1350 1188 l 1,18,19
 1126 1420 1126 1420 872 1420 c 2,20,-1
 826 1420 l 1,21,22
 788 1362 788 1362 788 1260 c 2,23,-1
 788 805 l 1,24,-1
 978 805 l 1,25,-1
 926 715 l 1,26,-1
 788 715 l 1,27,-1
 788 250 l 2,28,29
 788 59 788 59 958 15 c 1,30,-1
 958 0 l 1,31,-1
 418 0 l 1,0,-1
EndSplineSet
Validated: 1
EndChar

StartChar: uni1E02
Encoding: 7682 7682 177
Width: 1335
Flags: W
HStem: -20 92<488.859 834.429> 1439 91<488.554 780.109> 1600 264<540.191 721.809>
VStem: 220 200<170 1341> 501 260<1639.71 1824.81> 874 210<1022.31 1335.97> 1019 226<273.842 627.996>
LayerCount: 2
Fore
SplineSet
631 1864 m 128,-1,1
 685 1864 685 1864 723 1826 c 128,-1,2
 761 1788 761 1788 761 1732.5 c 128,-1,3
 761 1677 761 1677 723 1638.5 c 128,-1,4
 685 1600 685 1600 631 1600 c 128,-1,5
 577 1600 577 1600 539 1638.5 c 128,-1,6
 501 1677 501 1677 501 1732.5 c 128,-1,7
 501 1788 501 1788 539 1826 c 128,-1,0
 577 1864 577 1864 631 1864 c 128,-1,1
420 254 m 2,8,9
 420 168 420 168 491 113 c 0,10,11
 544 72 544 72 652 72 c 0,12,13
 841 72 841 72 946 219 c 0,14,15
 1019 321 1019 321 1019 462 c 0,16,17
 1019 620 1019 620 891 725 c 0,18,19
 789 809 789 809 612 841 c 1,20,21
 725 891 725 891 787 946 c 0,22,23
 874 1023 874 1023 874 1181 c 0,24,25
 874 1287 874 1287 816 1362 c 0,26,27
 756 1439 756 1439 626 1439 c 0,28,29
 544 1439 544 1439 491 1398 c 0,30,31
 420 1343 420 1343 420 1257 c 2,32,-1
 420 254 l 2,8,9
600 -20 m 0,33,34
 306 -20 306 -20 50 92 c 1,35,36
 50 94 50 94 50 106 c 1,37,38
 220 160 220 160 220 254 c 2,39,-1
 220 1257 l 2,40,41
 220 1351 220 1351 50 1405 c 1,42,43
 50 1417 50 1417 50 1419 c 1,44,45
 304 1530 304 1530 600 1530 c 0,46,47
 864 1530 864 1530 990 1400 c 0,48,49
 1084 1303 1084 1303 1084 1178 c 0,50,51
 1084 1045 1084 1045 974 940 c 0,52,53
 927 895 927 895 861 865 c 1,54,55
 962 847 962 847 1056 790 c 16,56,57
 1245 677 1245 677 1245 457 c 0,58,59
 1245 258 1245 258 1064 106 c 0,60,61
 913 -20 913 -20 600 -20 c 0,33,34
EndSplineSet
Validated: 1
EndChar

StartChar: uni1E03
Encoding: 7683 7683 178
Width: 1240
Flags: W
HStem: -20 91<447.303 756.576> 1029 91<447.575 756.825> 1510 20G<311.5 400> 1600 264<213.191 394.809>
VStem: 174 260<1639.71 1824.81> 220 180<160.5 980.878 1113 1356.5> 940 210<311.597 788.403>
LayerCount: 2
Fore
SplineSet
304 1864 m 128,-1,1
 358 1864 358 1864 396 1826 c 128,-1,2
 434 1788 434 1788 434 1732.5 c 128,-1,3
 434 1677 434 1677 396 1638.5 c 128,-1,4
 358 1600 358 1600 304 1600 c 128,-1,5
 250 1600 250 1600 212 1638.5 c 128,-1,6
 174 1677 174 1677 174 1732.5 c 128,-1,7
 174 1788 174 1788 212 1826 c 128,-1,0
 250 1864 250 1864 304 1864 c 128,-1,1
581 71 m 0,8,9
 776 71 776 71 866 225 c 0,10,11
 940 352 940 352 940 550 c 128,-1,12
 940 748 940 748 866 875 c 0,13,14
 777 1029 777 1029 581 1029 c 0,15,16
 400 1029 400 1029 400 848 c 2,17,-1
 400 252 l 2,18,19
 400 71 400 71 581 71 c 0,8,9
521 -20 m 0,20,21
 282 -20 282 -20 50 91 c 1,22,-1
 50 105 l 1,23,24
 220 142 220 142 220 253 c 2,25,-1
 220 1264 l 2,26,27
 220 1375 220 1375 50 1412 c 1,28,-1
 50 1426 l 1,29,30
 223 1509 223 1509 400 1530 c 9,31,-1
 400 1113 l 1,32,33
 460 1120 460 1120 521 1120 c 0,34,35
 814 1120 814 1120 988 959 c 0,36,37
 1150 809 1150 809 1150 550 c 128,-1,38
 1150 291 1150 291 988 141 c 0,39,40
 814 -20 814 -20 521 -20 c 0,20,21
EndSplineSet
Validated: 1
EndChar

StartChar: uni1E0A
Encoding: 7690 7690 179
Width: 1454
Flags: W
HStem: -20 92<488.554 844> 1438 92<488.554 848.087> 1600 264<586.191 767.809>
VStem: 220 200<169 1341> 547 260<1639.71 1824.81> 1130 234<465.875 1048.35>
LayerCount: 2
Fore
SplineSet
677 1864 m 128,-1,1
 731 1864 731 1864 769 1826 c 128,-1,2
 807 1788 807 1788 807 1732.5 c 128,-1,3
 807 1677 807 1677 769 1638.5 c 128,-1,4
 731 1600 731 1600 677 1600 c 128,-1,5
 623 1600 623 1600 585 1638.5 c 128,-1,6
 547 1677 547 1677 547 1732.5 c 128,-1,7
 547 1788 547 1788 585 1826 c 128,-1,0
 623 1864 623 1864 677 1864 c 128,-1,1
662 72 m 0,8,9
 905 72 905 72 1032 311 c 0,10,11
 1130 495 1130 495 1130 756 c 0,12,13
 1130 1015 1130 1015 1032 1199 c 0,14,15
 905 1438 905 1438 662 1438 c 0,16,17
 553 1438 553 1438 491 1397 c 0,18,19
 420 1350 420 1350 420 1257 c 2,20,-1
 420 253 l 2,21,22
 420 158 420 158 491 113 c 0,23,24
 556 72 556 72 662 72 c 0,8,9
600 -20 m 0,25,26
 304 -20 304 -20 50 91 c 1,27,-1
 50 105 l 1,28,29
 220 159 220 159 220 253 c 2,30,-1
 220 1257 l 2,31,32
 220 1351 220 1351 50 1405 c 1,33,-1
 50 1419 l 1,34,35
 304 1530 304 1530 600 1530 c 0,36,37
 977 1530 977 1530 1190 1280 c 0,38,39
 1364 1075 1364 1075 1364 755 c 0,40,41
 1364 438 1364 438 1190 230 c 0,42,43
 981 -20 981 -20 600 -20 c 0,25,26
EndSplineSet
Validated: 1
EndChar

StartChar: uni1E0B
Encoding: 7691 7691 180
Width: 1240
Flags: W
HStem: -20 91<483.175 792.697> 1029 91<483.424 792.425> 1510 20G<931.5 1020> 1600 264<826.191 1007.81>
VStem: 90 210<311.597 788.403> 787 260<1639.71 1824.81> 840 180<160.5 980.878 1113 1356.5>
LayerCount: 2
Fore
SplineSet
917 1864 m 128,-1,1
 971 1864 971 1864 1009 1826 c 128,-1,2
 1047 1788 1047 1788 1047 1732.5 c 128,-1,3
 1047 1677 1047 1677 1009 1638.5 c 128,-1,4
 971 1600 971 1600 917 1600 c 128,-1,5
 863 1600 863 1600 825 1638.5 c 128,-1,6
 787 1677 787 1677 787 1732.5 c 128,-1,7
 787 1788 787 1788 825 1826 c 128,-1,0
 863 1864 863 1864 917 1864 c 128,-1,1
719 -20 m 0,8,9
 426 -20 426 -20 252 141 c 0,10,11
 90 291 90 291 90 550 c 128,-1,12
 90 809 90 809 252 959 c 0,13,14
 426 1120 426 1120 719 1120 c 0,15,16
 780 1120 780 1120 840 1113 c 1,17,-1
 840 1264 l 2,18,19
 840 1375 840 1375 670 1412 c 1,20,-1
 670 1426 l 1,21,22
 843 1509 843 1509 1020 1530 c 1,23,-1
 1020 253 l 2,24,25
 1020 142 1020 142 1190 105 c 1,26,-1
 1190 91 l 1,27,28
 958 -20 958 -20 719 -20 c 0,8,9
659 71 m 0,29,30
 840 71 840 71 840 252 c 2,31,-1
 840 848 l 2,32,33
 840 1029 840 1029 659 1029 c 0,34,35
 464 1029 464 1029 374 875 c 0,36,37
 300 748 300 748 300 550 c 128,-1,38
 300 352 300 352 374 225 c 0,39,40
 463 71 463 71 659 71 c 0,29,30
EndSplineSet
Validated: 1
EndChar

StartChar: uni1E1E
Encoding: 7710 7710 181
Width: 1172
Flags: W
HStem: 0 15<50 70.5859 569.414 590> 545 90<420 682.374> 1420 90<437.154 885.191> 1495 15<50 70.5859> 1600 264<520.191 701.809>
VStem: 220 200<95.75 545 635 1413.75> 481 260<1639.71 1824.81>
LayerCount: 2
Fore
SplineSet
611 1864 m 128,-1,1
 665 1864 665 1864 703 1826 c 128,-1,2
 741 1788 741 1788 741 1732.5 c 128,-1,3
 741 1677 741 1677 703 1638.5 c 128,-1,4
 665 1600 665 1600 611 1600 c 128,-1,5
 557 1600 557 1600 519 1638.5 c 128,-1,6
 481 1677 481 1677 481 1732.5 c 128,-1,7
 481 1788 481 1788 519 1826 c 128,-1,0
 557 1864 557 1864 611 1864 c 128,-1,1
50 0 m 1,8,-1
 50 15 l 1,9,10
 220 59 220 59 220 250 c 2,11,-1
 220 1260 l 2,12,13
 220 1450 220 1450 50 1495 c 1,14,-1
 50 1510 l 1,15,-1
 976 1510 l 1,16,-1
 1162 1188 l 1,17,-1
 1147 1188 l 1,18,19
 923 1420 923 1420 668 1420 c 2,20,-1
 458 1420 l 1,21,22
 420 1362 420 1362 420 1260 c 2,23,-1
 420 635 l 1,24,-1
 584 635 l 2,25,26
 799 635 799 635 987 831 c 1,27,-1
 1002 831 l 1,28,-1
 733 360 l 1,29,-1
 718 360 l 1,30,31
 718 545 718 545 584 545 c 2,32,-1
 420 545 l 1,33,-1
 420 250 l 2,34,35
 420 59 420 59 590 15 c 1,36,-1
 590 0 l 1,37,-1
 50 0 l 1,8,-1
EndSplineSet
Validated: 1
EndChar

StartChar: uni1E1F
Encoding: 7711 7711 182
Width: 1002
Flags: W
HStem: 0 15<50 70.5859 549.414 570> 653 90<400 623.406> 1439 91<447.303 761.664> 1600 264<488.191 669.809>
VStem: 220 180<96.75 653 743 1349.5> 449 260<1639.71 1824.81> 967 15<1012 1048.2>
LayerCount: 2
Fore
SplineSet
579 1864 m 128,-1,1
 633 1864 633 1864 671 1826 c 128,-1,2
 709 1788 709 1788 709 1732.5 c 128,-1,3
 709 1677 709 1677 671 1638.5 c 128,-1,4
 633 1600 633 1600 579 1600 c 128,-1,5
 525 1600 525 1600 487 1638.5 c 128,-1,6
 449 1677 449 1677 449 1732.5 c 128,-1,7
 449 1788 449 1788 487 1826 c 128,-1,0
 525 1864 525 1864 579 1864 c 128,-1,1
50 0 m 1,8,-1
 50 15 l 1,9,10
 220 61 220 61 220 250 c 2,11,-1
 220 1257 l 2,12,13
 220 1368 220 1368 50 1405 c 1,14,-1
 50 1419 l 1,15,16
 282 1530 282 1530 521 1530 c 0,17,18
 811 1530 811 1530 982 1364 c 1,19,-1
 982 1012 l 1,20,-1
 967 1012 l 1,21,22
 943 1158 943 1158 871 1285 c 0,23,24
 784 1439 784 1439 581 1439 c 0,25,26
 400 1439 400 1439 400 1258 c 2,27,-1
 400 743 l 1,28,-1
 628 743 l 2,29,30
 718 743 718 743 813 836 c 1,31,-1
 828 836 l 1,32,-1
 649 542 l 1,33,-1
 634 542 l 1,34,35
 630 653 630 653 572 653 c 2,36,-1
 400 653 l 1,37,-1
 400 250 l 2,38,39
 400 59 400 59 570 15 c 1,40,-1
 570 0 l 1,41,-1
 50 0 l 1,8,-1
EndSplineSet
Validated: 1
EndChar

StartChar: uni1E40
Encoding: 7744 7744 183
Width: 2052
Flags: W
HStem: 0 15<10 27.5415 475.711 491 1443 1459.75 2024.46 2042> 1600 264<931.191 1112.81>
VStem: 892 260<1639.71 1824.81>
DStem2: 226 250 327 250 0.14834 0.988936<-25.3602 837.234> 436 1550 450 1063 0.435392 -0.900241<444.513 1391.85> 1042 297 1001 -40 0.41648 0.909145<0 892.608> 1631 1550 1500 1069 0.14834 -0.988936<456.246 1322.86>
LayerCount: 2
Fore
SplineSet
1022 1864 m 128,-1,1
 1076 1864 1076 1864 1114 1826 c 128,-1,2
 1152 1788 1152 1788 1152 1732.5 c 128,-1,3
 1152 1677 1152 1677 1114 1638.5 c 128,-1,4
 1076 1600 1076 1600 1022 1600 c 128,-1,5
 968 1600 968 1600 930 1638.5 c 128,-1,6
 892 1677 892 1677 892 1732.5 c 128,-1,7
 892 1788 892 1788 930 1826 c 128,-1,0
 968 1864 968 1864 1022 1864 c 128,-1,1
10 0 m 1,8,-1
 10 15 l 17,9,10
 201 84 201 84 226 250 c 2,11,-1
 421 1550 l 1,12,-1
 436 1550 l 1,13,-1
 1042 297 l 1,14,-1
 1616 1550 l 1,15,-1
 1631 1550 l 1,16,-1
 1826 250 l 2,17,18
 1851 84 1851 84 2042 15 c 1,19,20
 2042 9 2042 9 2042 0 c 1,21,-1
 1443 0 l 1,22,-1
 1443 15 l 1,23,24
 1626 74 1626 74 1626 211 c 0,25,26
 1626 230 1626 230 1623 250 c 2,27,-1
 1500 1069 l 1,28,-1
 1001 -40 l 1,29,-1
 986 -40 l 1,30,-1
 450 1063 l 1,31,-1
 327 250 l 2,32,33
 324 230 324 230 324 209 c 0,34,35
 324 73 324 73 491 15 c 1,36,-1
 491 0 l 1,37,-1
 10 0 l 1,8,-1
EndSplineSet
Validated: 1
EndChar

StartChar: uni1E41
Encoding: 7745 7745 184
Width: 2010
Flags: W
HStem: -20 21G<1645 1736.5> 0 15<50 70.5859 549.414 570 775 795.586 1274.41 1295> 1029 91<447.303 762.129 1174.12 1469.09> 1180 264<883.191 1064.81>
VStem: 220 180<96.75 939.5> 844 260<1219.71 1404.81> 945 180<96.75 811.569> 1645 185<153.5 798.691>
LayerCount: 2
Fore
SplineSet
974 1444 m 128,-1,1
 1028 1444 1028 1444 1066 1406 c 128,-1,2
 1104 1368 1104 1368 1104 1312.5 c 128,-1,3
 1104 1257 1104 1257 1066 1218.5 c 128,-1,4
 1028 1180 1028 1180 974 1180 c 128,-1,5
 920 1180 920 1180 882 1218.5 c 128,-1,6
 844 1257 844 1257 844 1312.5 c 128,-1,7
 844 1368 844 1368 882 1406 c 128,-1,0
 920 1444 920 1444 974 1444 c 128,-1,1
50 0 m 1,8,-1
 50 15 l 1,9,10
 220 61 220 61 220 250 c 2,11,-1
 220 847 l 2,12,13
 220 958 220 958 50 995 c 1,14,-1
 50 1009 l 1,15,16
 282 1120 282 1120 521 1120 c 0,17,18
 795 1120 795 1120 964 972 c 1,19,20
 1063 1120 1063 1120 1246 1120 c 0,21,22
 1524 1120 1524 1120 1687 954 c 0,23,24
 1830 808 1830 808 1830 550 c 2,25,-1
 1830 246 l 2,26,27
 1830 135 1830 135 2000 98 c 1,28,-1
 2000 84 l 1,29,30
 1828 2 1828 2 1645 -20 c 1,31,-1
 1645 550 l 2,32,33
 1645 739 1645 739 1571 875 c 0,34,35
 1487 1029 1487 1029 1306 1029 c 128,-1,36
 1125 1029 1125 1029 1125 848 c 2,37,-1
 1125 250 l 2,38,39
 1125 59 1125 59 1295 15 c 1,40,-1
 1295 0 l 1,41,-1
 775 0 l 1,42,-1
 775 15 l 1,43,44
 945 61 945 61 945 250 c 2,45,-1
 945 550 l 2,46,47
 945 748 945 748 871 875 c 0,48,49
 781 1029 781 1029 581 1029 c 0,50,51
 400 1029 400 1029 400 848 c 2,52,-1
 400 250 l 2,53,54
 400 59 400 59 570 15 c 1,55,-1
 570 0 l 1,56,-1
 50 0 l 1,8,-1
EndSplineSet
Validated: 1
EndChar

StartChar: uni1E56
Encoding: 7766 7766 185
Width: 1306
Flags: W
HStem: 0 15<50 70.5859 569.414 590> 490 91<486.285 826.909> 1438 92<488.719 825.396> 1600 264<571.191 752.809>
VStem: 220 200<96 565 646.131 1341> 532 260<1639.71 1824.81> 1011 225<802.419 1227.69>
LayerCount: 2
Fore
SplineSet
662 1864 m 128,-1,1
 716 1864 716 1864 754 1826 c 128,-1,2
 792 1788 792 1788 792 1732.5 c 128,-1,3
 792 1677 792 1677 754 1638.5 c 128,-1,4
 716 1600 716 1600 662 1600 c 128,-1,5
 608 1600 608 1600 570 1638.5 c 128,-1,6
 532 1677 532 1677 532 1732.5 c 128,-1,7
 532 1788 532 1788 570 1826 c 128,-1,0
 608 1864 608 1864 662 1864 c 128,-1,1
50 0 m 1,8,-1
 50 15 l 1,9,10
 220 60 220 60 220 249 c 2,11,-1
 220 1257 l 2,12,13
 220 1351 220 1351 50 1405 c 1,14,15
 50 1417 50 1417 50 1419 c 1,16,17
 307 1530 307 1530 574 1530 c 0,18,19
 893 1530 893 1530 1067 1385 c 0,20,21
 1236 1244 1236 1244 1236 1016.5 c 128,-1,22
 1236 789 1236 789 1067 635 c 0,23,24
 908 490 908 490 664 490 c 0,25,26
 518 490 518 490 420 565 c 1,27,-1
 420 250 l 2,28,29
 420 59 420 59 590 15 c 1,30,-1
 590 0 l 1,31,-1
 50 0 l 1,8,-1
420 762 m 2,32,33
 420 673 420 673 491 622 c 0,34,35
 548 581 548 581 652 581 c 0,36,37
 837 581 837 581 940 732 c 0,38,39
 1011 835 1011 835 1011 1010 c 0,40,41
 1011 1184 1011 1184 940 1287 c 0,42,43
 837 1438 837 1438 652 1438 c 0,44,45
 548 1438 548 1438 491 1397 c 0,46,47
 420 1346 420 1346 420 1257 c 2,48,-1
 420 762 l 2,32,33
EndSplineSet
Validated: 1
EndChar

StartChar: uni1E57
Encoding: 7767 7767 186
Width: 1240
VWidth: 1638
Flags: W
HStem: -410 15<50 70.5859 549.414 570> -20 91<447.575 756.576> 1029 91<447.303 756.825> 1180 264<526.191 707.809>
VStem: 220 180<-313.75 -13 119.122 939.5> 487 260<1219.71 1404.81> 940 210<311.597 788.403>
LayerCount: 2
Fore
SplineSet
617 1444 m 128,-1,1
 671 1444 671 1444 709 1406 c 128,-1,2
 747 1368 747 1368 747 1312.5 c 128,-1,3
 747 1257 747 1257 709 1218.5 c 128,-1,4
 671 1180 671 1180 617 1180 c 128,-1,5
 563 1180 563 1180 525 1218.5 c 128,-1,6
 487 1257 487 1257 487 1312.5 c 128,-1,7
 487 1368 487 1368 525 1406 c 128,-1,0
 563 1444 563 1444 617 1444 c 128,-1,1
581 71 m 0,8,9
 776 71 776 71 866 225 c 0,10,11
 940 352 940 352 940 550 c 128,-1,12
 940 748 940 748 866 875 c 0,13,14
 777 1029 777 1029 581 1029 c 0,15,16
 400 1029 400 1029 400 848 c 2,17,-1
 400 252 l 2,18,19
 400 71 400 71 581 71 c 0,8,9
50 -410 m 1,20,-1
 50 -395 l 1,21,22
 220 -350 220 -350 220 -160 c 2,23,-1
 220 847 l 2,24,25
 220 958 220 958 50 995 c 1,26,-1
 50 1009 l 1,27,28
 282 1120 282 1120 521 1120 c 0,29,30
 814 1120 814 1120 988 959 c 0,31,32
 1150 809 1150 809 1150 550 c 128,-1,33
 1150 291 1150 291 988 141 c 0,34,35
 814 -20 814 -20 521 -20 c 0,36,37
 460 -20 460 -20 400 -13 c 1,38,-1
 400 -160 l 2,39,40
 400 -351 400 -351 570 -395 c 1,41,-1
 570 -410 l 1,42,-1
 50 -410 l 1,20,-1
EndSplineSet
Validated: 1
EndChar

StartChar: uni1E60
Encoding: 7776 7776 187
Width: 1241
Flags: W
HStem: -20 92<410.575 782.38> 1442 88<469.881 763.375> 1600 264<500.191 681.809>
VStem: 90 15<-20 7.19336 532.487 566> 192 188<1103.98 1353.76> 461 260<1639.71 1824.81> 944 15<1080 1104.57> 947 204<259.825 543.598>
DStem2: 577 995 491 800 0.91662 -0.399759<-192.117 429.944>
LayerCount: 2
Fore
SplineSet
591 1864 m 128,-1,1
 645 1864 645 1864 683 1826 c 128,-1,2
 721 1788 721 1788 721 1732.5 c 128,-1,3
 721 1677 721 1677 683 1638.5 c 128,-1,4
 645 1600 645 1600 591 1600 c 128,-1,5
 537 1600 537 1600 499 1638.5 c 128,-1,6
 461 1677 461 1677 461 1732.5 c 128,-1,7
 461 1788 461 1788 499 1826 c 128,-1,0
 537 1864 537 1864 591 1864 c 128,-1,1
606 -20 m 0,8,9
 448 -20 448 -20 318 45 c 0,10,11
 240 84 240 84 200 84 c 0,12,13
 127 84 127 84 105 -20 c 1,14,-1
 90 -20 l 1,15,-1
 90 566 l 1,16,-1
 105 566 l 1,17,18
 145 348 145 348 269 220 c 0,19,20
 414 72 414 72 608 72 c 0,21,22
 770 72 770 72 873 191 c 0,23,24
 947 277 947 277 947 399 c 0,25,26
 947 591 947 591 694 707 c 2,27,-1
 491 800 l 2,28,29
 192 937 192 937 192 1189 c 0,30,31
 192 1335 192 1335 306 1437 c 0,32,33
 409 1530 409 1530 569 1530 c 0,34,35
 663 1530 663 1530 737 1499 c 0,36,37
 825 1463 825 1463 868 1463 c 0,38,39
 912 1463 912 1463 944 1530 c 1,40,-1
 959 1530 l 1,41,-1
 959 1080 l 1,42,-1
 944 1080 l 1,43,44
 907 1213 907 1213 850 1304 c 0,45,46
 763 1442 763 1442 621 1442 c 0,47,48
 514 1442 514 1442 448 1382 c 0,49,50
 380 1320 380 1320 380 1223 c 0,51,52
 380 1081 380 1081 577 995 c 2,53,-1
 804 896 l 2,54,55
 1151 745 1151 745 1151 463 c 0,56,57
 1151 251 1151 251 990 106 c 0,58,59
 851 -20 851 -20 606 -20 c 0,8,9
EndSplineSet
Validated: 1
EndChar

StartChar: uni1E61
Encoding: 7777 7777 188
Width: 990
Flags: W
HStem: -20 86<315.584 615.824> 1037 83<388.108 626.633> 1180 264<390.191 571.809>
VStem: 90 15<-20 4.19922 417.085 453> 181 165<810.326 1002.85> 351 260<1219.71 1404.81> 720 180<176.583 423.21> 750 15<768 805.575>
DStem2: 491 744 396 580 0.908896 -0.417023<-167.259 332.456>
LayerCount: 2
Fore
SplineSet
481 1444 m 128,-1,1
 535 1444 535 1444 573 1406 c 128,-1,2
 611 1368 611 1368 611 1312.5 c 128,-1,3
 611 1257 611 1257 573 1218.5 c 128,-1,4
 535 1180 535 1180 481 1180 c 128,-1,5
 427 1180 427 1180 389 1218.5 c 128,-1,6
 351 1257 351 1257 351 1312.5 c 128,-1,7
 351 1368 351 1368 389 1406 c 128,-1,0
 427 1444 427 1444 481 1444 c 128,-1,1
472 -20 m 0,8,9
 355 -20 355 -20 249 39 c 0,10,11
 204 64 204 64 178 64 c 0,12,13
 126 64 126 64 105 -20 c 1,14,-1
 90 -20 l 1,15,-1
 90 453 l 1,16,-1
 105 453 l 1,17,18
 138 257 138 257 250 156 c 0,19,20
 350 66 350 66 474 66 c 0,21,22
 581 66 581 66 656 141 c 0,23,24
 720 205 720 205 720 304 c 0,25,26
 720 431 720 431 566 502 c 2,27,-1
 396 580 l 2,28,29
 181 679 181 679 181 860 c 0,30,31
 181 980 181 980 277 1057 c 0,32,33
 357 1120 357 1120 468 1120 c 0,34,35
 550 1120 550 1120 611 1090 c 0,36,37
 652 1070 652 1070 685 1070 c 0,38,39
 734 1070 734 1070 750 1120 c 1,40,-1
 765 1120 l 1,41,-1
 765 768 l 1,42,-1
 750 768 l 1,43,44
 737 861 737 861 673 949 c 128,-1,45
 609 1037 609 1037 498 1037 c 0,46,47
 433 1037 433 1037 392 1005 c 0,48,49
 346 969 346 969 346 901 c 0,50,51
 346 812 346 812 491 744 c 2,52,-1
 645 672 l 2,53,54
 900 553 900 553 900 341 c 0,55,56
 900 187 900 187 772 78 c 0,57,58
 656 -20 656 -20 472 -20 c 0,8,9
EndSplineSet
Validated: 1
EndChar

StartChar: uni1E6A
Encoding: 7786 7786 189
Width: 1375
Flags: W
HStem: 0 15<418 438.586 937.414 958> 1420 90<286.316 570.846 805.154 1088.51> 1600 264<595.191 776.809>
VStem: 556 260<1639.71 1824.81> 588 200<96.25 1418.18>
LayerCount: 2
Fore
SplineSet
686 1864 m 128,-1,1
 740 1864 740 1864 778 1826 c 128,-1,2
 816 1788 816 1788 816 1732.5 c 128,-1,3
 816 1677 816 1677 778 1638.5 c 128,-1,4
 740 1600 740 1600 686 1600 c 128,-1,5
 632 1600 632 1600 594 1638.5 c 128,-1,6
 556 1677 556 1677 556 1732.5 c 128,-1,7
 556 1788 556 1788 594 1826 c 128,-1,0
 632 1864 632 1864 686 1864 c 128,-1,1
418 0 m 1,8,-1
 418 15 l 1,9,10
 588 60 588 60 588 250 c 2,11,-1
 588 1260 l 2,12,13
 588 1362 588 1362 550 1420 c 1,14,-1
 504 1420 l 2,15,16
 248 1420 248 1420 25 1188 c 1,17,-1
 10 1188 l 1,18,-1
 196 1510 l 1,19,-1
 1180 1510 l 1,20,-1
 1365 1188 l 1,21,-1
 1350 1188 l 1,22,23
 1126 1420 1126 1420 872 1420 c 2,24,-1
 826 1420 l 1,25,26
 788 1362 788 1362 788 1260 c 2,27,-1
 788 250 l 2,28,29
 788 59 788 59 958 15 c 1,30,-1
 958 0 l 1,31,-1
 418 0 l 1,8,-1
EndSplineSet
Validated: 1
EndChar

StartChar: uni1E6B
Encoding: 7787 7787 190
Width: 886
Flags: W
HStem: 0 15<188 208.586 677.414 698> 1010 90<214.594 358 528 671.406> 1510 20G<444.5 528> 1600 264<345.191 526.809>
VStem: 306 260<1639.71 1824.81> 358 170<96.25 1010 1100 1356.5>
LayerCount: 2
Fore
SplineSet
436 1864 m 128,-1,1
 490 1864 490 1864 528 1826 c 128,-1,2
 566 1788 566 1788 566 1732.5 c 128,-1,3
 566 1677 566 1677 528 1638.5 c 128,-1,4
 490 1600 490 1600 436 1600 c 128,-1,5
 382 1600 382 1600 344 1638.5 c 128,-1,6
 306 1677 306 1677 306 1732.5 c 128,-1,7
 306 1788 306 1788 344 1826 c 128,-1,0
 382 1864 382 1864 436 1864 c 128,-1,1
188 0 m 1,8,-1
 188 15 l 1,9,10
 358 60 358 60 358 250 c 2,11,-1
 358 1010 l 1,12,-1
 210 1010 l 2,13,14
 120 1010 120 1010 25 917 c 1,15,-1
 10 917 l 1,16,-1
 189 1211 l 1,17,-1
 204 1211 l 1,18,19
 208 1100 208 1100 266 1100 c 2,20,-1
 358 1100 l 1,21,-1
 358 1264 l 2,22,23
 358 1375 358 1375 188 1412 c 1,24,-1
 188 1426 l 1,25,26
 361 1509 361 1509 528 1530 c 1,27,-1
 528 1100 l 1,28,-1
 676 1100 l 2,29,30
 766 1100 766 1100 861 1193 c 1,31,-1
 876 1193 l 1,32,-1
 697 899 l 1,33,-1
 682 899 l 1,34,35
 678 1010 678 1010 620 1010 c 2,36,-1
 528 1010 l 1,37,-1
 528 250 l 2,38,39
 528 59 528 59 698 15 c 1,40,-1
 698 0 l 1,41,-1
 188 0 l 1,8,-1
EndSplineSet
Validated: 1
EndChar

StartChar: Wgrave
Encoding: 7808 7808 191
Width: 2369
Flags: W
HStem: 1495 15<10 27.1797 564.562 582 1897 1914.32 2341.7 2359>
DStem2: 998 1510 786 1510 0.422725 -0.906258<0 559.236 691.659 720.148 852.571 1345.74> 907 301 845 -40 0.423076 -0.906094<-1139.79 0> 907 301 860 -40 0.422245 0.906482<0 438.763 774.424 1334.08> 1566 290 1524 -40 0.422504 0.906361<0 1150.95>
LayerCount: 2
Fore
SplineSet
993 1904 m 0,0,1
 1046 1904 1046 1904 1074 1859 c 2,2,-1
 1236 1598 l 1,3,-1
 1220 1580 l 1,4,-1
 943 1736 l 2,5,6
 900 1760 900 1760 900 1811 c 0,7,8
 900 1848 900 1848 925 1876 c 128,-1,9
 950 1904 950 1904 993 1904 c 0,0,1
845 -40 m 1,10,-1
 238 1260 l 2,11,12
 149 1451 149 1451 10 1495 c 1,13,-1
 10 1510 l 1,14,-1
 582 1510 l 1,15,-1
 582 1495 l 1,16,17
 438 1439 438 1439 438 1341 c 0,18,19
 438 1307 438 1307 460 1260 c 2,20,-1
 907 301 l 1,21,-1
 1128 776 l 1,22,-1
 786 1510 l 1,23,-1
 998 1510 l 1,24,-1
 1234 1003 l 1,25,-1
 1471 1510 l 1,26,-1
 1582 1510 l 1,27,-1
 1290 883 l 1,28,-1
 1566 290 l 1,29,-1
 2019 1260 l 2,30,31
 2040 1305 2040 1305 2040 1340 c 0,32,33
 2040 1440 2040 1440 1897 1495 c 1,34,-1
 1897 1510 l 1,35,-1
 2359 1510 l 1,36,-1
 2359 1495 l 1,37,38
 2219 1451 2219 1451 2130 1260 c 2,39,-1
 1524 -40 l 1,40,-1
 1509 -40 l 1,41,-1
 1184 656 l 1,42,-1
 860 -40 l 1,43,-1
 845 -40 l 1,10,-1
EndSplineSet
Validated: 1
EndChar

StartChar: wgrave
Encoding: 7809 7809 192
Width: 1962
Flags: W
HStem: -20 91<449.288 763.103 1177.5 1486.31> 1100 20G<311.5 400 1036.5 1125 1585.78 1749>
VStem: 220 180<119.482 946.5> 945 180<288.431 946.5> 1682 190<329.176 790.554>
LayerCount: 2
Fore
SplineSet
797 1484 m 0,0,1
 850 1484 850 1484 878 1439 c 2,2,-1
 1040 1178 l 1,3,-1
 1024 1160 l 1,4,-1
 747 1316 l 2,5,6
 704 1340 704 1340 704 1391 c 0,7,8
 704 1428 704 1428 729 1456 c 128,-1,9
 754 1484 754 1484 797 1484 c 0,0,1
521 -20 m 0,10,11
 220 -20 220 -20 220 250 c 2,12,-1
 220 854 l 2,13,14
 220 965 220 965 50 1002 c 1,15,-1
 50 1016 l 1,16,17
 223 1099 223 1099 400 1120 c 9,18,-1
 400 252 l 2,19,20
 400 71 400 71 581 71 c 0,21,22
 781 71 781 71 871 225 c 0,23,24
 945 352 945 352 945 550 c 2,25,-1
 945 854 l 2,26,27
 945 965 945 965 775 1002 c 1,28,-1
 775 1016 l 1,29,30
 948 1099 948 1099 1125 1120 c 9,31,-1
 1125 252 l 2,32,33
 1125 71 1125 71 1326 71 c 0,34,35
 1493 71 1493 71 1596 225 c 0,36,37
 1682 354 1682 354 1682 570 c 0,38,39
 1682 847 1682 847 1447 1031 c 1,40,-1
 1626 1120 l 1,41,42
 1872 886 1872 886 1872 570 c 0,43,44
 1872 314 1872 314 1707 146 c 0,45,46
 1544 -20 1544 -20 1266 -20 c 0,47,48
 1063 -20 1063 -20 964 128 c 1,49,50
 785 -20 785 -20 521 -20 c 0,10,11
EndSplineSet
Validated: 1
EndChar

StartChar: Wacute
Encoding: 7810 7810 193
Width: 2369
Flags: W
HStem: 1495 15<10 27.1797 564.562 582 1897 1914.32 2341.7 2359>
DStem2: 998 1510 786 1510 0.422725 -0.906258<0 559.236 691.659 720.148 852.571 1345.74> 907 301 845 -40 0.423076 -0.906094<-1139.79 0> 907 301 860 -40 0.422245 0.906482<0 438.763 774.424 1334.08> 1566 290 1524 -40 0.422504 0.906361<0 1150.95>
LayerCount: 2
Fore
SplineSet
1461 1904 m 0,0,1
 1504 1904 1504 1904 1529 1876 c 128,-1,2
 1554 1848 1554 1848 1554 1811 c 0,3,4
 1554 1760 1554 1760 1511 1736 c 2,5,6
 1234 1580 l 1,7,-1
 1218 1598 l 1,8,-1
 1380 1859 l 2,9,10
 1408 1904 1408 1904 1461 1904 c 0,0,1
845 -40 m 1,11,-1
 238 1260 l 2,12,13
 149 1451 149 1451 10 1495 c 1,14,-1
 10 1510 l 1,15,-1
 582 1510 l 1,16,-1
 582 1495 l 1,17,18
 438 1439 438 1439 438 1341 c 0,19,20
 438 1307 438 1307 460 1260 c 2,21,-1
 907 301 l 1,22,-1
 1128 776 l 1,23,-1
 786 1510 l 1,24,-1
 998 1510 l 1,25,-1
 1234 1003 l 1,26,-1
 1471 1510 l 1,27,-1
 1582 1510 l 1,28,-1
 1290 883 l 1,29,-1
 1566 290 l 1,30,-1
 2019 1260 l 2,31,32
 2040 1305 2040 1305 2040 1340 c 0,33,34
 2040 1440 2040 1440 1897 1495 c 1,35,-1
 1897 1510 l 1,36,-1
 2359 1510 l 1,37,-1
 2359 1495 l 1,38,39
 2219 1451 2219 1451 2130 1260 c 2,40,-1
 1524 -40 l 1,41,-1
 1509 -40 l 1,42,-1
 1184 656 l 1,43,-1
 860 -40 l 1,44,-1
 845 -40 l 1,11,-1
EndSplineSet
Validated: 1
EndChar

StartChar: wacute
Encoding: 7811 7811 194
Width: 1962
Flags: W
HStem: -20 91<449.288 763.103 1177.5 1486.31> 1100 20G<311.5 400 1036.5 1125 1585.78 1749>
VStem: 220 180<119.482 946.5> 945 180<288.431 946.5> 1682 190<329.176 790.554>
LayerCount: 2
Fore
SplineSet
1207 1484 m 0,0,1
 1250 1484 1250 1484 1275 1456 c 128,-1,2
 1300 1428 1300 1428 1300 1391 c 0,3,4
 1300 1340 1300 1340 1257 1316 c 2,5,6
 980 1160 l 1,7,-1
 964 1178 l 1,8,-1
 1126 1439 l 2,9,10
 1154 1484 1154 1484 1207 1484 c 0,0,1
521 -20 m 0,11,12
 220 -20 220 -20 220 250 c 2,13,-1
 220 854 l 2,14,15
 220 965 220 965 50 1002 c 1,16,-1
 50 1016 l 1,17,18
 223 1099 223 1099 400 1120 c 9,19,-1
 400 252 l 2,20,21
 400 71 400 71 581 71 c 0,22,23
 781 71 781 71 871 225 c 0,24,25
 945 352 945 352 945 550 c 2,26,-1
 945 854 l 2,27,28
 945 965 945 965 775 1002 c 1,29,-1
 775 1016 l 1,30,31
 948 1099 948 1099 1125 1120 c 9,32,-1
 1125 252 l 2,33,34
 1125 71 1125 71 1326 71 c 0,35,36
 1493 71 1493 71 1596 225 c 0,37,38
 1682 354 1682 354 1682 570 c 0,39,40
 1682 847 1682 847 1447 1031 c 1,41,-1
 1626 1120 l 1,42,43
 1872 886 1872 886 1872 570 c 0,44,45
 1872 314 1872 314 1707 146 c 0,46,47
 1544 -20 1544 -20 1266 -20 c 0,48,49
 1063 -20 1063 -20 964 128 c 1,50,51
 785 -20 785 -20 521 -20 c 0,11,12
EndSplineSet
Validated: 1
EndChar

StartChar: Wdieresis
Encoding: 7812 7812 195
Width: 2369
Flags: W
HStem: 1495 15<10 27.1797 564.562 582 1897 1914.32 2341.7 2359> 1620 238<1000.07 1161.93 1303.1 1465.93>
VStem: 965 232<1655.07 1822.93> 1267 234<1655.58 1822.42>
DStem2: 998 1510 786 1510 0.422725 -0.906258<0 559.236 691.659 720.148 852.571 1345.74> 907 301 845 -40 0.423076 -0.906094<-1139.79 0> 907 301 860 -40 0.422245 0.906482<0 438.763 774.424 1334.08> 1566 290 1524 -40 0.422504 0.906361<0 1150.95>
LayerCount: 2
Fore
SplineSet
1385 1858 m 128,-1,1
 1433 1858 1433 1858 1467 1824 c 128,-1,2
 1501 1790 1501 1790 1501 1739 c 128,-1,3
 1501 1688 1501 1688 1467 1654 c 128,-1,4
 1433 1620 1433 1620 1385 1620 c 128,-1,5
 1337 1620 1337 1620 1302 1654.5 c 128,-1,6
 1267 1689 1267 1689 1267 1739 c 128,-1,7
 1267 1789 1267 1789 1302 1823.5 c 128,-1,0
 1337 1858 1337 1858 1385 1858 c 128,-1,1
1081 1858 m 128,-1,9
 1129 1858 1129 1858 1163 1824 c 128,-1,10
 1197 1790 1197 1790 1197 1739 c 128,-1,11
 1197 1688 1197 1688 1163 1654 c 128,-1,12
 1129 1620 1129 1620 1081 1620 c 128,-1,13
 1033 1620 1033 1620 999 1654 c 128,-1,14
 965 1688 965 1688 965 1739 c 128,-1,15
 965 1790 965 1790 999 1824 c 128,-1,8
 1033 1858 1033 1858 1081 1858 c 128,-1,9
845 -40 m 1,16,-1
 238 1260 l 2,17,18
 149 1451 149 1451 10 1495 c 1,19,-1
 10 1510 l 1,20,-1
 582 1510 l 1,21,-1
 582 1495 l 1,22,23
 438 1439 438 1439 438 1341 c 0,24,25
 438 1307 438 1307 460 1260 c 2,26,-1
 907 301 l 1,27,-1
 1128 776 l 1,28,-1
 786 1510 l 1,29,-1
 998 1510 l 1,30,-1
 1234 1003 l 1,31,-1
 1471 1510 l 1,32,-1
 1582 1510 l 1,33,-1
 1290 883 l 1,34,-1
 1566 290 l 1,35,-1
 2019 1260 l 2,36,37
 2040 1305 2040 1305 2040 1340 c 0,38,39
 2040 1440 2040 1440 1897 1495 c 1,40,-1
 1897 1510 l 1,41,-1
 2359 1510 l 1,42,-1
 2359 1495 l 1,43,44
 2219 1451 2219 1451 2130 1260 c 2,45,-1
 1524 -40 l 1,46,-1
 1509 -40 l 1,47,-1
 1184 656 l 1,48,-1
 860 -40 l 1,49,-1
 845 -40 l 1,16,-1
EndSplineSet
Validated: 1
EndChar

StartChar: wdieresis
Encoding: 7813 7813 196
Width: 1962
Flags: W
HStem: -20 91<449.288 763.103 1177.5 1486.31> 1100 20G<311.5 400 1036.5 1125 1585.78 1749> 1200 238<787.066 948.934 1090.1 1252.93>
VStem: 220 180<119.482 946.5> 752 232<1235.07 1402.93> 945 180<288.431 946.5> 1054 234<1235.58 1402.42> 1682 190<329.176 790.554>
LayerCount: 2
Fore
SplineSet
1172 1438 m 128,-1,1
 1220 1438 1220 1438 1254 1404 c 128,-1,2
 1288 1370 1288 1370 1288 1319 c 128,-1,3
 1288 1268 1288 1268 1254 1234 c 128,-1,4
 1220 1200 1220 1200 1172 1200 c 128,-1,5
 1124 1200 1124 1200 1089 1234.5 c 128,-1,6
 1054 1269 1054 1269 1054 1319 c 128,-1,7
 1054 1369 1054 1369 1089 1403.5 c 128,-1,0
 1124 1438 1124 1438 1172 1438 c 128,-1,1
868 1438 m 128,-1,9
 916 1438 916 1438 950 1404 c 128,-1,10
 984 1370 984 1370 984 1319 c 128,-1,11
 984 1268 984 1268 950 1234 c 128,-1,12
 916 1200 916 1200 868 1200 c 128,-1,13
 820 1200 820 1200 786 1234 c 128,-1,14
 752 1268 752 1268 752 1319 c 128,-1,15
 752 1370 752 1370 786 1404 c 128,-1,8
 820 1438 820 1438 868 1438 c 128,-1,9
521 -20 m 0,16,17
 220 -20 220 -20 220 250 c 2,18,-1
 220 854 l 2,19,20
 220 965 220 965 50 1002 c 1,21,-1
 50 1016 l 1,22,23
 223 1099 223 1099 400 1120 c 9,24,-1
 400 252 l 2,25,26
 400 71 400 71 581 71 c 0,27,28
 781 71 781 71 871 225 c 0,29,30
 945 352 945 352 945 550 c 2,31,-1
 945 854 l 2,32,33
 945 965 945 965 775 1002 c 1,34,-1
 775 1016 l 1,35,36
 948 1099 948 1099 1125 1120 c 9,37,-1
 1125 252 l 2,38,39
 1125 71 1125 71 1326 71 c 0,40,41
 1493 71 1493 71 1596 225 c 0,42,43
 1682 354 1682 354 1682 570 c 0,44,45
 1682 847 1682 847 1447 1031 c 1,46,-1
 1626 1120 l 1,47,48
 1872 886 1872 886 1872 570 c 0,49,50
 1872 314 1872 314 1707 146 c 0,51,52
 1544 -20 1544 -20 1266 -20 c 0,53,54
 1063 -20 1063 -20 964 128 c 1,55,56
 785 -20 785 -20 521 -20 c 0,16,17
EndSplineSet
Validated: 1
EndChar

StartChar: Ygrave
Encoding: 7922 7922 197
Width: 1595
Flags: W
HStem: 0 15<528 548.465 1045.54 1066> 1495 15<10 27.4922 560.631 580 1117 1136.52 1567.27 1585>
VStem: 697 200<95.75 507>
DStem2: 850 626 697 509 0.504657 -0.86332<-826.937 0> 850 626 897 507 0.503657 0.863904<0 826.791>
LayerCount: 2
Fore
SplineSet
625 1904 m 0,0,1
 678 1904 678 1904 706 1859 c 2,2,-1
 868 1598 l 1,3,-1
 852 1580 l 1,4,-1
 575 1736 l 2,5,6
 532 1760 532 1760 532 1811 c 0,7,8
 532 1848 532 1848 557 1876 c 128,-1,9
 582 1904 582 1904 625 1904 c 0,0,1
528 0 m 1,10,11
 528 9 528 9 528 15 c 1,12,13
 697 60 697 60 697 250 c 2,14,-1
 697 509 l 1,15,-1
 258 1260 l 2,16,17
 151 1443 151 1443 10 1495 c 1,18,-1
 10 1510 l 1,19,-1
 580 1510 l 1,20,-1
 580 1495 l 1,21,22
 451 1454 451 1454 451 1352 c 0,23,24
 451 1308 451 1308 479 1260 c 2,25,-1
 850 626 l 1,26,-1
 1219 1260 l 2,27,28
 1247 1308 1247 1308 1247 1353 c 0,29,30
 1247 1454 1247 1454 1117 1495 c 1,31,-1
 1117 1510 l 1,32,-1
 1585 1510 l 1,33,-1
 1585 1495 l 1,34,35
 1442 1441 1442 1441 1336 1260 c 2,36,-1
 897 507 l 1,37,-1
 897 250 l 2,38,39
 897 59 897 59 1066 15 c 1,40,-1
 1066 0 l 1,41,-1
 528 0 l 1,10,11
EndSplineSet
Validated: 1
EndChar

StartChar: ygrave
Encoding: 7923 7923 198
Width: 1285
Flags: W
HStem: -430 91<407.054 725.844> -20 91<545.785 858.139> 1100 20G<273.5 365 996.5 1085>
VStem: 180 185<297.839 946.5> 248 15<-78.5635 -46> 905 180<119.122 946.5>
LayerCount: 2
Fore
SplineSet
501 -430 m 0,0,1
 377 -430 377 -430 248 -398 c 1,2,-1
 248 -46 l 1,3,-1
 263 -46 l 1,4,5
 283 -152 283 -152 346 -235 c 0,6,7
 425 -339 425 -339 559 -339 c 0,8,9
 738 -339 738 -339 836 -187 c 0,10,11
 889 -104 889 -104 905 -8 c 1,12,13
 848 -20 848 -20 784 -20 c 0,14,15
 494 -20 494 -20 323 146 c 24,16,17
 180 285 180 285 180 550 c 2,18,-1
 180 854 l 2,19,20
 180 965 180 965 10 1002 c 1,21,-1
 10 1016 l 1,22,23
 182 1098 182 1098 365 1120 c 1,24,-1
 365 550 l 2,25,26
 365 352 365 352 439 225 c 0,27,28
 528 71 528 71 724 71 c 0,29,30
 905 71 905 71 905 252 c 2,31,-1
 905 854 l 2,32,33
 905 965 905 965 735 1002 c 1,34,-1
 735 1016 l 1,35,36
 908 1099 908 1099 1085 1120 c 9,37,-1
 1085 140 l 2,38,39
 1085 -125 1085 -125 942 -264 c 0,40,41
 771 -430 771 -430 501 -430 c 0,0,1
394 1484 m 0,42,43
 447 1484 447 1484 475 1439 c 2,44,-1
 637 1178 l 1,45,-1
 621 1160 l 1,46,-1
 344 1316 l 2,47,48
 301 1340 301 1340 301 1391 c 0,49,50
 301 1428 301 1428 326 1456 c 128,-1,51
 351 1484 351 1484 394 1484 c 0,42,43
EndSplineSet
Validated: 1
EndChar

StartChar: ae
Encoding: 230 230 199
Width: 1636
Flags: W
HStem: -20 88<375.104 675.565 965.947 1314.22> 602 90<448.284 727> 1030 90<353.144 641.683 958.872 1263.85>
VStem: 90 197<155.199 456.818> 203 15<733 763.016> 727 180<123.029 359 453 602 692 944> 1365 201<631.884 898.02>
DStem2: 907 453 907 359 0.95102 0.309131<0 452.445>
LayerCount: 2
Fore
SplineSet
546 -20 m 0,0,1
 321 -20 321 -20 211 64 c 0,2,3
 90 156 90 156 90 302 c 0,4,5
 90 473 90 473 236 581 c 0,6,7
 384 692 384 692 727 692 c 1,8,-1
 727 786 l 2,9,10
 727 909 727 909 659 972 c 0,11,12
 596 1030 596 1030 495 1030 c 0,13,14
 377 1030 377 1030 314 946 c 0,15,16
 245 855 245 855 218 733 c 1,17,-1
 203 733 l 1,18,-1
 203 1025 l 1,19,20
 342 1120 342 1120 523 1120 c 0,21,22
 672 1120 672 1120 776 1048 c 0,23,24
 792 1037 792 1037 807 1024 c 1,25,26
 946 1120 946 1120 1122 1120 c 0,27,28
 1326 1120 1326 1120 1453 989 c 0,29,30
 1566 872 1566 872 1566 727 c 0,31,32
 1566 573 1566 573 1390 516 c 2,33,-1
 907 359 l 1,34,-1
 907 157 l 1,35,36
 993 71 993 71 1132 71 c 0,37,38
 1380 71 1380 71 1522 316 c 1,39,-1
 1522 179 l 1,40,41
 1386 -20 1386 -20 1132 -20 c 0,42,43
 1003 -20 1003 -20 898 25 c 1,44,45
 736 -20 736 -20 546 -20 c 0,0,1
727 602 m 1,46,47
 474 602 474 602 381 515 c 0,48,49
 287 427 287 427 287 302 c 0,50,51
 287 186 287 186 364 119 c 0,52,53
 423 68 423 68 542 68 c 0,54,55
 727 68 727 68 727 252 c 2,56,-1
 727 602 l 1,46,47
907 453 m 1,57,-1
 1200 553 l 2,58,59
 1365 609 1365 609 1365 767 c 0,60,61
 1365 857 1365 857 1321 925 c 0,62,63
 1252 1029 1252 1029 1122 1029 c 0,64,65
 990 1029 990 1029 907 944 c 1,66,-1
 907 453 l 1,57,-1
EndSplineSet
Validated: 1
EndChar

StartChar: dcroat
Encoding: 273 273 200
Width: 1240
Flags: W
HStem: -20 91<483.175 792.697> 505 90<661 840 1020 1139> 1029 91<483.424 792.425> 1510 20G<931.5 1020>
VStem: 90 210<311.597 788.403> 840 180<160.5 505 595 980.878 1113 1356.5>
LayerCount: 2
Fore
SplineSet
659 71 m 0,0,1
 840 71 840 71 840 252 c 2,2,-1
 840 505 l 1,3,-1
 610 505 l 1,4,-1
 661 595 l 1,5,-1
 840 595 l 1,6,-1
 840 848 l 2,7,8
 840 1029 840 1029 659 1029 c 0,9,10
 464 1029 464 1029 374 875 c 0,11,12
 300 748 300 748 300 550 c 128,-1,13
 300 352 300 352 374 225 c 0,14,15
 463 71 463 71 659 71 c 0,0,1
719 -20 m 0,16,17
 426 -20 426 -20 252 141 c 0,18,19
 90 291 90 291 90 550 c 128,-1,20
 90 809 90 809 252 959 c 0,21,22
 426 1120 426 1120 719 1120 c 0,23,24
 780 1120 780 1120 840 1113 c 1,25,-1
 840 1264 l 2,26,27
 840 1375 840 1375 670 1412 c 1,28,-1
 670 1426 l 1,29,30
 843 1509 843 1509 1020 1530 c 1,31,-1
 1020 595 l 1,32,-1
 1190 595 l 1,33,-1
 1139 505 l 1,34,-1
 1020 505 l 1,35,-1
 1020 253 l 2,36,37
 1020 142 1020 142 1190 105 c 1,38,-1
 1190 91 l 1,39,40
 958 -20 958 -20 719 -20 c 0,16,17
EndSplineSet
Validated: 1
EndChar

StartChar: longs
Encoding: 383 383 201
Width: 1147
Flags: W
HStem: 0 15<195 215.586 694.414 715> 635 90<214.594 365> 1439 91<592.303 906.664>
VStem: 365 180<96.75 635 725 1349.5> 1112 15<1012 1048.2>
LayerCount: 2
Fore
SplineSet
195 0 m 1,0,-1
 195 15 l 1,1,2
 365 61 365 61 365 250 c 2,3,-1
 365 635 l 1,4,-1
 210 635 l 2,5,6
 120 635 120 635 25 542 c 1,7,-1
 10 542 l 1,8,-1
 189 836 l 1,9,-1
 204 836 l 1,10,11
 208 725 208 725 266 725 c 2,12,-1
 365 725 l 1,13,-1
 365 1257 l 2,14,15
 365 1368 365 1368 195 1405 c 1,16,-1
 195 1419 l 1,17,18
 427 1530 427 1530 666 1530 c 0,19,20
 956 1530 956 1530 1127 1364 c 1,21,-1
 1127 1012 l 1,22,-1
 1112 1012 l 1,23,24
 1088 1158 1088 1158 1016 1285 c 0,25,26
 929 1439 929 1439 726 1439 c 0,27,28
 545 1439 545 1439 545 1258 c 2,29,-1
 545 250 l 2,30,31
 545 59 545 59 715 15 c 1,32,-1
 715 0 l 1,33,-1
 195 0 l 1,0,-1
EndSplineSet
Validated: 1
EndChar

StartChar: florin
Encoding: 402 402 202
Width: 1002
Flags: W
HStem: -430 21G<-10 195> 653 90<400 623.406> 1439 91<447.303 761.664>
VStem: 220 180<-214.833 653 743 1349.5> 967 15<1012 1048.2>
LayerCount: 2
Fore
SplineSet
-10 -430 m 1,0,1
 -10 -415 l 1,2,3
 220 -289 220 -289 220 0 c 2,4,-1
 220 1257 l 2,5,6
 220 1368 220 1368 50 1405 c 1,7,-1
 50 1419 l 1,8,9
 282 1530 282 1530 521 1530 c 0,10,11
 811 1530 811 1530 982 1364 c 1,12,-1
 982 1012 l 1,13,-1
 967 1012 l 1,14,15
 943 1158 943 1158 871 1285 c 0,16,17
 784 1439 784 1439 581 1439 c 0,18,19
 400 1439 400 1439 400 1258 c 2,20,-1
 400 743 l 1,21,-1
 628 743 l 2,22,23
 718 743 718 743 813 836 c 1,24,-1
 828 836 l 1,25,-1
 649 542 l 1,26,-1
 634 542 l 1,27,28
 630 653 630 653 572 653 c 2,29,-1
 400 653 l 1,30,-1
 400 0 l 2,31,32
 400 -388 400 -388 -10 -430 c 1,0,1
EndSplineSet
Validated: 1
EndChar

StartChar: hbar
Encoding: 295 295 203
Width: 1305
Flags: W
HStem: -20 21G<940 1031.5> 0 15<50 70.5859 549.414 570> 505 90<101 220 400 579> 1029 91<447.575 758.966> 1510 20G<311.5 400>
VStem: 220 180<96.75 505 595 980.878 1113 1356.5> 940 185<153.5 802.161>
LayerCount: 2
Fore
SplineSet
50 0 m 1,0,-1
 50 15 l 1,1,2
 220 61 220 61 220 250 c 2,3,-1
 220 505 l 1,4,-1
 50 505 l 1,5,-1
 101 595 l 1,6,-1
 220 595 l 1,7,-1
 220 1264 l 2,8,9
 220 1375 220 1375 50 1412 c 1,10,-1
 50 1426 l 1,11,12
 223 1509 223 1509 400 1530 c 1,13,-1
 400 1113 l 1,14,15
 460 1120 460 1120 521 1120 c 0,16,17
 811 1120 811 1120 982 954 c 0,18,19
 1125 815 1125 815 1125 550 c 2,20,-1
 1125 246 l 2,21,22
 1125 135 1125 135 1295 98 c 1,23,-1
 1295 84 l 1,24,25
 1123 2 1123 2 940 -20 c 1,26,-1
 940 550 l 2,27,28
 940 748 940 748 866 875 c 0,29,30
 776 1029 776 1029 581 1029 c 0,31,32
 400 1029 400 1029 400 848 c 2,33,-1
 400 595 l 1,34,-1
 630 595 l 1,35,-1
 579 505 l 1,36,-1
 400 505 l 1,37,-1
 400 250 l 2,38,39
 400 59 400 59 570 15 c 1,40,-1
 570 0 l 1,41,-1
 50 0 l 1,0,-1
EndSplineSet
Validated: 1
EndChar

StartChar: kgreenlandic
Encoding: 312 312 204
Width: 1278
Flags: W
HStem: 0 15<50 70.5859 549.414 570 672 692.42 1250.46 1268> 1085 15<701 721.885 1155.42 1171> 1100 20G<311.5 400>
VStem: 220 180<96.25 249 398 946.5>
DStem2: 400 398 400 249 0.617648 0.786455<0 216.105 253.118 705.954> 788 540 606 511 0.539136 -0.842218<0 332.293>
LayerCount: 2
Fore
SplineSet
50 0 m 1,0,-1
 50 15 l 1,1,2
 220 60 220 60 220 250 c 2,3,-1
 220 854 l 2,4,5
 220 965 220 965 50 1002 c 1,6,-1
 50 1016 l 1,7,8
 223 1099 223 1099 400 1120 c 1,9,-1
 400 398 l 1,10,-1
 754 863 l 2,11,12
 802 926 802 926 802 985 c 0,13,14
 802 1054 802 1054 701 1085 c 1,15,-1
 701 1100 l 1,16,-1
 1171 1100 l 1,17,-1
 1171 1085 l 1,18,19
 1004 1018 1004 1018 872 850 c 2,20,-1
 629 540 l 1,21,-1
 788 540 l 1,22,-1
 973 251 l 2,23,24
 1079 85 1079 85 1268 15 c 1,25,-1
 1268 0 l 1,26,-1
 672 0 l 1,27,-1
 672 15 l 1,28,29
 808 61 808 61 808 157 c 0,30,31
 808 197 808 197 775 248 c 2,32,-1
 606 511 l 1,33,-1
 400 249 l 1,34,35
 400 59 400 59 570 15 c 1,36,-1
 570 0 l 1,37,-1
 50 0 l 1,0,-1
EndSplineSet
Validated: 1
EndChar

StartChar: lslash
Encoding: 322 322 205
Width: 660
Flags: W
HStem: 0 15<70 90.5859 569.414 590> 1510 20G<331.5 420>
VStem: 240 180<96.25 601 719 752 870 1356.5>
DStem2: 70 576 89 474 0.765584 0.643335<0 146.233 457.095 603.328>
LayerCount: 2
Fore
SplineSet
70 0 m 1,0,-1
 70 15 l 1,1,2
 240 60 240 60 240 250 c 2,3,-1
 240 601 l 1,4,-1
 89 474 l 1,5,-1
 70 576 l 1,6,-1
 240 719 l 1,7,-1
 240 1264 l 2,8,9
 240 1375 240 1375 70 1412 c 1,10,-1
 70 1426 l 1,11,12
 243 1509 243 1509 420 1530 c 1,13,-1
 420 870 l 1,14,-1
 571 997 l 1,15,-1
 590 895 l 1,16,-1
 420 752 l 1,17,-1
 420 250 l 2,18,19
 420 59 420 59 590 15 c 1,20,-1
 590 0 l 1,21,-1
 70 0 l 1,0,-1
EndSplineSet
Validated: 19457
EndChar

StartChar: eng
Encoding: 331 331 206
Width: 1305
Flags: W
HStem: -430 21G<715 920> 0 15<50 70.5859 549.414 570> 1029 91<447.303 759.215>
VStem: 220 180<96.75 939.5> 940 185<-216.297 802.161>
LayerCount: 2
Fore
SplineSet
50 0 m 1,0,-1
 50 15 l 1,1,2
 220 61 220 61 220 250 c 2,3,-1
 220 847 l 2,4,5
 220 958 220 958 50 995 c 1,6,-1
 50 1009 l 1,7,8
 282 1120 282 1120 521 1120 c 0,9,10
 811 1120 811 1120 982 954 c 0,11,12
 1125 815 1125 815 1125 550 c 2,13,-1
 1125 0 l 2,14,15
 1125 -388 1125 -388 715 -430 c 1,16,-1
 715 -415 l 1,17,18
 940 -292 940 -292 940 0 c 2,19,-1
 940 550 l 2,20,21
 940 747 940 747 866 875 c 0,22,23
 777 1029 777 1029 581 1029 c 0,24,25
 400 1029 400 1029 400 848 c 2,26,-1
 400 250 l 2,27,28
 400 59 400 59 570 15 c 1,29,-1
 570 0 l 1,30,-1
 50 0 l 1,0,-1
EndSplineSet
Validated: 1
EndChar

StartChar: eth
Encoding: 240 240 207
Width: 1282
Flags: W
HStem: -20 91<459.83 762.17> 1029 91<460.071 762.704> 1458 92<484.209 600.234>
VStem: 90 210<303.575 796.425> 922 210<304.127 829.276>
DStem2: 494 1369 477 1267 0.939628 0.342198<0 121.49 353.404 478.055>
LayerCount: 2
Fore
SplineSet
611 -20 m 128,-1,1
 415 -20 415 -20 265 116 c 0,2,3
 90 274 90 274 90 550 c 128,-1,4
 90 826 90 826 265 984 c 0,5,6
 415 1120 415 1120 611 1120 c 0,7,8
 814 1120 814 1120 943 953 c 1,9,10
 907 1160 907 1160 807 1267 c 0,11,12
 762 1315 762 1315 710 1352 c 1,13,-1
 477 1267 l 1,14,-1
 494 1369 l 1,15,-1
 608 1411 l 1,16,17
 531 1445 531 1445 442 1458 c 1,18,-1
 492 1550 l 1,19,20
 641 1537 641 1537 765 1468 c 1,21,-1
 991 1550 l 1,22,-1
 974 1448 l 1,23,-1
 857 1405 l 1,24,25
 875 1391 875 1391 892 1376 c 0,26,27
 1132 1160 1132 1160 1132 755 c 2,28,-1
 1132 550 l 2,29,30
 1132 274 1132 274 957 116 c 0,31,0
 807 -20 807 -20 611 -20 c 128,-1,1
611 71 m 128,-1,33
 756 71 756 71 840 193 c 0,34,35
 922 312 922 312 922 550 c 128,-1,36
 922 788 922 788 840 907 c 0,37,38
 756 1029 756 1029 611 1029 c 0,39,40
 467 1029 467 1029 382 907 c 0,41,42
 300 789 300 789 300 550 c 128,-1,43
 300 311 300 311 382 193 c 0,44,32
 466 71 466 71 611 71 c 128,-1,33
EndSplineSet
Validated: 1
EndChar

StartChar: oslash
Encoding: 248 248 208
Width: 1222
Flags: W
HStem: -20 91<499.517 762.17> 1029 91<460.071 722.483>
VStem: 90 210<303.575 796.425> 922 210<303.813 796.187>
DStem2: 325 -91 438 -71 0.341803 0.939772<57.4192 138.408 260.665 1139.63 1261.89 1342.88>
LayerCount: 2
Fore
SplineSet
611 -20 m 0,0,1
 534 -20 534 -20 464 1 c 1,2,-1
 438 -71 l 1,3,-1
 325 -91 l 1,4,-1
 372 39 l 1,5,6
 316 69 316 69 265 116 c 0,7,8
 90 274 90 274 90 550 c 128,-1,9
 90 826 90 826 265 984 c 0,10,11
 415 1120 415 1120 611 1120 c 0,12,13
 688 1120 688 1120 758 1099 c 1,14,-1
 784 1171 l 1,15,-1
 897 1191 l 1,16,-1
 850 1061 l 1,17,18
 906 1031 906 1031 957 984 c 0,19,20
 1132 826 1132 826 1132 550 c 128,-1,21
 1132 274 1132 274 957 116 c 0,22,23
 807 -20 807 -20 611 -20 c 0,0,1
611 71 m 0,24,25
 756 71 756 71 840 193 c 0,26,27
 922 312 922 312 922 550 c 128,-1,28
 922 788 922 788 840 907 c 0,29,30
 825 929 825 929 808 946 c 1,31,-1
 498 93 l 1,32,33
 549 71 549 71 611 71 c 0,24,25
414 154 m 1,34,-1
 724 1007 l 1,35,36
 673 1029 673 1029 611 1029 c 0,37,38
 467 1029 467 1029 382 907 c 0,39,40
 300 789 300 789 300 550 c 128,-1,41
 300 311 300 311 382 193 c 0,42,43
 397 172 397 172 414 154 c 1,34,-1
EndSplineSet
Validated: 1
EndChar

StartChar: oe
Encoding: 339 339 209
Width: 1792
Flags: W
HStem: -20 91<459.83 761.796 1116.52 1476.64> 1029 91<460.071 762.138 1115.43 1421.41>
VStem: 90 210<303.575 796.425> 922 210<388.657 796.547> 1521 201<632.859 897.688>
DStem2: 1128 472 1111 373 0.949985 0.312294<0 381.849>
LayerCount: 2
Fore
SplineSet
611 71 m 128,-1,1
 756 71 756 71 840 193 c 0,2,3
 922 312 922 312 922 550 c 128,-1,4
 922 788 922 788 840 907 c 0,5,6
 756 1029 756 1029 611 1029 c 0,7,8
 467 1029 467 1029 382 907 c 0,9,10
 300 789 300 789 300 550 c 128,-1,11
 300 311 300 311 382 193 c 0,12,0
 466 71 466 71 611 71 c 128,-1,1
611 -20 m 0,13,14
 415 -20 415 -20 265 116 c 0,15,16
 90 274 90 274 90 550 c 128,-1,17
 90 826 90 826 265 984 c 0,18,19
 415 1120 415 1120 611 1120 c 0,20,21
 793 1120 793 1120 935 1003 c 1,22,23
 1085 1120 1085 1120 1278 1120 c 0,24,25
 1482 1120 1482 1120 1609 989 c 0,26,27
 1722 872 1722 872 1722 727 c 0,28,29
 1722 574 1722 574 1546 516 c 2,30,-1
 1111 373 l 1,31,32
 1086 274 1086 274 1029 197 c 1,33,34
 1119 71 1119 71 1288 71 c 0,35,36
 1536 71 1536 71 1678 316 c 1,37,-1
 1678 179 l 1,38,39
 1542 -20 1542 -20 1288 -20 c 0,40,41
 1080 -20 1080 -20 934 96 c 1,42,43
 792 -20 792 -20 611 -20 c 0,13,14
1029 903 m 1,44,45
 1132 761 1132 761 1132 550 c 0,46,47
 1132 510 1132 510 1128 472 c 1,48,-1
 1356 553 l 2,49,50
 1521 612 1521 612 1521 767 c 0,51,52
 1521 854 1521 854 1479 922 c 0,53,54
 1413 1029 1413 1029 1278 1029 c 0,55,56
 1119 1029 1119 1029 1029 903 c 1,44,45
EndSplineSet
Validated: 1
EndChar

StartChar: tbar
Encoding: 359 359 210
Width: 886
Flags: W
HStem: 0 15<188 208.586 677.414 698> 505 90<209 358 528 677> 1010 90<214.594 358 528 671.406> 1510 20G<444.5 528>
VStem: 358 170<96.25 505 595 1010 1100 1356.5>
LayerCount: 2
Fore
SplineSet
188 0 m 1,0,-1
 188 15 l 1,1,2
 358 60 358 60 358 250 c 2,3,-1
 358 505 l 1,4,-1
 158 505 l 1,5,-1
 209 595 l 1,6,-1
 358 595 l 1,7,-1
 358 1010 l 1,8,-1
 210 1010 l 2,9,10
 120 1010 120 1010 25 917 c 1,11,-1
 10 917 l 1,12,-1
 189 1211 l 1,13,-1
 204 1211 l 1,14,15
 208 1100 208 1100 266 1100 c 2,16,-1
 358 1100 l 1,17,-1
 358 1264 l 2,18,19
 358 1375 358 1375 188 1412 c 1,20,-1
 188 1426 l 1,21,22
 361 1509 361 1509 528 1530 c 1,23,-1
 528 1100 l 1,24,-1
 676 1100 l 2,25,26
 766 1100 766 1100 861 1193 c 1,27,-1
 876 1193 l 1,28,-1
 697 899 l 1,29,-1
 682 899 l 1,30,31
 678 1010 678 1010 620 1010 c 2,32,-1
 528 1010 l 1,33,-1
 528 595 l 1,34,-1
 728 595 l 1,35,-1
 677 505 l 1,36,-1
 528 505 l 1,37,-1
 528 250 l 2,38,39
 528 59 528 59 698 15 c 1,40,-1
 698 0 l 1,41,-1
 188 0 l 1,0,-1
EndSplineSet
Validated: 1
EndChar

StartChar: thorn
Encoding: 254 254 211
Width: 1240
Flags: W
HStem: -410 15<50 70.5859 549.414 570> -20 91<447.575 756.576> 1029 91<447.575 756.825> 1510 20G<311.5 400>
VStem: 220 180<-313.75 -13 119.122 980.878 1113 1356.5> 940 210<311.597 788.403>
LayerCount: 2
Fore
SplineSet
400 848 m 2,0,1
 400 252 l 2,2,3
 400 71 400 71 581 71 c 0,4,5
 776 71 776 71 866 225 c 0,6,7
 940 352 940 352 940 550 c 128,-1,8
 940 748 940 748 866 875 c 0,9,10
 777 1029 777 1029 581 1029 c 0,11,12
 400 1029 400 1029 400 848 c 2,0,1
521 -20 m 0,13,14
 460 -20 460 -20 400 -13 c 1,15,-1
 400 -160 l 2,16,17
 400 -351 400 -351 570 -395 c 1,18,-1
 570 -410 l 1,19,-1
 50 -410 l 1,20,-1
 50 -395 l 1,21,22
 220 -350 220 -350 220 -160 c 2,23,-1
 220 1264 l 2,24,25
 220 1375 220 1375 50 1412 c 1,26,-1
 50 1426 l 1,27,28
 223 1509 223 1509 400 1530 c 9,29,-1
 400 1113 l 1,30,31
 460 1120 460 1120 521 1120 c 0,32,33
 814 1120 814 1120 988 959 c 0,34,35
 1150 809 1150 809 1150 550 c 128,-1,36
 1150 291 1150 291 988 141 c 0,37,38
 814 -20 814 -20 521 -20 c 0,13,14
EndSplineSet
Validated: 1
EndChar

StartChar: Thorn
Encoding: 222 222 212
Width: 1306
Flags: W
HStem: 0 15<50 70.5859 569.531 590> 236 92<487.25 825.146> 1182 92<487.25 825.146> 1495 15<50 70.5859 569.531 590>
VStem: 220 200<96 247 393.131 1116.87 1263 1414.25> 1011 225<540.827 969.173>
LayerCount: 2
Fore
SplineSet
420 509 m 2,0,1
 420 420 420 420 491 369 c 0,2,3
 548 328 548 328 652 328 c 0,4,5
 836 329 836 329 940 479 c 0,6,7
 1011 582 1011 582 1011 755 c 128,-1,8
 1011 928 1011 928 940 1031 c 0,9,10
 836 1181 836 1181 652 1182 c 0,11,12
 548 1182 548 1182 491 1141 c 0,13,14
 420 1090 420 1090 420 1001 c 2,15,-1
 420 509 l 2,0,1
50 0 m 1,16,-1
 50 15 l 1,17,18
 220 60 220 60 220 249 c 2,19,-1
 220 1260 l 2,20,21
 220 1451 220 1451 50 1495 c 1,22,-1
 50 1510 l 1,23,-1
 590 1510 l 1,24,-1
 590 1495 l 1,25,26
 421 1450 421 1450 420 1263 c 1,27,28
 508 1274 508 1274 574 1274 c 0,29,30
 893 1274 893 1274 1067 1129 c 0,31,32
 1236 988 1236 988 1236 755 c 128,-1,33
 1236 522 1236 522 1067 381 c 0,34,35
 893 236 893 236 574 236 c 0,36,37
 508 236 508 236 420 247 c 1,38,39
 421 60 421 60 590 15 c 1,40,-1
 590 0 l 1,41,-1
 50 0 l 1,16,-1
EndSplineSet
Validated: 1
EndChar

